;TYPE=PLATED
;Layer: PTH_Through
;EasyEDA Pro v2.2.45.4, 2025-12-25 15:41:58
;Gerber Generator version 0.3
M48
METRIC,LZ,0000.00000
;Hole size 1 = 1.50000 METRIC
T01C1.50000
;Hole size 2 = 1.50002 METRIC
T02C1.50002
;Hole size 3 = 1.52400 METRIC
T03C1.52400
;Hole size 4 = 3.10000 METRIC
T04C3.10000
%
G05
G90
T01
X45.817Y35.7886
X45.817Y32.3342
X37.054Y39.243
X11.079Y9.144
X11.079Y2.286
X11.079Y5.715
X45.817Y39.243
T02
X58.29295Y12.45806
X52.29296Y14.45844
X64.29289Y26.65806
X64.29294Y14.45844
X10.28695Y22.61806
X4.28696Y24.61844
X16.28689Y36.81806
X16.28694Y24.61844
T03
X48.29048Y26.6074
X42.291Y12.40746
X36.29101Y14.40748
X48.29099Y14.40748
X36.29152Y26.60748
X32.28848Y17.25994
X26.289Y3.05999
X20.28901Y5.06001
X32.28899Y5.06001
X20.28952Y17.26001
X32.28848Y36.81794
X26.289Y22.61799
X20.28901Y24.61801
X32.28899Y24.61801
X20.28952Y36.81801
T04
X16.583Y14.097G85X16.183Y14.097
M30