G04 Layer: BottomSolderMaskLayer*
G04 EasyEDA Pro v2.2.45.4, 2025-12-25 15:41:57*
G04 Gerber Generator version 0.3*
G04 Scale: 100 percent, Rotated: No, Reflected: No*
G04 Dimensions in millimeters*
G04 Leading zeros omitted, absolute positions, 4 integers and 5 decimals*
G04 Generated by custom config*
%FSLAX45Y45*%
%MOMM*%
%AMRoundRect*1,1,$1,$2,$3*1,1,$1,$4,$5*1,1,$1,0-$2,0-$3*1,1,$1,0-$4,0-$5*20,1,$1,$2,$3,$4,$5,0*20,1,$1,$4,$5,0-$2,0-$3,0*20,1,$1,0-$2,0-$3,0-$4,0-$5,0*20,1,$1,0-$4,0-$5,$2,$3,0*4,1,4,$2,$3,$4,$5,0-$2,0-$3,0-$4,0-$5,$2,$3,0*%
%ADD10O,5.1016X2.4016*%
%ADD11O,4.1016X3.6016*%
%ADD12C,2.4016*%
%ADD13C,2.8956*%
%ADD14RoundRect,0.09618X-0.90271X0.85271X0.90271X0.85271*%
%ADD15C,0.9432*%
G75*


G04 Pad Start*
G54D10*
G01X4711700Y3578860D03*
G01X4711700Y3233420D03*
G01X3835400Y3924300D03*
G01X977900Y914400D03*
G01X977900Y228600D03*
G01X977900Y571500D03*
G01X4711700Y3924300D03*
G54D11*
G01X1638300Y1409700D03*
G54D12*
G01X5829300Y1245794D03*
G01X5229301Y1445844D03*
G01X6429299Y2665806D03*
G01X6429299Y1445844D03*
G01X1028700Y2261794D03*
G01X428701Y2461844D03*
G01X1628699Y3681806D03*
G01X1628699Y2461844D03*
G54D13*
G01X4829048Y2660753D03*
G01X4229100Y1240740D03*
G01X3629101Y1440740D03*
G01X4829099Y1440740D03*
G01X3629152Y2660753D03*
G01X3228848Y1726006D03*
G01X2628900Y305994D03*
G01X2028901Y505993D03*
G01X3228899Y505993D03*
G01X2028952Y1726006D03*
G01X3228848Y3681806D03*
G01X2628900Y2261794D03*
G01X2028901Y2461793D03*
G01X3228899Y2461793D03*
G01X2028952Y3681806D03*
G54D14*
G01X5609806Y1724637D03*
G01X6048312Y1724637D03*
G01X1247712Y2740637D03*
G01X809206Y2740637D03*
G01X4010707Y1719449D03*
G01X4449213Y1719449D03*
G01X2410507Y784703D03*
G01X2849013Y784703D03*
G01X2410507Y2740503D03*
G01X2849013Y2740503D03*
G04 Pad End*

M02*

