G04 Layer: BottomLayer*
G04 EasyEDA Pro v2.2.45.4, 2025-12-25 15:41:57*
G04 Gerber Generator version 0.3*
G04 Scale: 100 percent, Rotated: No, Reflected: No*
G04 Dimensions in millimeters*
G04 Leading zeros omitted, absolute positions, 4 integers and 5 decimals*
G04 Generated by custom config*
%FSLAX45Y45*%
%MOMM*%
%ADD10C,0.5*%
%ADD11C,0.254*%
%ADD12O,5.0X2.3*%
%ADD13O,4.0X3.5*%
%ADD14C,2.3*%
%ADD15C,2.794*%
%ADD16R,1.8X1.7*%
%ADD17C,2.0*%
%ADD18C,1.8001*%
%ADD19C,1.8*%
G75*


G04 Copper Start*
G36*
G01X198040Y3876545D02*
G01X198040Y2106406D01*
G01X198207Y2100288D01*
G01X173732Y2107729D01*
G01X150474Y2118380D01*
G01X128852Y2132048D01*
G01X109254Y2148488D01*
G01X92033Y2167403D01*
G01X77499Y2188454D01*
G01X65915Y2211261D01*
G01X57488Y2235414D01*
G01X52370Y2260477D01*
G01X50654Y2286000D01*
G01X50654Y3502100D01*
G01X52560Y3547824D01*
G01X58266Y3593231D01*
G01X67731Y3638006D01*
G01X80890Y3681837D01*
G01X97651Y3724421D01*
G01X117899Y3765462D01*
G01X141493Y3804676D01*
G01X168268Y3841789D01*
G01X198040Y3876545D01*
G37*
G36*
G01X50654Y2064886D02*
G01X74075Y2046682D01*
G01X99223Y2030949D01*
G01X125837Y2017848D01*
G01X153643Y2007516D01*
G01X182355Y2000058D01*
G01X211674Y1995553D01*
G01X241300Y1994046D01*
G01X330200Y1994046D01*
G01X353717Y1992364D01*
G01X376755Y1987352D01*
G01X398846Y1979113D01*
G01X419539Y1967814D01*
G01X438413Y1953685D01*
G01X455085Y1937013D01*
G01X469214Y1918139D01*
G01X480513Y1897446D01*
G01X488752Y1875355D01*
G01X493764Y1852317D01*
G01X495446Y1828800D01*
G01X495446Y380079D01*
G01X497442Y338759D01*
G01X503413Y297824D01*
G01X513301Y257655D01*
G01X527016Y218626D01*
G01X544429Y181101D01*
G01X565379Y145430D01*
G01X589669Y111944D01*
G01X617075Y80956D01*
G01X647340Y52754D01*
G01X600000Y52754D01*
G01X554635Y54630D01*
G01X509581Y60246D01*
G01X465144Y69564D01*
G01X421628Y82519D01*
G01X379330Y99024D01*
G01X338540Y118965D01*
G01X299536Y142206D01*
G01X262585Y168589D01*
G01X227938Y197933D01*
G01X195833Y230038D01*
G01X166489Y264685D01*
G01X140106Y301636D01*
G01X116865Y340640D01*
G01X96924Y381430D01*
G01X80419Y423728D01*
G01X67464Y467244D01*
G01X58146Y511681D01*
G01X52530Y556735D01*
G01X50654Y602100D01*
G01X50654Y2064886D01*
G37*
G36*
G01X682701Y2891291D02*
G01X644010Y2889437D01*
G01X605674Y2883892D01*
G01X568044Y2874707D01*
G01X531464Y2861967D01*
G01X496270Y2845786D01*
G01X462784Y2826316D01*
G01X431314Y2803732D01*
G01X402147Y2778243D01*
G01X375550Y2750082D01*
G01X351768Y2719507D01*
G01X331019Y2686798D01*
G01X313492Y2652255D01*
G01X299348Y2616194D01*
G01X299348Y3687209D01*
G01X1463133Y3687209D01*
G01X1464260Y3661778D01*
G01X1469270Y3636821D01*
G01X1478045Y3612926D01*
G01X1478045Y3530600D01*
G01X1479993Y3490937D01*
G01X1485820Y3451656D01*
G01X1495469Y3413135D01*
G01X1508847Y3375746D01*
G01X1525826Y3339847D01*
G01X1546241Y3305786D01*
G01X1569897Y3273890D01*
G01X1596565Y3244466D01*
G01X1625989Y3217798D01*
G01X1657885Y3194142D01*
G01X1691946Y3173727D01*
G01X1727844Y3156748D01*
G01X1765234Y3143370D01*
G01X1803755Y3133721D01*
G01X1843036Y3127895D01*
G01X1882699Y3125946D01*
G01X2261636Y3125946D01*
G01X2261636Y3125946D01*
G01X2259853Y3091387D01*
G01X2259853Y2890500D01*
G01X2259853Y2890500D01*
G01X2221424Y2886459D01*
G01X2183556Y2878772D01*
G01X2146594Y2867508D01*
G01X2110875Y2852770D01*
G01X2076724Y2834692D01*
G01X2044454Y2813439D01*
G01X2014357Y2789205D01*
G01X1986710Y2762211D01*
G01X1961763Y2732703D01*
G01X1939744Y2700950D01*
G01X1920854Y2667242D01*
G01X1905266Y2631885D01*
G01X1893121Y2595203D01*
G01X1875148Y2574019D01*
G01X1860450Y2550443D01*
G01X1849340Y2524980D01*
G01X1842055Y2498170D01*
G01X1838750Y2470586D01*
G01X1839496Y2442814D01*
G01X1844276Y2415446D01*
G01X1852988Y2389066D01*
G01X1865448Y2364235D01*
G01X1881389Y2341482D01*
G01X1900472Y2321292D01*
G01X1922291Y2304094D01*
G01X1946381Y2290256D01*
G01X1972229Y2280071D01*
G01X1999284Y2273758D01*
G01X2026969Y2271449D01*
G01X2054696Y2273195D01*
G01X2081873Y2278959D01*
G01X2107922Y2288616D01*
G01X2132288Y2301963D01*
G01X2154452Y2318714D01*
G01X2173941Y2338513D01*
G01X2190341Y2360938D01*
G01X2203302Y2385511D01*
G01X2212548Y2411708D01*
G01X2217882Y2438973D01*
G01X2219191Y2466724D01*
G01X2216447Y2494370D01*
G01X2209708Y2521322D01*
G01X2199117Y2547006D01*
G01X2211982Y2561675D01*
G01X2227374Y2573664D01*
G01X2244746Y2582547D01*
G01X2263477Y2588007D01*
G01X2282901Y2589849D01*
G01X2363431Y2589849D01*
G01X2386969Y2591699D01*
G01X2409731Y2589851D01*
G01X2432510Y2591464D01*
G01X2454784Y2596502D01*
G01X2476041Y2604849D01*
G01X2500507Y2604849D01*
G01X2513617Y2606575D01*
G01X2525834Y2611635D01*
G01X2536325Y2619685D01*
G01X2544374Y2630176D01*
G01X2549435Y2642392D01*
G01X2551161Y2655503D01*
G01X2551161Y2686529D01*
G01X2556689Y2704067D01*
G01X2560039Y2722148D01*
G01X2561161Y2740503D01*
G01X2561161Y2751533D01*
G01X2698763Y2751533D01*
G01X2698763Y2729472D01*
G01X2701985Y2707648D01*
G01X2708359Y2686529D01*
G01X2708359Y2655503D01*
G01X2710085Y2642392D01*
G01X2715145Y2630176D01*
G01X2723195Y2619685D01*
G01X2733686Y2611635D01*
G01X2745903Y2606575D01*
G01X2759013Y2604849D01*
G01X2783479Y2604849D01*
G01X2804488Y2596578D01*
G01X2826497Y2591540D01*
G01X2849013Y2589849D01*
G01X2974899Y2589849D01*
G01X2994323Y2588007D01*
G01X3013054Y2582547D01*
G01X3030426Y2573664D01*
G01X3045818Y2561675D01*
G01X3058683Y2547006D01*
G01X3048092Y2521322D01*
G01X3041353Y2494370D01*
G01X3038609Y2466724D01*
G01X3039918Y2438973D01*
G01X3045252Y2411708D01*
G01X3054498Y2385511D01*
G01X3067459Y2360938D01*
G01X3083859Y2338513D01*
G01X3103348Y2318714D01*
G01X3125512Y2301963D01*
G01X3149878Y2288616D01*
G01X3175927Y2278959D01*
G01X3203104Y2273195D01*
G01X3230831Y2271449D01*
G01X3258516Y2273758D01*
G01X3258516Y2273758D01*
G01X3285571Y2280071D01*
G01X3311419Y2290256D01*
G01X3335509Y2304094D01*
G01X3357328Y2321292D01*
G01X3376411Y2341482D01*
G01X3392352Y2364235D01*
G01X3404812Y2389066D01*
G01X3413524Y2415446D01*
G01X3418304Y2442814D01*
G01X3419050Y2470586D01*
G01X3415745Y2498170D01*
G01X3408460Y2524980D01*
G01X3397350Y2550443D01*
G01X3382652Y2574019D01*
G01X3364679Y2595203D01*
G01X3351893Y2633540D01*
G01X3339681Y2660753D01*
G01X3438798Y2660753D01*
G01X3440736Y2633663D01*
G01X3446509Y2607124D01*
G01X3456000Y2581677D01*
G01X3469016Y2557840D01*
G01X3485292Y2536098D01*
G01X3504497Y2516893D01*
G01X3526239Y2500617D01*
G01X3550076Y2487601D01*
G01X3575523Y2478110D01*
G01X3602062Y2472336D01*
G01X3629152Y2470399D01*
G01X3656242Y2472336D01*
G01X3682781Y2478110D01*
G01X3708228Y2487601D01*
G01X3732065Y2500617D01*
G01X3753807Y2516893D01*
G01X3773012Y2536098D01*
G01X3789288Y2557840D01*
G01X3802304Y2581677D01*
G01X3811795Y2607124D01*
G01X3817568Y2633663D01*
G01X3819506Y2660753D01*
G01X3817568Y2687843D01*
G01X3811795Y2714382D01*
G01X3802304Y2739829D01*
G01X3789288Y2763666D01*
G01X3773012Y2785408D01*
G01X3753807Y2804613D01*
G01X3732065Y2820889D01*
G01X3708228Y2833905D01*
G01X3682781Y2843396D01*
G01X3656242Y2849169D01*
G01X3629152Y2851107D01*
G01X3629152Y2851107D01*
G01X3602062Y2849169D01*
G01X3575523Y2843396D01*
G01X3550076Y2833905D01*
G01X3526239Y2820889D01*
G01X3504497Y2804613D01*
G01X3485292Y2785408D01*
G01X3469016Y2763666D01*
G01X3456000Y2739829D01*
G01X3446509Y2714382D01*
G01X3440736Y2687843D01*
G01X3438798Y2660753D01*
G01X3339681Y2660753D01*
G01X3335347Y2670409D01*
G01X3315206Y2705445D01*
G01X3291671Y2738296D01*
G01X3264977Y2768637D01*
G01X3235389Y2796163D01*
G01X3203203Y2820601D01*
G01X3168740Y2841707D01*
G01X3132344Y2859270D01*
G01X3094378Y2873116D01*
G01X3055220Y2883105D01*
G01X3015261Y2889139D01*
G01X2974899Y2891157D01*
G01X2849013Y2891157D01*
G01X2849013Y2891157D01*
G01X2826497Y2889465D01*
G01X2804488Y2884427D01*
G01X2783479Y2876156D01*
G01X2759013Y2876156D01*
G01X2745903Y2874430D01*
G01X2733686Y2869370D01*
G01X2723195Y2861320D01*
G01X2715145Y2850829D01*
G01X2710085Y2838613D01*
G01X2708359Y2825502D01*
G01X2708359Y2794476D01*
G01X2701985Y2773357D01*
G01X2698763Y2751533D01*
G01X2561161Y2751533D01*
G01X2561161Y3091387D01*
G01X2562852Y3102066D01*
G01X2567761Y3111700D01*
G01X2575407Y3119346D01*
G01X2585041Y3124255D01*
G01X2595720Y3125946D01*
G01X3797300Y3125946D01*
G01X3817462Y3123960D01*
G01X3836849Y3118079D01*
G01X3854716Y3108529D01*
G01X3870377Y3095677D01*
G01X3883229Y3080016D01*
G01X3892779Y3062149D01*
G01X3898660Y3042762D01*
G01X3900646Y3022600D01*
G01X3900646Y2473932D01*
G01X3899003Y2455576D01*
G01X3894126Y2437805D01*
G01X3886170Y2421182D01*
G01X3875388Y2406236D01*
G01X3862123Y2393443D01*
G01X3846796Y2383210D01*
G01X3829896Y2375861D01*
G01X3811959Y2371631D01*
G01X3797300Y2370586D01*
G01X3794524Y2370586D01*
G01X3773154Y2369063D01*
G01X3736649Y2362108D01*
G01X3700936Y2351834D01*
G01X3666316Y2338326D01*
G01X3633082Y2321700D01*
G01X3601512Y2302095D01*
G01X3571875Y2279677D01*
G01X3544419Y2254634D01*
G01X3204593Y1914809D01*
G01X3204593Y1914809D01*
G01X3178477Y1909575D01*
G01X3153346Y1900746D01*
G01X3129694Y1888496D01*
G01X3107983Y1873065D01*
G01X3088639Y1854754D01*
G01X3072040Y1833922D01*
G01X3058511Y1810977D01*
G01X3048318Y1786369D01*
G01X3041660Y1760578D01*
G01X3038667Y1734111D01*
G01X3039397Y1707484D01*
G01X3043837Y1681221D01*
G01X3051900Y1655834D01*
G01X3063428Y1631822D01*
G01X3078194Y1609653D01*
G01X3078194Y1397140D01*
G01X3076208Y1376979D01*
G01X3070327Y1357592D01*
G01X3060777Y1339725D01*
G01X3047925Y1324064D01*
G01X3032264Y1311211D01*
G01X3014397Y1301661D01*
G01X2995010Y1295780D01*
G01X2974848Y1293794D01*
G01X2664507Y1293794D01*
G01X2625247Y1291885D01*
G01X2586357Y1286176D01*
G01X2548204Y1276721D01*
G01X2511149Y1263608D01*
G01X2475541Y1246963D01*
G01X2441716Y1226941D01*
G01X2409993Y1203731D01*
G01X2380671Y1177554D01*
G01X2354028Y1148655D01*
G01X2330314Y1117307D01*
G01X2309754Y1083807D01*
G01X2292540Y1048470D01*
G01X2278837Y1011629D01*
G01X2268772Y973633D01*
G01X2262442Y934839D01*
G01X2223791Y931016D01*
G01X2185684Y923505D01*
G01X2148474Y912375D01*
G01X2112501Y897729D01*
G01X2078099Y879702D01*
G01X2045583Y858460D01*
G01X2015254Y834198D01*
G01X1987390Y807140D01*
G01X1962248Y777536D01*
G01X1940061Y745657D01*
G01X1921032Y711799D01*
G01X1905337Y676272D01*
G01X1893121Y639403D01*
G01X1875148Y618219D01*
G01X1860450Y594643D01*
G01X1849340Y569180D01*
G01X1842055Y542370D01*
G01X1838750Y514786D01*
G01X1839496Y487014D01*
G01X1844276Y459646D01*
G01X1852988Y433266D01*
G01X1865448Y408435D01*
G01X1881389Y385682D01*
G01X1900472Y365492D01*
G01X1922291Y348294D01*
G01X1946381Y334456D01*
G01X1972229Y324271D01*
G01X1999284Y317958D01*
G01X2026969Y315649D01*
G01X2054696Y317395D01*
G01X2081873Y323159D01*
G01X2107922Y332816D01*
G01X2132288Y346163D01*
G01X2154452Y362914D01*
G01X2173941Y382713D01*
G01X2190341Y405138D01*
G01X2203302Y429711D01*
G01X2212548Y455908D01*
G01X2217882Y483173D01*
G01X2219191Y510924D01*
G01X2216447Y538570D01*
G01X2209708Y565522D01*
G01X2199117Y591206D01*
G01X2199117Y591206D01*
G01X2211982Y605875D01*
G01X2227374Y617864D01*
G01X2244746Y626747D01*
G01X2263477Y632207D01*
G01X2282901Y634049D01*
G01X2410507Y634049D01*
G01X2433022Y635740D01*
G01X2455031Y640778D01*
G01X2476041Y649049D01*
G01X2500507Y649049D01*
G01X2513617Y650775D01*
G01X2525834Y655835D01*
G01X2536325Y663885D01*
G01X2544374Y674376D01*
G01X2549435Y686592D01*
G01X2551161Y699703D01*
G01X2551161Y730729D01*
G01X2556689Y748267D01*
G01X2560039Y766348D01*
G01X2561161Y784703D01*
G01X2561161Y795733D01*
G01X2698763Y795733D01*
G01X2698763Y773672D01*
G01X2701985Y751848D01*
G01X2708359Y730729D01*
G01X2708359Y699703D01*
G01X2710085Y686592D01*
G01X2715145Y674376D01*
G01X2723195Y663885D01*
G01X2733686Y655835D01*
G01X2745903Y650775D01*
G01X2759013Y649049D01*
G01X2783479Y649049D01*
G01X2804488Y640778D01*
G01X2826497Y635740D01*
G01X2849013Y634049D01*
G01X2974899Y634049D01*
G01X2994323Y632207D01*
G01X3013054Y626747D01*
G01X3030426Y617864D01*
G01X3045818Y605875D01*
G01X3058683Y591206D01*
G01X3048092Y565522D01*
G01X3041353Y538570D01*
G01X3038609Y510924D01*
G01X3039918Y483173D01*
G01X3045252Y455908D01*
G01X3054498Y429711D01*
G01X3067459Y405138D01*
G01X3083859Y382713D01*
G01X3103348Y362914D01*
G01X3125512Y346163D01*
G01X3149878Y332816D01*
G01X3175927Y323159D01*
G01X3203104Y317395D01*
G01X3230831Y315649D01*
G01X3258516Y317958D01*
G01X3258516Y317958D01*
G01X3285571Y324271D01*
G01X3311419Y334456D01*
G01X3335509Y348294D01*
G01X3357328Y365492D01*
G01X3376411Y385682D01*
G01X3392352Y408435D01*
G01X3404812Y433266D01*
G01X3413524Y459646D01*
G01X3418304Y487014D01*
G01X3419050Y514786D01*
G01X3415745Y542370D01*
G01X3408460Y569180D01*
G01X3397350Y594643D01*
G01X3382652Y618219D01*
G01X3364679Y639403D01*
G01X3351893Y677740D01*
G01X3335347Y714609D01*
G01X3315206Y749645D01*
G01X3291671Y782496D01*
G01X3264977Y812837D01*
G01X3235389Y840363D01*
G01X3203203Y864801D01*
G01X3168740Y885907D01*
G01X3132344Y903470D01*
G01X3094378Y917316D01*
G01X3055220Y927305D01*
G01X3015261Y933339D01*
G01X2974899Y935357D01*
G01X2849013Y935357D01*
G01X2849013Y935357D01*
G01X2826497Y933665D01*
G01X2804488Y928627D01*
G01X2783479Y920356D01*
G01X2759013Y920356D01*
G01X2745903Y918630D01*
G01X2733686Y913570D01*
G01X2723195Y905520D01*
G01X2715145Y895029D01*
G01X2710085Y882813D01*
G01X2708359Y869702D01*
G01X2708359Y838676D01*
G01X2701985Y817557D01*
G01X2698763Y795733D01*
G01X2561161Y795733D01*
G01X2561161Y889140D01*
G01X2563147Y909302D01*
G01X2569028Y928689D01*
G01X2578578Y946556D01*
G01X2591430Y962217D01*
G01X2607091Y975070D01*
G01X2624958Y984620D01*
G01X2644345Y990501D01*
G01X2664507Y992486D01*
G01X2974848Y992486D01*
G01X3013652Y994351D01*
G01X3052097Y999928D01*
G01X3089831Y1009167D01*
G01X3126505Y1021981D01*
G01X3161782Y1038252D01*
G01X3195335Y1057832D01*
G01X3226856Y1080539D01*
G01X3256055Y1106164D01*
G01X3282662Y1134470D01*
G01X3306431Y1165198D01*
G01X3327145Y1198063D01*
G01X3344612Y1232764D01*
G01X3350532Y1248014D01*
G01X4038885Y1248014D01*
G01X4039717Y1221542D01*
G01X4044214Y1195442D01*
G01X4052291Y1170219D01*
G01X4063790Y1146361D01*
G01X4078490Y1124331D01*
G01X4078490Y1124331D01*
G01X4080982Y1085071D01*
G01X4087273Y1046240D01*
G01X4097306Y1008202D01*
G01X4110985Y971319D01*
G01X4128180Y935938D01*
G01X4148730Y902394D01*
G01X4172439Y871003D01*
G01X4199085Y842064D01*
G01X4228414Y815848D01*
G01X4260151Y792604D01*
G01X4293995Y772551D01*
G01X4329625Y755880D01*
G01X4366707Y742747D01*
G01X4404888Y733276D01*
G01X4443808Y727558D01*
G01X4483100Y725646D01*
G01X4483100Y725646D01*
G01X5575300Y725646D01*
G01X5614963Y727595D01*
G01X5654244Y733421D01*
G01X5692765Y743070D01*
G01X5730154Y756448D01*
G01X5766053Y773427D01*
G01X5800114Y793842D01*
G01X5832010Y817498D01*
G01X5861434Y844166D01*
G01X5888102Y873590D01*
G01X5911758Y905486D01*
G01X5932173Y939547D01*
G01X5949152Y975446D01*
G01X5962530Y1012835D01*
G01X5972179Y1051356D01*
G01X5978005Y1090637D01*
G01X5979954Y1130300D01*
G01X5979954Y1176913D01*
G01X5988729Y1200809D01*
G01X5993739Y1225766D01*
G01X5994866Y1251196D01*
G01X5992083Y1276499D01*
G01X5985457Y1301077D01*
G01X5975143Y1324349D01*
G01X5961385Y1345767D01*
G01X5944509Y1364823D01*
G01X5924912Y1381069D01*
G01X5903057Y1394121D01*
G01X5879461Y1403670D01*
G01X5854680Y1409492D01*
G01X5829300Y1411448D01*
G01X5803920Y1409492D01*
G01X5779139Y1403670D01*
G01X5755543Y1394121D01*
G01X5733688Y1381069D01*
G01X5714091Y1364823D01*
G01X5697215Y1345767D01*
G01X5683457Y1324349D01*
G01X5673143Y1301077D01*
G01X5666517Y1276499D01*
G01X5663734Y1251196D01*
G01X5664861Y1225766D01*
G01X5669871Y1200809D01*
G01X5678646Y1176913D01*
G01X5678646Y1130300D01*
G01X5676660Y1110138D01*
G01X5670779Y1090751D01*
G01X5661229Y1072884D01*
G01X5648377Y1057223D01*
G01X5632716Y1044371D01*
G01X5614849Y1034821D01*
G01X5595462Y1028940D01*
G01X5575300Y1026954D01*
G01X4483100Y1026954D01*
G01X4463639Y1028803D01*
G01X4444874Y1034284D01*
G01X4427477Y1043200D01*
G01X4412070Y1055232D01*
G01X4399205Y1069951D01*
G01X4389341Y1086829D01*
G01X4382833Y1105263D01*
G01X4379912Y1124592D01*
G01X4394573Y1146648D01*
G01X4406031Y1170526D01*
G01X4414064Y1195763D01*
G01X4418516Y1221871D01*
G01X4419302Y1248344D01*
G01X4416406Y1274670D01*
G01X4409883Y1300339D01*
G01X4399862Y1324854D01*
G01X4386534Y1347741D01*
G01X4370159Y1368557D01*
G01X4351053Y1386898D01*
G01X4329586Y1402410D01*
G01X4306175Y1414793D01*
G01X4281271Y1423806D01*
G01X4255357Y1429275D01*
G01X4228935Y1431094D01*
G01X4202516Y1429229D01*
G01X4176612Y1423715D01*
G01X4151723Y1414659D01*
G01X4128333Y1402236D01*
G01X4106894Y1386686D01*
G01X4087820Y1368312D01*
G01X4071481Y1347468D01*
G01X4058193Y1324558D01*
G01X4048213Y1300025D01*
G01X4041736Y1274345D01*
G01X4038885Y1248014D01*
G01X3350532Y1248014D01*
G01X3358670Y1268979D01*
G01X3369191Y1306376D01*
G01X3406504Y1297353D01*
G01X3444503Y1291907D01*
G01X3482848Y1290086D01*
G01X3512748Y1290086D01*
G01X3534022Y1275832D01*
G01X3557017Y1264563D01*
G01X3581316Y1256482D01*
G01X3606480Y1251735D01*
G01X3632053Y1250409D01*
G01X3657573Y1252527D01*
G01X3682578Y1258052D01*
G01X3706615Y1266883D01*
G01X3729249Y1278860D01*
G01X3750070Y1293767D01*
G01X3768703Y1311334D01*
G01X3784809Y1331242D01*
G01X3798097Y1353132D01*
G01X3808327Y1376608D01*
G01X3815313Y1401244D01*
G01X3818929Y1426595D01*
G01X3819110Y1452202D01*
G01X3815852Y1477602D01*
G01X3809214Y1502335D01*
G01X3799317Y1525952D01*
G01X3812182Y1540621D01*
G01X3827574Y1552611D01*
G01X3844946Y1561494D01*
G01X3863677Y1566953D01*
G01X3883101Y1568795D01*
G01X4010707Y1568795D01*
G01X4033222Y1570487D01*
G01X4055231Y1575525D01*
G01X4076241Y1583795D01*
G01X4100707Y1583795D01*
G01X4113817Y1585521D01*
G01X4126034Y1590582D01*
G01X4136525Y1598632D01*
G01X4144574Y1609122D01*
G01X4149635Y1621339D01*
G01X4151361Y1634449D01*
G01X4151361Y1665476D01*
G01X4157735Y1686595D01*
G01X4160957Y1708419D01*
G01X4160957Y1708419D01*
G01X4298963Y1708419D01*
G01X4302185Y1686595D01*
G01X4308559Y1665476D01*
G01X4308559Y1634449D01*
G01X4310285Y1621339D01*
G01X4315345Y1609122D01*
G01X4323395Y1598632D01*
G01X4333886Y1590582D01*
G01X4346103Y1585521D01*
G01X4359213Y1583795D01*
G01X4383679Y1583795D01*
G01X4404688Y1575525D01*
G01X4426697Y1570487D01*
G01X4449213Y1568795D01*
G01X4575099Y1568795D01*
G01X4594523Y1566953D01*
G01X4613254Y1561494D01*
G01X4630626Y1552611D01*
G01X4646018Y1540621D01*
G01X4658883Y1525952D01*
G01X4648292Y1500268D01*
G01X4641553Y1473317D01*
G01X4638809Y1445671D01*
G01X4640118Y1417920D01*
G01X4645452Y1390655D01*
G01X4654698Y1364457D01*
G01X4667659Y1339884D01*
G01X4684059Y1317459D01*
G01X4703548Y1297661D01*
G01X4725712Y1280910D01*
G01X4750078Y1267563D01*
G01X4776127Y1257905D01*
G01X4803304Y1252142D01*
G01X4831031Y1250396D01*
G01X4858716Y1252704D01*
G01X4858716Y1252704D01*
G01X4885771Y1259018D01*
G01X4911619Y1269203D01*
G01X4935709Y1283041D01*
G01X4957528Y1300239D01*
G01X4976611Y1320429D01*
G01X4992552Y1343182D01*
G01X5005012Y1368013D01*
G01X5013724Y1394393D01*
G01X5018504Y1421761D01*
G01X5019250Y1449532D01*
G01X5018208Y1458224D01*
G01X5064111Y1458224D01*
G01X5064111Y1433465D01*
G01X5067801Y1408983D01*
G01X5075099Y1385324D01*
G01X5085841Y1363017D01*
G01X5099788Y1342561D01*
G01X5116628Y1324411D01*
G01X5135985Y1308975D01*
G01X5157427Y1296595D01*
G01X5180474Y1287550D01*
G01X5204612Y1282041D01*
G01X5229301Y1280190D01*
G01X5229301Y1280190D01*
G01X5253991Y1282041D01*
G01X5278128Y1287550D01*
G01X5301176Y1296595D01*
G01X5322617Y1308975D01*
G01X5341974Y1324411D01*
G01X5358814Y1342561D01*
G01X5372762Y1363017D01*
G01X5383504Y1385324D01*
G01X5390802Y1408983D01*
G01X5394492Y1433465D01*
G01X5394492Y1458224D01*
G01X5390802Y1482706D01*
G01X5383504Y1506364D01*
G01X5372762Y1528671D01*
G01X5358814Y1549128D01*
G01X5341974Y1567277D01*
G01X5322617Y1582714D01*
G01X5301176Y1595093D01*
G01X5278128Y1604138D01*
G01X5253991Y1609648D01*
G01X5229301Y1611498D01*
G01X5204612Y1609648D01*
G01X5180474Y1604138D01*
G01X5157427Y1595093D01*
G01X5135985Y1582714D01*
G01X5116628Y1567277D01*
G01X5099788Y1549128D01*
G01X5085841Y1528671D01*
G01X5075099Y1506364D01*
G01X5067801Y1482706D01*
G01X5064111Y1458224D01*
G01X5018208Y1458224D01*
G01X5015945Y1477117D01*
G01X5008660Y1503926D01*
G01X4997550Y1529390D01*
G01X4982852Y1552965D01*
G01X4964879Y1574150D01*
G01X4952093Y1612486D01*
G01X4935547Y1649356D01*
G01X4915406Y1684391D01*
G01X4891871Y1717243D01*
G01X4865177Y1747583D01*
G01X4835589Y1775110D01*
G01X4803403Y1799548D01*
G01X4786929Y1809637D01*
G01X5469152Y1809637D01*
G01X5469152Y1639637D01*
G01X5470878Y1626527D01*
G01X5475938Y1614310D01*
G01X5483988Y1603820D01*
G01X5494479Y1595770D01*
G01X5506696Y1590709D01*
G01X5519806Y1588983D01*
G01X5699806Y1588983D01*
G01X5712916Y1590709D01*
G01X5725133Y1595770D01*
G01X5735623Y1603820D01*
G01X5743673Y1614310D01*
G01X5748734Y1626527D01*
G01X5750460Y1639637D01*
G01X5750460Y1809637D01*
G01X5750460Y1809637D01*
G01X5748734Y1822747D01*
G01X5743673Y1834964D01*
G01X5735623Y1845455D01*
G01X5725133Y1853505D01*
G01X5712916Y1858565D01*
G01X5699806Y1860291D01*
G01X5519806Y1860291D01*
G01X5506696Y1858565D01*
G01X5494479Y1853505D01*
G01X5483988Y1845455D01*
G01X5475938Y1834964D01*
G01X5470878Y1822747D01*
G01X5469152Y1809637D01*
G01X4786929Y1809637D01*
G01X4768940Y1820654D01*
G01X4732544Y1838217D01*
G01X4694578Y1852062D01*
G01X4655420Y1862052D01*
G01X4615461Y1868085D01*
G01X4575099Y1870103D01*
G01X4449213Y1870103D01*
G01X4449213Y1870103D01*
G01X4426697Y1868411D01*
G01X4404688Y1863373D01*
G01X4383679Y1855103D01*
G01X4359213Y1855103D01*
G01X4346103Y1853377D01*
G01X4333886Y1848317D01*
G01X4323395Y1840267D01*
G01X4315345Y1829776D01*
G01X4310285Y1817559D01*
G01X4308559Y1804449D01*
G01X4308559Y1773423D01*
G01X4302185Y1752303D01*
G01X4298963Y1730479D01*
G01X4298963Y1708419D01*
G01X4160957Y1708419D01*
G01X4160957Y1730479D01*
G01X4157735Y1752303D01*
G01X4151361Y1773423D01*
G01X4151361Y1804449D01*
G01X4149635Y1817559D01*
G01X4144574Y1829776D01*
G01X4136525Y1840267D01*
G01X4126034Y1848317D01*
G01X4113817Y1853377D01*
G01X4100707Y1855103D01*
G01X4076241Y1855103D01*
G01X4055231Y1863373D01*
G01X4033222Y1868411D01*
G01X4010707Y1870103D01*
G01X3883101Y1870103D01*
G01X3844119Y1868221D01*
G01X3805499Y1862592D01*
G01X3767601Y1853270D01*
G01X3730778Y1840339D01*
G01X3695372Y1823922D01*
G01X3661711Y1804169D01*
G01X3630110Y1781266D01*
G01X3600863Y1755426D01*
G01X3574241Y1726888D01*
G01X3550492Y1695918D01*
G01X3529836Y1662804D01*
G01X3512467Y1627854D01*
G01X3498546Y1591394D01*
G01X3482848Y1591394D01*
G01X3462758Y1593366D01*
G01X3443434Y1599205D01*
G01X3425614Y1608690D01*
G01X3409978Y1621457D01*
G01X3397122Y1637021D01*
G01X3406534Y1657726D01*
G01X3413410Y1679406D01*
G01X3417650Y1701752D01*
G01X3757475Y2041577D01*
G01X3772553Y2054037D01*
G01X3789709Y2063433D01*
G01X3808328Y2069428D01*
G01X3808328Y2069428D01*
G01X3831570Y2070732D01*
G01X3854698Y2073369D01*
G01X3854698Y2073369D01*
G01X3892526Y2080642D01*
G01X3929492Y2091479D01*
G01X3965259Y2105782D01*
G01X3999505Y2123421D01*
G01X4031918Y2144236D01*
G01X4062205Y2168039D01*
G01X4090091Y2194614D01*
G01X4115324Y2223721D01*
G01X4137675Y2255095D01*
G01X4156941Y2288452D01*
G01X4172949Y2323490D01*
G01X4185552Y2359891D01*
G01X4194637Y2397325D01*
G01X4200120Y2435454D01*
G01X4201954Y2473932D01*
G01X4201954Y2660753D01*
G01X4638694Y2660753D01*
G01X4640632Y2633663D01*
G01X4646405Y2607124D01*
G01X4655896Y2581677D01*
G01X4668912Y2557840D01*
G01X4685188Y2536098D01*
G01X4704393Y2516893D01*
G01X4726135Y2500617D01*
G01X4749972Y2487601D01*
G01X4775419Y2478110D01*
G01X4801958Y2472336D01*
G01X4829048Y2470399D01*
G01X4856138Y2472336D01*
G01X4882677Y2478110D01*
G01X4908124Y2487601D01*
G01X4931961Y2500617D01*
G01X4953703Y2516893D01*
G01X4972908Y2536098D01*
G01X4989184Y2557840D01*
G01X5002200Y2581677D01*
G01X5011691Y2607124D01*
G01X5017464Y2633663D01*
G01X5019402Y2660753D01*
G01X5017464Y2687843D01*
G01X5011691Y2714382D01*
G01X5002200Y2739829D01*
G01X4989184Y2763666D01*
G01X4972908Y2785408D01*
G01X4953703Y2804613D01*
G01X4931961Y2820889D01*
G01X4908124Y2833905D01*
G01X4882677Y2843396D01*
G01X4856138Y2849169D01*
G01X4829048Y2851107D01*
G01X4829048Y2851107D01*
G01X4801958Y2849169D01*
G01X4775419Y2843396D01*
G01X4749972Y2833905D01*
G01X4726135Y2820889D01*
G01X4704393Y2804613D01*
G01X4685188Y2785408D01*
G01X4668912Y2763666D01*
G01X4655896Y2739829D01*
G01X4646405Y2714382D01*
G01X4640632Y2687843D01*
G01X4638694Y2660753D01*
G01X4201954Y2660753D01*
G01X4201954Y3022600D01*
G01X4200005Y3062263D01*
G01X4194179Y3101544D01*
G01X4184530Y3140065D01*
G01X4171152Y3177454D01*
G01X4154173Y3213353D01*
G01X4134725Y3245799D01*
G01X4411509Y3245799D01*
G01X4411509Y3221041D01*
G01X4415199Y3196559D01*
G01X4422497Y3172900D01*
G01X4433239Y3150593D01*
G01X4447187Y3130136D01*
G01X4464027Y3111987D01*
G01X4483384Y3096550D01*
G01X4504825Y3084171D01*
G01X4527873Y3075126D01*
G01X4552011Y3069616D01*
G01X4576700Y3067766D01*
G01X4846700Y3067766D01*
G01X4871389Y3069616D01*
G01X4895527Y3075126D01*
G01X4918575Y3084171D01*
G01X4940016Y3096550D01*
G01X4959373Y3111987D01*
G01X4976213Y3130136D01*
G01X4990161Y3150593D01*
G01X5000903Y3172900D01*
G01X5008201Y3196559D01*
G01X5011891Y3221041D01*
G01X5011891Y3245799D01*
G01X5008201Y3270281D01*
G01X5000903Y3293940D01*
G01X4990161Y3316247D01*
G01X4976213Y3336704D01*
G01X4959373Y3354853D01*
G01X4940016Y3370290D01*
G01X4918575Y3382669D01*
G01X4895527Y3391714D01*
G01X4871389Y3397224D01*
G01X4846700Y3399074D01*
G01X4846700Y3399074D01*
G01X4576700Y3399074D01*
G01X4552011Y3397224D01*
G01X4527873Y3391714D01*
G01X4504825Y3382669D01*
G01X4483384Y3370290D01*
G01X4464027Y3354853D01*
G01X4447187Y3336704D01*
G01X4433239Y3316247D01*
G01X4422497Y3293940D01*
G01X4415199Y3270281D01*
G01X4411509Y3245799D01*
G01X4134725Y3245799D01*
G01X4133758Y3247414D01*
G01X4110102Y3279310D01*
G01X4083434Y3308734D01*
G01X4054010Y3335402D01*
G01X4022114Y3359058D01*
G01X3988053Y3379473D01*
G01X3952154Y3396452D01*
G01X3914765Y3409830D01*
G01X3876244Y3419479D01*
G01X3836963Y3425305D01*
G01X3797300Y3427254D01*
G01X1882699Y3427254D01*
G01X1862537Y3429240D01*
G01X1843150Y3435121D01*
G01X1825283Y3444671D01*
G01X1809622Y3457523D01*
G01X1796770Y3473184D01*
G01X1787220Y3491051D01*
G01X1781339Y3510438D01*
G01X1779353Y3530600D01*
G01X1779353Y3612926D01*
G01X1788127Y3636821D01*
G01X1793137Y3661778D01*
G01X1794025Y3681806D01*
G01X1838598Y3681806D01*
G01X1840536Y3654716D01*
G01X1846309Y3628177D01*
G01X1855800Y3602730D01*
G01X1868816Y3578893D01*
G01X1885092Y3557151D01*
G01X1904297Y3537946D01*
G01X1926039Y3521670D01*
G01X1949876Y3508654D01*
G01X1975323Y3499163D01*
G01X2001862Y3493390D01*
G01X2028952Y3491452D01*
G01X2056042Y3493390D01*
G01X2082581Y3499163D01*
G01X2108028Y3508654D01*
G01X2131865Y3521670D01*
G01X2153607Y3537946D01*
G01X2172812Y3557151D01*
G01X2189088Y3578893D01*
G01X2202104Y3602730D01*
G01X2211595Y3628177D01*
G01X2217368Y3654716D01*
G01X2219306Y3681806D01*
G01X3038494Y3681806D01*
G01X3040432Y3654716D01*
G01X3046205Y3628177D01*
G01X3055696Y3602730D01*
G01X3068712Y3578893D01*
G01X3084988Y3557151D01*
G01X3104193Y3537946D01*
G01X3125935Y3521670D01*
G01X3149772Y3508654D01*
G01X3175219Y3499163D01*
G01X3201758Y3493390D01*
G01X3228848Y3491452D01*
G01X3255938Y3493390D01*
G01X3282477Y3499163D01*
G01X3307924Y3508654D01*
G01X3331761Y3521670D01*
G01X3353503Y3537946D01*
G01X3372708Y3557151D01*
G01X3388984Y3578893D01*
G01X3402000Y3602730D01*
G01X3411491Y3628177D01*
G01X3417264Y3654716D01*
G01X3419202Y3681806D01*
G01X3417264Y3708896D01*
G01X3411491Y3735435D01*
G01X3402000Y3760882D01*
G01X3388984Y3784719D01*
G01X3372708Y3806462D01*
G01X3353503Y3825666D01*
G01X3331761Y3841942D01*
G01X3307924Y3854958D01*
G01X3282477Y3864449D01*
G01X3255938Y3870223D01*
G01X3228848Y3872160D01*
G01X3228848Y3872160D01*
G01X3201758Y3870223D01*
G01X3175219Y3864449D01*
G01X3149772Y3854958D01*
G01X3125935Y3841942D01*
G01X3104193Y3825666D01*
G01X3084988Y3806462D01*
G01X3068712Y3784719D01*
G01X3055696Y3760882D01*
G01X3046205Y3735435D01*
G01X3040432Y3708896D01*
G01X3038494Y3681806D01*
G01X2219306Y3681806D01*
G01X2217368Y3708896D01*
G01X2211595Y3735435D01*
G01X2202104Y3760882D01*
G01X2189088Y3784719D01*
G01X2172812Y3806462D01*
G01X2153607Y3825666D01*
G01X2131865Y3841942D01*
G01X2108028Y3854958D01*
G01X2082581Y3864449D01*
G01X2056042Y3870223D01*
G01X2028952Y3872160D01*
G01X2028952Y3872160D01*
G01X2001862Y3870223D01*
G01X1975323Y3864449D01*
G01X1949876Y3854958D01*
G01X1926039Y3841942D01*
G01X1904297Y3825666D01*
G01X1885092Y3806462D01*
G01X1868816Y3784719D01*
G01X1855800Y3760882D01*
G01X1846309Y3735435D01*
G01X1840536Y3708896D01*
G01X1838598Y3681806D01*
G01X1794025Y3681806D01*
G01X1794264Y3687209D01*
G01X1791482Y3712512D01*
G01X1784856Y3737089D01*
G01X1774542Y3760362D01*
G01X1760784Y3781779D01*
G01X1743908Y3800836D01*
G01X1724311Y3817082D01*
G01X1702456Y3830134D01*
G01X1678860Y3839683D01*
G01X1654079Y3845504D01*
G01X1628699Y3847460D01*
G01X1603319Y3845504D01*
G01X1578538Y3839683D01*
G01X1554942Y3830134D01*
G01X1533087Y3817082D01*
G01X1513490Y3800836D01*
G01X1496613Y3781779D01*
G01X1482856Y3760362D01*
G01X1472542Y3737089D01*
G01X1465916Y3712512D01*
G01X1463133Y3687209D01*
G01X299348Y3687209D01*
G01X299348Y3961871D01*
G01X314435Y3971390D01*
G01X3323554Y3971390D01*
G01X3345352Y3973221D01*
G01X3366539Y3978661D01*
G01X3386523Y3987558D01*
G01X3404743Y3999663D01*
G01X3420689Y4014637D01*
G01X3433915Y4032061D01*
G01X3444049Y4051446D01*
G01X3594216Y4051446D01*
G01X3576094Y4033795D01*
G01X3560871Y4013590D01*
G01X3548902Y3991304D01*
G01X3540466Y3967454D01*
G01X3535760Y3942598D01*
G01X3534893Y3917315D01*
G01X3537887Y3892195D01*
G01X3544670Y3867824D01*
G01X3555086Y3844770D01*
G01X3568890Y3823571D01*
G01X3585761Y3804721D01*
G01X3605306Y3788660D01*
G01X3627068Y3775761D01*
G01X3650541Y3766328D01*
G01X3675176Y3760578D01*
G01X3700400Y3758646D01*
G01X3970400Y3758646D01*
G01X3993999Y3760336D01*
G01X4017117Y3765370D01*
G01X4039281Y3773646D01*
G01X4507819Y3773646D01*
G01X4529983Y3765370D01*
G01X4553101Y3760336D01*
G01X4576700Y3758646D01*
G01X4846700Y3758646D01*
G01X4871924Y3760578D01*
G01X4896559Y3766328D01*
G01X4920032Y3775761D01*
G01X4941794Y3788660D01*
G01X4961339Y3804721D01*
G01X4978210Y3823571D01*
G01X4992014Y3844770D01*
G01X5002430Y3867824D01*
G01X5009213Y3892195D01*
G01X5012207Y3917315D01*
G01X5011340Y3942598D01*
G01X5006634Y3967454D01*
G01X4998198Y3991304D01*
G01X4986229Y4013590D01*
G01X4971006Y4033795D01*
G01X4952884Y4051446D01*
G01X5239442Y4051446D01*
G01X5283969Y4049604D01*
G01X5328192Y4044092D01*
G01X5371809Y4034947D01*
G01X5414522Y4022231D01*
G01X5456038Y4006031D01*
G01X5496075Y3986458D01*
G01X5534359Y3963646D01*
G01X5570628Y3937750D01*
G01X5604635Y3908947D01*
G01X5636147Y3877435D01*
G01X5664950Y3843428D01*
G01X5690846Y3807159D01*
G01X5713658Y3768875D01*
G01X5733231Y3728838D01*
G01X5749431Y3687322D01*
G01X5762147Y3644609D01*
G01X5771292Y3600992D01*
G01X5776804Y3556769D01*
G01X5778646Y3512242D01*
G01X5778646Y3417759D01*
G01X5767973Y3454949D01*
G01X5753797Y3490951D01*
G01X5736247Y3525434D01*
G01X5715484Y3558083D01*
G01X5691698Y3588600D01*
G01X5665105Y3616705D01*
G01X5635950Y3642143D01*
G01X5604499Y3664679D01*
G01X5571039Y3684109D01*
G01X5535877Y3700254D01*
G01X5499333Y3712967D01*
G01X5461742Y3722132D01*
G01X5423448Y3727664D01*
G01X5384800Y3729514D01*
G01X4915581Y3729514D01*
G01X4893417Y3737790D01*
G01X4870299Y3742824D01*
G01X4846700Y3744514D01*
G01X4576700Y3744514D01*
G01X4552011Y3742664D01*
G01X4527873Y3737154D01*
G01X4504825Y3728109D01*
G01X4483384Y3715730D01*
G01X4464027Y3700293D01*
G01X4447187Y3682144D01*
G01X4433239Y3661687D01*
G01X4422497Y3639380D01*
G01X4415199Y3615721D01*
G01X4411509Y3591239D01*
G01X4411509Y3566481D01*
G01X4415199Y3541999D01*
G01X4422497Y3518340D01*
G01X4433239Y3496033D01*
G01X4447187Y3475576D01*
G01X4464027Y3457427D01*
G01X4483384Y3441990D01*
G01X4504825Y3429611D01*
G01X4527873Y3420566D01*
G01X4552011Y3415056D01*
G01X4576700Y3413206D01*
G01X4846700Y3413206D01*
G01X4870299Y3414896D01*
G01X4893417Y3419930D01*
G01X4915581Y3428206D01*
G01X5384800Y3428206D01*
G01X5404962Y3426220D01*
G01X5424349Y3420339D01*
G01X5442216Y3410789D01*
G01X5457877Y3397937D01*
G01X5470729Y3382276D01*
G01X5480279Y3364409D01*
G01X5486160Y3345022D01*
G01X5488146Y3324860D01*
G01X5488146Y2362200D01*
G01X5490095Y2322537D01*
G01X5495921Y2283256D01*
G01X5505570Y2244735D01*
G01X5518948Y2207346D01*
G01X5535927Y2171447D01*
G01X5556342Y2137386D01*
G01X5579998Y2105490D01*
G01X5606666Y2076066D01*
G01X5636090Y2049398D01*
G01X5667986Y2025742D01*
G01X5702047Y2005327D01*
G01X5737946Y1988348D01*
G01X5775335Y1974970D01*
G01X5813856Y1965321D01*
G01X5853137Y1959495D01*
G01X5892800Y1957546D01*
G01X6175299Y1957546D01*
G01X6194509Y1955745D01*
G01X6213049Y1950404D01*
G01X6230274Y1941711D01*
G01X6245583Y1929967D01*
G01X6258441Y1915582D01*
G01X6268402Y1899057D01*
G01X6275118Y1880969D01*
G01X6278354Y1861948D01*
G01X6244427Y1869343D01*
G01X6209990Y1873801D01*
G01X6175299Y1875291D01*
G01X6048312Y1875291D01*
G01X6025796Y1873599D01*
G01X6003787Y1868561D01*
G01X5982778Y1860291D01*
G01X5958312Y1860291D01*
G01X5945201Y1858565D01*
G01X5932985Y1853505D01*
G01X5922494Y1845455D01*
G01X5914444Y1834964D01*
G01X5909384Y1822747D01*
G01X5907658Y1809637D01*
G01X5907658Y1778611D01*
G01X5901283Y1757491D01*
G01X5898062Y1735667D01*
G01X5898062Y1713607D01*
G01X5901283Y1691783D01*
G01X5907658Y1670664D01*
G01X5907658Y1639637D01*
G01X5909384Y1626527D01*
G01X5914444Y1614310D01*
G01X5922494Y1603820D01*
G01X5932985Y1595770D01*
G01X5945201Y1590709D01*
G01X5958312Y1588983D01*
G01X5982778Y1588983D01*
G01X6003787Y1580713D01*
G01X6025796Y1575675D01*
G01X6048312Y1573983D01*
G01X6175299Y1573983D01*
G01X6193768Y1572319D01*
G01X6211642Y1567382D01*
G01X6228347Y1559329D01*
G01X6243343Y1548421D01*
G01X6256149Y1535009D01*
G01X6266351Y1519523D01*
G01X6273622Y1502464D01*
G01X6266854Y1478292D01*
G01X6263816Y1453374D01*
G01X6264578Y1428284D01*
G01X6269123Y1403597D01*
G01X6277345Y1379880D01*
G01X6289057Y1357677D01*
G01X6303989Y1337499D01*
G01X6321798Y1319809D01*
G01X6342076Y1305013D01*
G01X6364357Y1293451D01*
G01X6388128Y1285388D01*
G01X6412845Y1281010D01*
G01X6437940Y1280416D01*
G01X6462837Y1283621D01*
G01X6486963Y1290551D01*
G01X6509766Y1301047D01*
G01X6530720Y1314868D01*
G01X6549346Y1331696D01*
G01X6549346Y602100D01*
G01X6547470Y556735D01*
G01X6541854Y511681D01*
G01X6532536Y467244D01*
G01X6519581Y423728D01*
G01X6503076Y381430D01*
G01X6483135Y340640D01*
G01X6459894Y301636D01*
G01X6433511Y264685D01*
G01X6404167Y230038D01*
G01X6372062Y197933D01*
G01X6337415Y168589D01*
G01X6300464Y142206D01*
G01X6261460Y118965D01*
G01X6220670Y99024D01*
G01X6178372Y82519D01*
G01X6134856Y69564D01*
G01X6090419Y60246D01*
G01X6045365Y54630D01*
G01X6000000Y52754D01*
G01X924079Y52754D01*
G01X896812Y53892D01*
G01X869734Y57297D01*
G01X843034Y62946D01*
G01X1112900Y62946D01*
G01X1135874Y64547D01*
G01X1158405Y69319D01*
G01X1180056Y77169D01*
G01X1200408Y87946D01*
G01X1422400Y87946D01*
G01X1461083Y89846D01*
G01X1499393Y95529D01*
G01X1536962Y104940D01*
G01X1573428Y117987D01*
G01X1608439Y134546D01*
G01X1641658Y154457D01*
G01X1672766Y177528D01*
G01X1701462Y203538D01*
G01X1727472Y232234D01*
G01X1750543Y263342D01*
G01X1770454Y296561D01*
G01X1774915Y305994D01*
G01X2438546Y305994D01*
G01X2440484Y278904D01*
G01X2446257Y252365D01*
G01X2455748Y226918D01*
G01X2468764Y203081D01*
G01X2485040Y181338D01*
G01X2504245Y162134D01*
G01X2525987Y145858D01*
G01X2549824Y132842D01*
G01X2575271Y123351D01*
G01X2601810Y117577D01*
G01X2628900Y115640D01*
G01X2655990Y117577D01*
G01X2682529Y123351D01*
G01X2707976Y132842D01*
G01X2731813Y145858D01*
G01X2753555Y162134D01*
G01X2772760Y181338D01*
G01X2789036Y203081D01*
G01X2802052Y226918D01*
G01X2811543Y252365D01*
G01X2817316Y278904D01*
G01X2819254Y305994D01*
G01X2817316Y333084D01*
G01X2811543Y359623D01*
G01X2802052Y385070D01*
G01X2789036Y408907D01*
G01X2772760Y430649D01*
G01X2753555Y449854D01*
G01X2731813Y466130D01*
G01X2707976Y479146D01*
G01X2682529Y488637D01*
G01X2655990Y494410D01*
G01X2628900Y496348D01*
G01X2628900Y496348D01*
G01X2601810Y494410D01*
G01X2575271Y488637D01*
G01X2549824Y479146D01*
G01X2525987Y466130D01*
G01X2504245Y449854D01*
G01X2485040Y430649D01*
G01X2468764Y408907D01*
G01X2455748Y385070D01*
G01X2446257Y359623D01*
G01X2440484Y333084D01*
G01X2438546Y305994D01*
G01X1774915Y305994D01*
G01X1787013Y331572D01*
G01X1800060Y368038D01*
G01X1809471Y405607D01*
G01X1815154Y443917D01*
G01X1817054Y482600D01*
G01X1817054Y702922D01*
G01X1818449Y720653D01*
G01X1822601Y737947D01*
G01X1829408Y754380D01*
G01X1838701Y769545D01*
G01X1850252Y783069D01*
G01X2653963Y1586780D01*
G01X2679972Y1615476D01*
G01X2703043Y1646584D01*
G01X2722954Y1679804D01*
G01X2739513Y1714815D01*
G01X2752560Y1751280D01*
G01X2761971Y1788849D01*
G01X2767654Y1827159D01*
G01X2769554Y1865842D01*
G01X2769554Y2133532D01*
G01X2786545Y2155104D01*
G01X2800256Y2178897D01*
G01X2810400Y2204415D01*
G01X2816767Y2231126D01*
G01X2819225Y2258476D01*
G01X2817722Y2285895D01*
G01X2812289Y2312813D01*
G01X2803040Y2338669D01*
G01X2790167Y2362925D01*
G01X2773938Y2385076D01*
G01X2754691Y2404662D01*
G01X2732826Y2421274D01*
G01X2708798Y2434568D01*
G01X2683107Y2444266D01*
G01X2656289Y2450167D01*
G01X2628900Y2452148D01*
G01X2601511Y2450167D01*
G01X2574693Y2444266D01*
G01X2549002Y2434568D01*
G01X2524974Y2421274D01*
G01X2503109Y2404662D01*
G01X2483862Y2385076D01*
G01X2467633Y2362925D01*
G01X2454760Y2338669D01*
G01X2445511Y2312813D01*
G01X2440078Y2285895D01*
G01X2438575Y2258476D01*
G01X2441033Y2231126D01*
G01X2447400Y2204415D01*
G01X2457544Y2178897D01*
G01X2471255Y2155104D01*
G01X2488246Y2133532D01*
G01X2488246Y1865842D01*
G01X2486851Y1848111D01*
G01X2482699Y1830816D01*
G01X2475892Y1814384D01*
G01X2466599Y1799219D01*
G01X2455048Y1785694D01*
G01X1651338Y981984D01*
G01X1651338Y981984D01*
G01X1625328Y953287D01*
G01X1602257Y922179D01*
G01X1582346Y888960D01*
G01X1565787Y853949D01*
G01X1552740Y817484D01*
G01X1543329Y779915D01*
G01X1537646Y741604D01*
G01X1535746Y702922D01*
G01X1535746Y482600D01*
G01X1534024Y462918D01*
G01X1528910Y443833D01*
G01X1520561Y425927D01*
G01X1509228Y409743D01*
G01X1495257Y395772D01*
G01X1479073Y384439D01*
G01X1461167Y376090D01*
G01X1442082Y370976D01*
G01X1422400Y369254D01*
G01X1200408Y369254D01*
G01X1180056Y380031D01*
G01X1158405Y387881D01*
G01X1135874Y392653D01*
G01X1112900Y394254D01*
G01X842900Y394254D01*
G01X817480Y392292D01*
G01X792662Y386452D01*
G01X769034Y376874D01*
G01X747156Y363782D01*
G01X727546Y347489D01*
G01X710668Y328379D01*
G01X696923Y306906D01*
G01X686635Y283578D01*
G01X680050Y258948D01*
G01X677321Y233598D01*
G01X678516Y208131D01*
G01X683604Y183148D01*
G01X692465Y159241D01*
G01X704890Y136978D01*
G01X680699Y161201D01*
G01X659169Y187817D01*
G01X640538Y216537D01*
G01X625007Y247046D01*
G01X612749Y279009D01*
G01X603895Y312079D01*
G01X598544Y345892D01*
G01X596754Y380079D01*
G01X596754Y583879D01*
G01X677709Y583879D01*
G01X677709Y559121D01*
G01X681399Y534639D01*
G01X688697Y510980D01*
G01X699439Y488673D01*
G01X713387Y468216D01*
G01X730227Y450067D01*
G01X749584Y434630D01*
G01X771025Y422251D01*
G01X794073Y413206D01*
G01X818211Y407696D01*
G01X842900Y405846D01*
G01X842900Y405846D01*
G01X1112900Y405846D01*
G01X1137589Y407696D01*
G01X1161727Y413206D01*
G01X1184775Y422251D01*
G01X1206216Y434630D01*
G01X1225573Y450067D01*
G01X1242413Y468216D01*
G01X1256361Y488673D01*
G01X1267103Y510980D01*
G01X1274401Y534639D01*
G01X1278091Y559121D01*
G01X1278091Y583879D01*
G01X1274401Y608361D01*
G01X1267103Y632020D01*
G01X1256361Y654327D01*
G01X1242413Y674784D01*
G01X1225573Y692933D01*
G01X1206216Y708370D01*
G01X1184775Y720749D01*
G01X1161727Y729794D01*
G01X1137589Y735304D01*
G01X1112900Y737154D01*
G01X842900Y737154D01*
G01X818211Y735304D01*
G01X794073Y729794D01*
G01X771025Y720749D01*
G01X749584Y708370D01*
G01X730227Y692933D01*
G01X713387Y674784D01*
G01X699439Y654327D01*
G01X688697Y632020D01*
G01X681399Y608361D01*
G01X677709Y583879D01*
G01X596754Y583879D01*
G01X596754Y926779D01*
G01X677709Y926779D01*
G01X677709Y902021D01*
G01X681399Y877539D01*
G01X688697Y853880D01*
G01X699439Y831573D01*
G01X713387Y811116D01*
G01X730227Y792967D01*
G01X749584Y777530D01*
G01X771025Y765151D01*
G01X794073Y756106D01*
G01X818211Y750596D01*
G01X842900Y748746D01*
G01X842900Y748746D01*
G01X1112900Y748746D01*
G01X1137589Y750596D01*
G01X1161727Y756106D01*
G01X1184775Y765151D01*
G01X1206216Y777530D01*
G01X1225573Y792967D01*
G01X1242413Y811116D01*
G01X1256361Y831573D01*
G01X1267103Y853880D01*
G01X1274401Y877539D01*
G01X1278091Y902021D01*
G01X1278091Y926779D01*
G01X1274401Y951261D01*
G01X1267103Y974920D01*
G01X1256361Y997227D01*
G01X1242413Y1017684D01*
G01X1225573Y1035833D01*
G01X1206216Y1051270D01*
G01X1184775Y1063649D01*
G01X1161727Y1072694D01*
G01X1137589Y1078204D01*
G01X1112900Y1080054D01*
G01X842900Y1080054D01*
G01X818211Y1078204D01*
G01X794073Y1072694D01*
G01X771025Y1063649D01*
G01X749584Y1051270D01*
G01X730227Y1035833D01*
G01X713387Y1017684D01*
G01X699439Y997227D01*
G01X688697Y974920D01*
G01X681399Y951261D01*
G01X677709Y926779D01*
G01X596754Y926779D01*
G01X596754Y1409700D01*
G01X1387646Y1409700D01*
G01X1389577Y1380246D01*
G01X1395335Y1351296D01*
G01X1404823Y1323346D01*
G01X1417878Y1296873D01*
G01X1434277Y1272331D01*
G01X1453739Y1250139D01*
G01X1475931Y1230677D01*
G01X1500473Y1214278D01*
G01X1526946Y1201223D01*
G01X1554897Y1191735D01*
G01X1583846Y1185977D01*
G01X1613300Y1184046D01*
G01X1663300Y1184046D01*
G01X1692754Y1185977D01*
G01X1721703Y1191735D01*
G01X1749654Y1201223D01*
G01X1776127Y1214278D01*
G01X1800669Y1230677D01*
G01X1822861Y1250139D01*
G01X1842323Y1272331D01*
G01X1858722Y1296873D01*
G01X1871777Y1323346D01*
G01X1881265Y1351296D01*
G01X1887023Y1380246D01*
G01X1888954Y1409700D01*
G01X1887023Y1439154D01*
G01X1881265Y1468104D01*
G01X1871777Y1496054D01*
G01X1858722Y1522527D01*
G01X1842323Y1547069D01*
G01X1822861Y1569261D01*
G01X1800669Y1588723D01*
G01X1776127Y1605122D01*
G01X1749654Y1618177D01*
G01X1721703Y1627665D01*
G01X1692754Y1633423D01*
G01X1663300Y1635354D01*
G01X1663300Y1635354D01*
G01X1613300Y1635354D01*
G01X1583846Y1633423D01*
G01X1554897Y1627665D01*
G01X1526946Y1618177D01*
G01X1500473Y1605122D01*
G01X1475931Y1588723D01*
G01X1453739Y1569261D01*
G01X1434277Y1547069D01*
G01X1417878Y1522527D01*
G01X1404823Y1496054D01*
G01X1395335Y1468104D01*
G01X1389577Y1439154D01*
G01X1387646Y1409700D01*
G01X596754Y1409700D01*
G01X596754Y1828800D01*
G01X594810Y1860930D01*
G01X589008Y1892591D01*
G01X579432Y1923321D01*
G01X566222Y1952674D01*
G01X549570Y1980220D01*
G01X529718Y2005558D01*
G01X506958Y2028318D01*
G01X481620Y2048170D01*
G01X454074Y2064822D01*
G01X424721Y2078032D01*
G01X393991Y2087608D01*
G01X362330Y2093410D01*
G01X330200Y2095354D01*
G01X310400Y2095354D01*
G01X304874Y2096835D01*
G01X300829Y2100880D01*
G01X299348Y2106406D01*
G01X299348Y2341483D01*
G01X313271Y2308660D01*
G01X330454Y2277421D01*
G01X350720Y2248087D01*
G01X373860Y2220963D01*
G01X399634Y2196328D01*
G01X427776Y2174438D01*
G01X457995Y2155518D01*
G01X489979Y2139764D01*
G01X523398Y2127338D01*
G01X557905Y2118370D01*
G01X593144Y2112952D01*
G01X628752Y2111140D01*
G01X914486Y2111140D01*
G01X932726Y2079968D01*
G01X954268Y2050979D01*
G01X978851Y2024520D01*
G01X1006182Y2000910D01*
G01X1035931Y1980431D01*
G01X1067742Y1963329D01*
G01X1101233Y1949810D01*
G01X1136002Y1940036D01*
G01X1171631Y1934124D01*
G01X1207694Y1932146D01*
G01X1790700Y1932146D01*
G01X1807790Y1930463D01*
G01X1824222Y1925478D01*
G01X1839367Y1917383D01*
G01X1852641Y1906489D01*
G01X1863535Y1893215D01*
G01X1871630Y1878070D01*
G01X1876615Y1861638D01*
G01X1878298Y1844548D01*
G01X1878298Y1842359D01*
G01X1863604Y1820318D01*
G01X1852112Y1796450D01*
G01X1844045Y1771217D01*
G01X1839559Y1745109D01*
G01X1838741Y1718632D01*
G01X1841607Y1692297D01*
G01X1848101Y1666614D01*
G01X1858097Y1642082D01*
G01X1871402Y1619176D01*
G01X1887759Y1598338D01*
G01X1906850Y1579973D01*
G01X1928306Y1564436D01*
G01X1951710Y1552028D01*
G01X1976611Y1542990D01*
G01X2002526Y1537496D01*
G01X2028952Y1535652D01*
G01X2055378Y1537496D01*
G01X2081293Y1542990D01*
G01X2106194Y1552028D01*
G01X2129598Y1564436D01*
G01X2151054Y1579973D01*
G01X2170145Y1598338D01*
G01X2186502Y1619176D01*
G01X2199807Y1642082D01*
G01X2209803Y1666614D01*
G01X2216297Y1692297D01*
G01X2219163Y1718632D01*
G01X2218345Y1745109D01*
G01X2213859Y1771217D01*
G01X2205792Y1796450D01*
G01X2194300Y1820318D01*
G01X2179606Y1842359D01*
G01X2179606Y1844548D01*
G01X2177733Y1882667D01*
G01X2172133Y1920420D01*
G01X2162860Y1957441D01*
G01X2150002Y1993376D01*
G01X2133684Y2027877D01*
G01X2114064Y2060613D01*
G01X2091328Y2091267D01*
G01X2065698Y2119546D01*
G01X2037419Y2145176D01*
G01X2006765Y2167912D01*
G01X1974029Y2187532D01*
G01X1939528Y2203850D01*
G01X1903593Y2216708D01*
G01X1866572Y2225981D01*
G01X1828819Y2231581D01*
G01X1790700Y2233454D01*
G01X1207694Y2233454D01*
G01X1199843Y2234563D01*
G01X1192607Y2237803D01*
G01X1194349Y2263099D01*
G01X1192209Y2288364D01*
G01X1186239Y2313006D01*
G01X1176578Y2336449D01*
G01X1163452Y2358142D01*
G01X1147170Y2377578D01*
G01X1128112Y2394302D01*
G01X1106725Y2407921D01*
G01X1083510Y2418117D01*
G01X1059011Y2424651D01*
G01X1033802Y2427369D01*
G01X1008473Y2426208D01*
G01X983618Y2421195D01*
G01X959819Y2412448D01*
G01X628752Y2412448D01*
G01X618174Y2413594D01*
G01X608088Y2416978D01*
G01X598960Y2422443D01*
G01X591214Y2429737D01*
G01X594066Y2452062D01*
G01X593869Y2474224D01*
G01X1463508Y2474224D01*
G01X1463508Y2449465D01*
G01X1467198Y2424983D01*
G01X1474496Y2401324D01*
G01X1485238Y2379017D01*
G01X1499186Y2358561D01*
G01X1516026Y2340411D01*
G01X1535383Y2324975D01*
G01X1556824Y2312595D01*
G01X1579872Y2303550D01*
G01X1604009Y2298041D01*
G01X1628699Y2296190D01*
G01X1628699Y2296190D01*
G01X1653388Y2298041D01*
G01X1677526Y2303550D01*
G01X1700573Y2312595D01*
G01X1722015Y2324975D01*
G01X1741372Y2340411D01*
G01X1758212Y2358561D01*
G01X1772159Y2379017D01*
G01X1782901Y2401324D01*
G01X1790199Y2424983D01*
G01X1793889Y2449465D01*
G01X1793889Y2474224D01*
G01X1790199Y2498706D01*
G01X1782901Y2522364D01*
G01X1772159Y2544671D01*
G01X1758212Y2565128D01*
G01X1741372Y2583277D01*
G01X1722015Y2598714D01*
G01X1700573Y2611093D01*
G01X1677526Y2620138D01*
G01X1653388Y2625648D01*
G01X1628699Y2627498D01*
G01X1604009Y2625648D01*
G01X1579872Y2620138D01*
G01X1556824Y2611093D01*
G01X1535383Y2598714D01*
G01X1516026Y2583277D01*
G01X1499186Y2565128D01*
G01X1485238Y2544671D01*
G01X1474496Y2522364D01*
G01X1467198Y2498706D01*
G01X1463508Y2474224D01*
G01X593869Y2474224D01*
G01X593866Y2474568D01*
G01X590616Y2496839D01*
G01X584378Y2518464D01*
G01X591649Y2535523D01*
G01X601851Y2551009D01*
G01X614657Y2564421D01*
G01X629653Y2575329D01*
G01X646358Y2583382D01*
G01X664232Y2588319D01*
G01X682701Y2589983D01*
G01X809206Y2589983D01*
G01X831721Y2591675D01*
G01X853730Y2596713D01*
G01X874740Y2604983D01*
G01X899206Y2604983D01*
G01X912316Y2606709D01*
G01X924533Y2611770D01*
G01X935023Y2619820D01*
G01X943073Y2630310D01*
G01X948134Y2642527D01*
G01X949860Y2655637D01*
G01X949860Y2686664D01*
G01X956234Y2707783D01*
G01X959456Y2729607D01*
G01X959456Y2751667D01*
G01X956234Y2773491D01*
G01X949860Y2794611D01*
G01X949860Y2825637D01*
G01X1107058Y2825637D01*
G01X1107058Y2655637D01*
G01X1107058Y2655637D01*
G01X1108784Y2642527D01*
G01X1113844Y2630310D01*
G01X1121894Y2619820D01*
G01X1132385Y2611770D01*
G01X1144601Y2606709D01*
G01X1157712Y2604983D01*
G01X1337711Y2604983D01*
G01X1350822Y2606709D01*
G01X1363038Y2611770D01*
G01X1373529Y2619820D01*
G01X1381579Y2630310D01*
G01X1386639Y2642527D01*
G01X1388365Y2655637D01*
G01X1388365Y2825637D01*
G01X1386639Y2838747D01*
G01X1381579Y2850964D01*
G01X1373529Y2861455D01*
G01X1363038Y2869505D01*
G01X1350822Y2874565D01*
G01X1337711Y2876291D01*
G01X1157712Y2876291D01*
G01X1144601Y2874565D01*
G01X1132385Y2869505D01*
G01X1121894Y2861455D01*
G01X1113844Y2850964D01*
G01X1108784Y2838747D01*
G01X1107058Y2825637D01*
G01X949860Y2825637D01*
G01X948134Y2838747D01*
G01X943073Y2850964D01*
G01X935023Y2861455D01*
G01X924533Y2869505D01*
G01X912316Y2874565D01*
G01X899206Y2876291D01*
G01X874740Y2876291D01*
G01X853730Y2884561D01*
G01X831721Y2889599D01*
G01X809206Y2891291D01*
G01X682701Y2891291D01*
G37*
G36*
G01X5879954Y3225800D02*
G01X5879954Y3512242D01*
G01X5878057Y3561497D01*
G01X5872379Y3610460D01*
G01X5862952Y3658841D01*
G01X5849832Y3706354D01*
G01X5833098Y3752717D01*
G01X5812848Y3797656D01*
G01X5789202Y3840905D01*
G01X5762301Y3882208D01*
G01X5732302Y3921319D01*
G01X5699386Y3958008D01*
G01X5663745Y3992057D01*
G01X5625591Y4023265D01*
G01X5585151Y4051446D01*
G01X6000000Y4051446D01*
G01X6045365Y4049570D01*
G01X6090419Y4043954D01*
G01X6134856Y4034636D01*
G01X6178372Y4021681D01*
G01X6220670Y4005176D01*
G01X6261460Y3985235D01*
G01X6300464Y3961994D01*
G01X6337415Y3935611D01*
G01X6372062Y3906267D01*
G01X6404167Y3874162D01*
G01X6433511Y3839515D01*
G01X6459894Y3802564D01*
G01X6483135Y3763560D01*
G01X6503076Y3722770D01*
G01X6519581Y3680472D01*
G01X6532536Y3636956D01*
G01X6541854Y3592519D01*
G01X6547470Y3547465D01*
G01X6549346Y3502100D01*
G01X6549346Y3092969D01*
G01X6523603Y3106375D01*
G01X6496269Y3116135D01*
G01X6467856Y3122065D01*
G01X6438900Y3124054D01*
G01X5981700Y3124054D01*
G01X5961850Y3126009D01*
G01X5942763Y3131799D01*
G01X5925173Y3141201D01*
G01X5909755Y3153855D01*
G01X5897101Y3169273D01*
G01X5887699Y3186863D01*
G01X5881909Y3205950D01*
G01X5879954Y3225800D01*
G37*
G36*
G01X5789454Y2362200D02*
G01X5789454Y3160437D01*
G01X5800284Y3134591D01*
G01X5814569Y3110482D01*
G01X5832038Y3088570D01*
G01X5852357Y3069271D01*
G01X5875139Y3052954D01*
G01X5899951Y3039929D01*
G01X5926320Y3030444D01*
G01X5953744Y3024680D01*
G01X5981700Y3022746D01*
G01X6438900Y3022746D01*
G01X6458079Y3021068D01*
G01X6476675Y3016085D01*
G01X6494123Y3007949D01*
G01X6509893Y2996907D01*
G01X6523507Y2983293D01*
G01X6534549Y2967523D01*
G01X6542685Y2950075D01*
G01X6547668Y2931479D01*
G01X6549346Y2912300D01*
G01X6549346Y2779954D01*
G01X6531092Y2796494D01*
G01X6510587Y2810144D01*
G01X6488285Y2820602D01*
G01X6464679Y2827638D01*
G01X6440290Y2831095D01*
G01X6415659Y2830897D01*
G01X6391328Y2827050D01*
G01X6367838Y2819636D01*
G01X6345706Y2808822D01*
G01X6325423Y2794845D01*
G01X6307437Y2778015D01*
G01X6292145Y2758704D01*
G01X6279886Y2737339D01*
G01X6270930Y2714392D01*
G01X6265476Y2690371D01*
G01X6263645Y2665806D01*
G01X6265476Y2641242D01*
G01X6270930Y2617221D01*
G01X6279886Y2594274D01*
G01X6292145Y2572909D01*
G01X6307437Y2553597D01*
G01X6325423Y2536767D01*
G01X6345706Y2522791D01*
G01X6367838Y2511976D01*
G01X6391328Y2504563D01*
G01X6415659Y2500715D01*
G01X6440290Y2500518D01*
G01X6464679Y2503975D01*
G01X6488285Y2511010D01*
G01X6510587Y2521469D01*
G01X6531092Y2535119D01*
G01X6549346Y2551658D01*
G01X6549346Y2008581D01*
G01X6549346Y2008581D01*
G01X6532393Y2044538D01*
G01X6511993Y2078659D01*
G01X6488344Y2110613D01*
G01X6461674Y2140092D01*
G01X6432239Y2166812D01*
G01X6400325Y2190515D01*
G01X6366240Y2210972D01*
G01X6330311Y2227986D01*
G01X6292886Y2241393D01*
G01X6254327Y2251062D01*
G01X6215004Y2256901D01*
G01X6175299Y2258854D01*
G01X5892800Y2258854D01*
G01X5872638Y2260840D01*
G01X5853251Y2266721D01*
G01X5835384Y2276271D01*
G01X5819723Y2289123D01*
G01X5806871Y2304784D01*
G01X5797321Y2322651D01*
G01X5791440Y2342038D01*
G01X5789454Y2362200D01*
G37*
G54D10*
G01X198040Y3876545D02*
G01X198040Y2106406D01*
G03X198207Y2100288I112360J0D01*
G02X50654Y2286000I43093J185712D01*
G01X50654Y3502100D01*
G02X198040Y3876545I549346J0D01*
G01X50654Y2064886D02*
G03X241300Y1994046I190646J221114D01*
G01X330200Y1994046D01*
G02X495446Y1828800I0J-165246D01*
G01X495446Y380079D01*
G03X647340Y52754I428633J0D01*
G01X600000Y52754D01*
G02X50654Y602100I0J549346D01*
G01X50654Y2064886D01*
G01X682701Y2891291D02*
G03X299348Y2616194I0J-404654D01*
G01X299348Y3961871D01*
G02X314435Y3971390I300652J-459771D01*
G01X3323554Y3971390D01*
G03X3444049Y4051446I0J130710D01*
G01X3594216Y4051446D01*
G03X3700400Y3758646I106184J-127146D01*
G01X3970400Y3758646D01*
G03X4039281Y3773646I0J165654D01*
G01X4507819Y3773646D01*
G03X4576700Y3758646I68881J150654D01*
G01X4846700Y3758646D01*
G03X4952884Y4051446I0J165654D01*
G01X5239442Y4051446D01*
G02X5778646Y3512242I0J-539204D01*
G01X5778646Y3417759D01*
G03X5384800Y3729514I-393846J-92899D01*
G01X4915581Y3729514D01*
G03X4846700Y3744514I-68881J-150654D01*
G01X4576700Y3744514D01*
G03X4576700Y3413206I0J-165654D01*
G01X4846700Y3413206D01*
G03X4915581Y3428206I0J165654D01*
G01X5384800Y3428206D01*
G02X5488146Y3324860I0J-103346D01*
G01X5488146Y2362200D01*
G03X5892800Y1957546I404654J0D01*
G01X6175299Y1957546D01*
G02X6278354Y1861948I0J-103346D01*
G03X6175299Y1875291I-103055J-391311D01*
G01X6048312Y1875291D01*
G03X5982778Y1860291I0J-150654D01*
G01X5958312Y1860291D01*
G03X5907658Y1809637I0J-50654D01*
G01X5907658Y1778611D01*
G03X5907658Y1670664I140654J-53974D01*
G01X5907658Y1639637D01*
G03X5958312Y1588983I50654J0D01*
G01X5982778Y1588983D01*
G03X6048312Y1573983I65534J135654D01*
G01X6175299Y1573983D01*
G02X6273622Y1502464I0J-103346D01*
G03X6342076Y1305013I155677J-56620D01*
G03X6549346Y1331696I87223J140831D01*
G01X6549346Y602100D01*
G02X6000000Y52754I-549346J0D01*
G01X924079Y52754D01*
G02X843034Y62946I0J327325D01*
G01X1112900Y62946D01*
G03X1200408Y87946I0J165654D01*
G01X1422400Y87946D01*
G03X1817054Y482600I0J394654D01*
G01X1817054Y702922D01*
G02X1850252Y783069I113346J0D01*
G01X2653963Y1586780D01*
G03X2769554Y1865842I-279063J279062D01*
G01X2769554Y2133532D01*
G03X2628900Y2452148I-140654J128262D01*
G03X2488246Y2133532I0J-190354D01*
G01X2488246Y1865842D01*
G02X2455048Y1785694I-113346J0D01*
G01X1651338Y981984D01*
G03X1535746Y702922I279062J-279062D01*
G01X1535746Y482600D01*
G02X1422400Y369254I-113346J0D01*
G01X1200408Y369254D01*
G03X1112900Y394254I-87508J-140654D01*
G01X842900Y394254D01*
G03X704890Y136978I0J-165654D01*
G02X596754Y380079I219189J243101D01*
G01X596754Y1828800D01*
G03X330200Y2095354I-266554J0D01*
G01X310400Y2095354D01*
G02X299348Y2106406I0J11052D01*
G01X299348Y2341483D01*
G03X628752Y2111140I329404J120361D01*
G01X914486Y2111140D01*
G03X1207694Y1932146I293208J150654D01*
G01X1790700Y1932146D01*
G02X1878298Y1844548I0J-87598D01*
G01X1878298Y1842359D01*
G03X2028952Y1535652I150654J-116353D01*
G03X2179606Y1842359I0J190354D01*
G01X2179606Y1844548D01*
G03X1790700Y2233454I-388906J0D01*
G01X1207694Y2233454D01*
G02X1192607Y2237803I0J28340D01*
G03X1128112Y2394302I-163907J23990D01*
G03X959819Y2412448I-99412J-132508D01*
G01X628752Y2412448D01*
G02X591214Y2429737I0J49396D01*
G03X584378Y2518464I-162512J32108D01*
G02X682701Y2589983I98323J-31827D01*
G01X809206Y2589983D01*
G03X874740Y2604983I0J150654D01*
G01X899206Y2604983D01*
G03X949860Y2655637I0J50654D01*
G01X949860Y2686664D01*
G03X949860Y2794611I-140654J53974D01*
G01X949860Y2825637D01*
G03X899206Y2876291I-50654J0D01*
G01X874740Y2876291D01*
G03X809206Y2891291I-65534J-135654D01*
G01X682701Y2891291D01*
G01X842900Y748746D02*
G01X1112900Y748746D01*
G03X1112900Y1080054I0J165654D01*
G01X842900Y1080054D01*
G03X842900Y748746I0J-165654D01*
G01X842900Y405846D02*
G01X1112900Y405846D01*
G03X1112900Y737154I0J165654D01*
G01X842900Y737154D01*
G03X842900Y405846I0J-165654D01*
G01X1107058Y2655637D02*
G03X1157712Y2604983I50654J0D01*
G01X1337711Y2604983D01*
G03X1388365Y2655637I0J50654D01*
G01X1388365Y2825637D01*
G03X1337711Y2876291I-50654J0D01*
G01X1157712Y2876291D01*
G03X1107058Y2825637I0J-50654D01*
G01X1107058Y2655637D01*
G01X1663300Y1635354D02*
G01X1613300Y1635354D01*
G03X1613300Y1184046I0J-225654D01*
G01X1663300Y1184046D01*
G03X1663300Y1635354I0J225654D01*
G01X3204593Y1914809D02*
G03X3078194Y1609653I24255J-188802D01*
G01X3078194Y1397140D01*
G02X2974848Y1293794I-103346J0D01*
G01X2664507Y1293794D01*
G03X2262442Y934839I0J-404654D01*
G03X1893121Y639403I20460J-404136D01*
G03X1999284Y317958I135781J-133410D01*
G03X2199117Y591206I29618J188036D01*
G02X2282901Y634049I83784J-60503D01*
G01X2410507Y634049D01*
G03X2476041Y649049I0J150654D01*
G01X2500507Y649049D01*
G03X2551161Y699703I0J50654D01*
G01X2551161Y730729D01*
G03X2561161Y784703I-140654J53974D01*
G01X2561161Y889140D01*
G02X2664507Y992486I103346J0D01*
G01X2974848Y992486D01*
G03X3369191Y1306376I0J404654D01*
G03X3482848Y1290086I113657J388365D01*
G01X3512748Y1290086D01*
G03X3750070Y1293767I116353J150654D01*
G03X3799317Y1525952I-120969J146973D01*
G02X3883101Y1568795I83784J-60503D01*
G01X4010707Y1568795D01*
G03X4076241Y1583795I0J150654D01*
G01X4100707Y1583795D01*
G03X4151361Y1634449I0J50654D01*
G01X4151361Y1665476D01*
G03X4151361Y1773423I-140654J53974D01*
G01X4151361Y1804449D01*
G03X4100707Y1855103I-50654J0D01*
G01X4076241Y1855103D01*
G03X4010707Y1870103I-65534J-135654D01*
G01X3883101Y1870103D01*
G03X3498546Y1591394I0J-404654D01*
G01X3482848Y1591394D01*
G02X3397122Y1637021I0J103346D01*
G03X3417650Y1701752I-168274J88985D01*
G01X3757475Y2041577D01*
G02X3808328Y2069428I73077J-73077D01*
G03X3854698Y2073369I-11028J404504D01*
G03X4201954Y2473932I-57398J400563D01*
G01X4201954Y3022600D01*
G03X3797300Y3427254I-404654J0D01*
G01X1882699Y3427254D01*
G02X1779353Y3530600I0J103346D01*
G01X1779353Y3612926D01*
G03X1628699Y3847460I-150654J68881D01*
G03X1478045Y3612926I0J-165654D01*
G01X1478045Y3530600D01*
G03X1882699Y3125946I404654J0D01*
G01X2261636Y3125946D01*
G03X2259853Y3091387I334084J-34559D01*
G01X2259853Y2890500D01*
G03X1893121Y2595203I23048J-403997D01*
G03X1999284Y2273758I135781J-133410D01*
G03X2199117Y2547006I29618J188036D01*
G02X2282901Y2589849I83784J-60503D01*
G01X2363431Y2589849D01*
G03X2386969Y2591699I0J150654D01*
G03X2476041Y2604849I23538J148804D01*
G01X2500507Y2604849D01*
G03X2551161Y2655503I0J50654D01*
G01X2551161Y2686529D01*
G03X2561161Y2740503I-140654J53974D01*
G01X2561161Y3091387D01*
G02X2595720Y3125946I34559J0D01*
G01X3797300Y3125946D01*
G02X3900646Y3022600I0J-103346D01*
G01X3900646Y2473932D01*
G02X3811959Y2371631I-103346J0D01*
G02X3797300Y2370586I-14659J102302D01*
G01X3794524Y2370586D01*
G03X3773154Y2369063I0J-150654D01*
G03X3544419Y2254634I57398J-400562D01*
G01X3204593Y1914809D01*
G01X1628699Y2296190D02*
G03X1628699Y2627498I0J165654D01*
G03X1628699Y2296190I0J-165654D01*
G01X2028952Y3872160D02*
G03X2028952Y3491452I0J-190354D01*
G03X2028952Y3872160I0J190354D01*
G01X2628900Y496348D02*
G03X2628900Y115640I0J-190354D01*
G03X2628900Y496348I0J190354D01*
G01X2849013Y935357D02*
G03X2783479Y920356I0J-150654D01*
G01X2759013Y920356D01*
G03X2708359Y869702I0J-50654D01*
G01X2708359Y838676D01*
G03X2708359Y730729I140654J-53974D01*
G01X2708359Y699703D01*
G03X2759013Y649049I50654J0D01*
G01X2783479Y649049D01*
G03X2849013Y634049I65534J135654D01*
G01X2974899Y634049D01*
G02X3058683Y591206I0J-103346D01*
G03X3258516Y317958I170216J-85212D01*
G03X3364679Y639403I-29618J188036D01*
G03X2974899Y935357I-389781J-108701D01*
G01X2849013Y935357D01*
G01X2849013Y2891157D02*
G03X2783479Y2876156I0J-150654D01*
G01X2759013Y2876156D01*
G03X2708359Y2825502I0J-50654D01*
G01X2708359Y2794476D01*
G03X2708359Y2686529I140654J-53974D01*
G01X2708359Y2655503D01*
G03X2759013Y2604849I50654J0D01*
G01X2783479Y2604849D01*
G03X2849013Y2589849I65534J135654D01*
G01X2974899Y2589849D01*
G02X3058683Y2547006I0J-103346D01*
G03X3258516Y2273758I170216J-85212D01*
G03X3364679Y2595203I-29618J188036D01*
G03X2974899Y2891157I-389781J-108701D01*
G01X2849013Y2891157D01*
G01X3228848Y3872160D02*
G03X3228848Y3491452I0J-190354D01*
G03X3228848Y3872160I0J190354D01*
G01X3629152Y2851107D02*
G03X3629152Y2470399I0J-190354D01*
G03X3629152Y2851107I0J190354D01*
G01X4483100Y725646D02*
G01X5575300Y725646D01*
G03X5979954Y1130300I0J404654D01*
G01X5979954Y1176913D01*
G03X5829300Y1411448I-150654J68881D01*
G03X5678646Y1176913I0J-165654D01*
G01X5678646Y1130300D01*
G02X5575300Y1026954I-103346J0D01*
G01X4483100Y1026954D01*
G02X4379912Y1124592I0J103346D01*
G03X4228935Y1431094I-150812J116148D01*
G03X4078490Y1124331I165J-190354D01*
G03X4483100Y725646I404610J5969D01*
G01X4449213Y1870103D02*
G03X4383679Y1855103I0J-150654D01*
G01X4359213Y1855103D01*
G03X4308559Y1804449I0J-50654D01*
G01X4308559Y1773423D01*
G03X4308559Y1665476I140654J-53974D01*
G01X4308559Y1634449D01*
G03X4359213Y1583795I50654J0D01*
G01X4383679Y1583795D01*
G03X4449213Y1568795I65534J135654D01*
G01X4575099Y1568795D01*
G02X4658883Y1525952I0J-103346D01*
G03X4858716Y1252704I170216J-85212D01*
G03X4964879Y1574150I-29618J188036D01*
G03X4575099Y1870103I-389781J-108701D01*
G01X4449213Y1870103D01*
G01X4846700Y3399074D02*
G01X4576700Y3399074D01*
G03X4576700Y3067766I0J-165654D01*
G01X4846700Y3067766D01*
G03X4846700Y3399074I0J165654D01*
G01X4829048Y2851107D02*
G03X4829048Y2470399I0J-190354D01*
G03X4829048Y2851107I0J190354D01*
G01X5229301Y1280190D02*
G03X5229301Y1611498I0J165654D01*
G03X5229301Y1280190I0J-165654D01*
G01X5750460Y1809637D02*
G03X5699806Y1860291I-50654J0D01*
G01X5519806Y1860291D01*
G03X5469152Y1809637I0J-50654D01*
G01X5469152Y1639637D01*
G03X5519806Y1588983I50654J0D01*
G01X5699806Y1588983D01*
G03X5750460Y1639637I0J50654D01*
G01X5750460Y1809637D01*
G01X5879954Y3225800D02*
G01X5879954Y3512242D01*
G03X5585151Y4051446I-640512J0D01*
G01X6000000Y4051446D01*
G02X6549346Y3502100I0J-549346D01*
G01X6549346Y3092969D01*
G03X6438900Y3124054I-110446J-180669D01*
G01X5981700Y3124054D01*
G02X5879954Y3225800I0J101746D01*
G01X5789454Y2362200D02*
G01X5789454Y3160437D01*
G03X5981700Y3022746I192246J65363D01*
G01X6438900Y3022746D01*
G02X6549346Y2912300I0J-110446D01*
G01X6549346Y2779954D01*
G03X6263645Y2665806I-120047J-114148D01*
G03X6549346Y2551658I165654J0D01*
G01X6549346Y2008581D01*
G03X6175299Y2258854I-374047J-154381D01*
G01X5892800Y2258854D01*
G02X5789454Y2362200I0J103346D01*
G54D11*
G01X1157966Y2740637D02*
G01X1132058Y2740637D01*
G01X1337457Y2740637D02*
G01X1363365Y2740637D01*
G01X1247712Y2825383D02*
G01X1247712Y2851291D01*
G01X1247712Y2655891D02*
G01X1247712Y2629983D01*
G01X5699552Y1724637D02*
G01X5725460Y1724637D01*
G01X5520060Y1724637D02*
G01X5494152Y1724637D01*
G01X5609806Y1639891D02*
G01X5609806Y1613983D01*
G01X5609806Y1809383D02*
G01X5609806Y1835291D01*
G01X1628699Y2347098D02*
G01X1628699Y2321190D01*
G01X1628699Y2576590D02*
G01X1628699Y2602498D01*
G01X1513953Y2461844D02*
G01X1488045Y2461844D01*
G01X1743445Y2461844D02*
G01X1769353Y2461844D01*
G01X1438554Y1409700D02*
G01X1412646Y1409700D01*
G01X1838046Y1409700D02*
G01X1863954Y1409700D01*
G01X1638300Y1584446D02*
G01X1638300Y1610354D01*
G01X1638300Y1234954D02*
G01X1638300Y1209046D01*
G01X4461954Y3233420D02*
G01X4436046Y3233420D01*
G01X4961446Y3233420D02*
G01X4987354Y3233420D01*
G01X4711700Y3348166D02*
G01X4711700Y3374074D01*
G01X4711700Y3118674D02*
G01X4711700Y3092766D01*
G01X4829048Y2800199D02*
G01X4829048Y2826107D01*
G01X4829048Y2521307D02*
G01X4829048Y2495399D01*
G01X4968494Y2660753D02*
G01X4994402Y2660753D01*
G01X4689602Y2660753D02*
G01X4663694Y2660753D01*
G01X5229301Y1331098D02*
G01X5229301Y1305190D01*
G01X5229301Y1560590D02*
G01X5229301Y1586498D01*
G01X5114555Y1445844D02*
G01X5088647Y1445844D01*
G01X5344047Y1445844D02*
G01X5369955Y1445844D01*
G04 Copper End*

G04 Pad Start*
G54D12*
G01X4711700Y3578860D03*
G01X4711700Y3233420D03*
G01X3835400Y3924300D03*
G01X977900Y914400D03*
G01X977900Y228600D03*
G01X977900Y571500D03*
G01X4711700Y3924300D03*
G54D13*
G01X1638300Y1409700D03*
G54D14*
G01X5829300Y1245794D03*
G01X5229301Y1445844D03*
G01X6429299Y2665806D03*
G01X6429299Y1445844D03*
G01X1028700Y2261794D03*
G01X428701Y2461844D03*
G01X1628699Y3681806D03*
G01X1628699Y2461844D03*
G54D15*
G01X4829048Y2660753D03*
G01X4229100Y1240740D03*
G01X3629101Y1440740D03*
G01X4829099Y1440740D03*
G01X3629152Y2660753D03*
G01X3228848Y1726006D03*
G01X2628900Y305994D03*
G01X2028901Y505993D03*
G01X3228899Y505993D03*
G01X2028952Y1726006D03*
G01X3228848Y3681806D03*
G01X2628900Y2261794D03*
G01X2028901Y2461793D03*
G01X3228899Y2461793D03*
G01X2028952Y3681806D03*
G54D16*
G01X5609806Y1724637D03*
G01X6048312Y1724637D03*
G01X1247712Y2740637D03*
G01X809206Y2740637D03*
G01X4010707Y1719449D03*
G01X4449213Y1719449D03*
G01X2410507Y784703D03*
G01X2849013Y784703D03*
G01X2410507Y2740503D03*
G01X2849013Y2740503D03*
G04 Pad End*

G04 Track Start*
G54D17*
G01X428701Y2461844D02*
G01X428701Y2486637D01*
G01X682701Y2740637D02*
G01X809206Y2740637D01*
G01X1628699Y2461844D02*
G01X1628699Y2486637D01*
G01X1374699Y2740637D02*
G01X1247712Y2740637D01*
G01X2028901Y505993D02*
G01X2028901Y530703D01*
G01X2282901Y784703D02*
G01X2410507Y784703D01*
G01X3228899Y505993D02*
G01X3228899Y530703D01*
G01X2974899Y784703D02*
G01X2849013Y784703D01*
G01X4010707Y1719449D02*
G01X3883101Y1719449D01*
G01X3629101Y1465449D02*
G01X3629101Y1440740D01*
G01X4449213Y1719449D02*
G01X4575099Y1719449D01*
G01X4829099Y1465449D02*
G01X4829099Y1440740D01*
G01X5609806Y1724637D02*
G01X5483301Y1724637D01*
G01X6048312Y1724637D02*
G01X6175299Y1724637D01*
G01X6429299Y1470637D02*
G01X6429299Y1445844D01*
G01X2028901Y2486503D02*
G01X2028901Y2461793D01*
G01X2849013Y2740503D02*
G01X2974899Y2740503D01*
G01X3228899Y2486503D02*
G01X3228899Y2461793D01*
G01X5829300Y1245794D02*
G01X5829300Y1130300D01*
G01X4229100Y1130300D02*
G01X4229100Y1240740D01*
G01X5575300Y876300D02*
G01X4483100Y876300D01*
G01X3482848Y1440740D02*
G01X3629101Y1440740D01*
G01X3228848Y1726006D02*
G01X3650947Y2148105D01*
G01X3794524Y2219932D02*
G01X3797300Y2219932D01*
G01X2363431Y2740503D02*
G01X2282901Y2740503D01*
G01X4711700Y3924300D02*
G01X3835400Y3924300D01*
G01X4975301Y2660753D02*
G01X4829048Y2660753D01*
G01X5229301Y1445844D02*
G01X5229301Y1470637D01*
G01X5229301Y2406753D01*
G01X1028700Y2261794D02*
G01X628752Y2261794D01*
G01X3228848Y1397140D02*
G01X3228848Y1694740D01*
G01X2410507Y784703D02*
G01X2410507Y889140D01*
G01X2664507Y1143140D02*
G01X2974848Y1143140D01*
G54D19*
G01X2628900Y2261794D02*
G01X2628900Y1865842D01*
G01X1422400Y228600D02*
G01X977900Y228600D01*
G01X1676400Y702922D02*
G01X1676400Y482600D01*
G01X2554505Y1686237D02*
G01X1750795Y882527D01*
G54D17*
G01X4829048Y3116072D02*
G01X4829048Y2660753D01*
G01X4711700Y3578860D02*
G01X5384800Y3578860D01*
G01X6429299Y1854200D02*
G01X6429299Y1470637D01*
G01X5638800Y3324860D02*
G01X5638800Y2362200D01*
G01X5892800Y2108200D02*
G01X6175299Y2108200D01*
G01X1628699Y3530600D02*
G01X1628699Y3681806D01*
G01X2410507Y3091387D02*
G01X2410507Y2787579D01*
G01X2410507Y2740503D01*
G01X3797300Y3276600D02*
G01X2595720Y3276600D01*
G01X1882699Y3276600D01*
G01X2410507Y2787579D02*
G01X2363431Y2740503D01*
G01X4051300Y2473932D02*
G01X4051300Y3022600D01*
G01X2028952Y1844548D02*
G01X2028952Y1726006D01*
G01X1207694Y2082800D02*
G01X1790700Y2082800D01*
G01X428701Y2486637D02*
G02X682701Y2740637I254000J0D01*
G01X1628699Y2486637D02*
G03X1374699Y2740637I-254000J0D01*
G01X2028901Y530703D02*
G02X2282901Y784703I254000J0D01*
G01X3228899Y530703D02*
G03X2974899Y784703I-254000J0D01*
G01X3883101Y1719449D02*
G03X3629101Y1465449I0J-254000D01*
G01X4575099Y1719449D02*
G02X4829099Y1465449I0J-254000D01*
G01X5483301Y1724637D02*
G03X5229301Y1470637I0J-254000D01*
G01X6175299Y1724637D02*
G02X6429299Y1470637I0J-254000D01*
G01X2282901Y2740503D02*
G03X2028901Y2486503I0J-254000D01*
G01X2974899Y2740503D02*
G02X3228899Y2486503I0J-254000D01*
G01X5829300Y1130300D02*
G02X5575300Y876300I-254000J0D01*
G01X4483100Y876300D02*
G02X4229100Y1130300I0J254000D01*
G01X3228848Y1694740D02*
G03X3482848Y1440740I254000J0D01*
G01X3797300Y2219932D02*
G03X3833329Y2222500I0J254001D01*
G03X4051300Y2473932I-36029J251432D01*
G01X3650947Y2148105D02*
G02X3794524Y2219932I179605J-179605D01*
G01X5229301Y2406753D02*
G03X4975301Y2660753I-254000J0D01*
G01X628752Y2261794D02*
G02X428701Y2461844I0J200050D01*
G01X2974848Y1143140D02*
G03X3228848Y1397140I0J254000D01*
G01X2410507Y889140D02*
G02X2664507Y1143140I254000J0D01*
G54D19*
G01X2628900Y1865842D02*
G02X2554505Y1686237I-254000J0D01*
G01X1676400Y482600D02*
G02X1422400Y228600I-254000J0D01*
G01X1750795Y882527D02*
G03X1676400Y702922I179605J-179605D01*
G54D17*
G01X4711700Y3233420D02*
G02X4829048Y3116072I0J-117348D01*
G01X5384800Y3578860D02*
G02X5638800Y3324860I0J-254000D01*
G01X5638800Y2362200D02*
G03X5892800Y2108200I254000J0D01*
G01X6175299Y2108200D02*
G02X6429299Y1854200I0J-254000D01*
G01X4051300Y3022600D02*
G03X3797300Y3276600I-254000J0D01*
G01X1882699Y3276600D02*
G02X1628699Y3530600I0J254000D01*
G01X2595720Y3276600D02*
G03X2410507Y3091387I0J-185213D01*
G01X1790700Y2082800D02*
G02X2028952Y1844548I0J-238252D01*
G01X1028700Y2261794D02*
G03X1207694Y2082800I178994J0D01*
G04 Track End*

M02*

