G04 Layer: TopLayer*
G04 EasyEDA Pro v2.2.45.4, 2025-12-25 15:41:57*
G04 Gerber Generator version 0.3*
G04 Scale: 100 percent, Rotated: No, Reflected: No*
G04 Dimensions in millimeters*
G04 Leading zeros omitted, absolute positions, 4 integers and 5 decimals*
G04 Generated by custom config*
%FSLAX45Y45*%
%MOMM*%
%ADD10C,0.5*%
%ADD11C,0.254*%
%ADD12O,5.0X2.3*%
%ADD13O,4.0X3.5*%
%ADD14C,2.3*%
%ADD15C,2.794*%
%ADD16C,2.0*%
%ADD17C,1.8048*%
%ADD18C,1.8*%
G75*


G04 Copper Start*
G36*
G01X198040Y3876545D02*
G01X198040Y2106406D01*
G01X198207Y2100288D01*
G01X173732Y2107729D01*
G01X150474Y2118380D01*
G01X128852Y2132048D01*
G01X109254Y2148488D01*
G01X92033Y2167403D01*
G01X77499Y2188454D01*
G01X65915Y2211261D01*
G01X57488Y2235414D01*
G01X52370Y2260477D01*
G01X50654Y2286000D01*
G01X50654Y3502100D01*
G01X52560Y3547824D01*
G01X58266Y3593231D01*
G01X67731Y3638006D01*
G01X80890Y3681837D01*
G01X97651Y3724421D01*
G01X117899Y3765462D01*
G01X141493Y3804676D01*
G01X168268Y3841789D01*
G01X198040Y3876545D01*
G37*
G36*
G01X50654Y2064886D02*
G01X74075Y2046682D01*
G01X99223Y2030949D01*
G01X125837Y2017848D01*
G01X153643Y2007516D01*
G01X182355Y2000058D01*
G01X211674Y1995553D01*
G01X241300Y1994046D01*
G01X330200Y1994046D01*
G01X353717Y1992364D01*
G01X376755Y1987352D01*
G01X398846Y1979113D01*
G01X419539Y1967814D01*
G01X438413Y1953685D01*
G01X455085Y1937013D01*
G01X469214Y1918139D01*
G01X480513Y1897446D01*
G01X488752Y1875355D01*
G01X493764Y1852317D01*
G01X495446Y1828800D01*
G01X495446Y380079D01*
G01X497442Y338759D01*
G01X503413Y297824D01*
G01X513301Y257655D01*
G01X527016Y218626D01*
G01X544429Y181101D01*
G01X565379Y145430D01*
G01X589669Y111944D01*
G01X617075Y80956D01*
G01X647340Y52754D01*
G01X600000Y52754D01*
G01X554635Y54630D01*
G01X509581Y60246D01*
G01X465144Y69564D01*
G01X421628Y82519D01*
G01X379330Y99024D01*
G01X338540Y118965D01*
G01X299536Y142206D01*
G01X262585Y168589D01*
G01X227938Y197933D01*
G01X195833Y230038D01*
G01X166489Y264685D01*
G01X140106Y301636D01*
G01X116865Y340640D01*
G01X96924Y381430D01*
G01X80419Y423728D01*
G01X67464Y467244D01*
G01X58146Y511681D01*
G01X52530Y556735D01*
G01X50654Y602100D01*
G01X50654Y2064886D01*
G37*
G36*
G01X299348Y2106406D02*
G01X299348Y2358361D01*
G01X316252Y2340204D01*
G01X335678Y2324775D01*
G01X357191Y2312421D01*
G01X380307Y2303417D01*
G01X404508Y2297967D01*
G01X429252Y2296191D01*
G01X453984Y2298131D01*
G01X478148Y2303743D01*
G01X501204Y2312900D01*
G01X522634Y2325397D01*
G01X541957Y2340954D01*
G01X558740Y2359223D01*
G01X572607Y2379793D01*
G01X583246Y2402203D01*
G01X583246Y1912578D01*
G01X572103Y1940754D01*
G01X557835Y1967484D01*
G01X540625Y1992423D01*
G01X520696Y2015246D01*
G01X498306Y2035661D01*
G01X473743Y2053403D01*
G01X447325Y2068242D01*
G01X419395Y2079988D01*
G01X390311Y2088488D01*
G01X360451Y2093632D01*
G01X330200Y2095354D01*
G01X310400Y2095354D01*
G01X304874Y2096835D01*
G01X300829Y2100880D01*
G01X299348Y2106406D01*
G37*
G36*
G01X583246Y2521485D02*
G01X572607Y2543895D01*
G01X558740Y2564465D01*
G01X541957Y2582734D01*
G01X522634Y2598291D01*
G01X501204Y2610789D01*
G01X478148Y2619946D01*
G01X453984Y2625557D01*
G01X429252Y2627497D01*
G01X404508Y2625722D01*
G01X380307Y2620271D01*
G01X357191Y2611268D01*
G01X335678Y2598913D01*
G01X316252Y2583485D01*
G01X299348Y2565328D01*
G01X299348Y3694186D01*
G01X1463508Y3694186D01*
G01X1463508Y3669427D01*
G01X1467198Y3644945D01*
G01X1474496Y3621286D01*
G01X1485238Y3598979D01*
G01X1499186Y3578523D01*
G01X1516026Y3560373D01*
G01X1535383Y3544937D01*
G01X1556824Y3532557D01*
G01X1579872Y3523512D01*
G01X1604009Y3518003D01*
G01X1628699Y3516152D01*
G01X1628699Y3516152D01*
G01X1653388Y3518003D01*
G01X1677526Y3523512D01*
G01X1700573Y3532557D01*
G01X1722015Y3544937D01*
G01X1741372Y3560373D01*
G01X1758212Y3578523D01*
G01X1772159Y3598979D01*
G01X1782901Y3621286D01*
G01X1790199Y3644945D01*
G01X1793889Y3669427D01*
G01X1793889Y3694186D01*
G01X1790199Y3718668D01*
G01X1782901Y3742326D01*
G01X1772159Y3764633D01*
G01X1758212Y3785090D01*
G01X1741372Y3803239D01*
G01X1722015Y3818676D01*
G01X1700573Y3831055D01*
G01X1677526Y3840100D01*
G01X1653388Y3845610D01*
G01X1628699Y3847460D01*
G01X1604009Y3845610D01*
G01X1579872Y3840100D01*
G01X1556824Y3831055D01*
G01X1535383Y3818676D01*
G01X1516026Y3803239D01*
G01X1499186Y3785090D01*
G01X1485238Y3764633D01*
G01X1474496Y3742326D01*
G01X1467198Y3718668D01*
G01X1463508Y3694186D01*
G01X299348Y3694186D01*
G01X299348Y3961871D01*
G01X314435Y3971390D01*
G01X3323554Y3971390D01*
G01X3345352Y3973221D01*
G01X3366539Y3978661D01*
G01X3386523Y3987558D01*
G01X3404743Y3999663D01*
G01X3420689Y4014637D01*
G01X3433915Y4032061D01*
G01X3444049Y4051446D01*
G01X3594216Y4051446D01*
G01X3577921Y4035836D01*
G01X3563900Y4018156D01*
G01X3552411Y3998734D01*
G01X3543668Y3977931D01*
G01X3537834Y3956133D01*
G01X3535016Y3933745D01*
G01X3535266Y3911181D01*
G01X3535266Y3911181D01*
G01X3518252Y3881747D01*
G01X3504115Y3850827D01*
G01X3492984Y3818702D01*
G01X3484961Y3785664D01*
G01X3480117Y3752012D01*
G01X3478498Y3718052D01*
G01X3478498Y2811407D01*
G01X3427858Y2811407D01*
G01X3392134Y2809577D01*
G01X3356783Y2804106D01*
G01X3322177Y2795052D01*
G01X3288677Y2782509D01*
G01X3256634Y2766608D01*
G01X3226384Y2747516D01*
G01X3198242Y2725434D01*
G01X3172505Y2700591D01*
G01X3149441Y2673248D01*
G01X3129291Y2643692D01*
G01X3112267Y2612231D01*
G01X3091984Y2594039D01*
G01X3074506Y2573137D01*
G01X3060191Y2549954D01*
G01X3049332Y2524964D01*
G01X3042153Y2498681D01*
G01X3038800Y2471641D01*
G01X3039341Y2444400D01*
G01X3043766Y2417515D01*
G01X3051984Y2391538D01*
G01X3063827Y2366999D01*
G01X3079052Y2344403D01*
G01X3097346Y2324212D01*
G01X3118336Y2306840D01*
G01X3141591Y2292642D01*
G01X3166635Y2281910D01*
G01X3192955Y2274864D01*
G01X3220011Y2271647D01*
G01X3247249Y2272326D01*
G01X3274111Y2276887D01*
G01X3300047Y2285236D01*
G01X3324525Y2297202D01*
G01X3347044Y2312541D01*
G01X3367142Y2330937D01*
G01X3384408Y2352015D01*
G01X3398488Y2375341D01*
G01X3409094Y2400439D01*
G01X3416007Y2426794D01*
G01X3419088Y2453866D01*
G01X3418271Y2481100D01*
G01X3413575Y2507939D01*
G01X3420635Y2509556D01*
G01X3427858Y2510099D01*
G01X3512799Y2510099D01*
G01X3534706Y2495481D01*
G01X3558421Y2484028D01*
G01X3583490Y2475957D01*
G01X3609433Y2471423D01*
G01X3635754Y2470513D01*
G01X3661948Y2473245D01*
G01X3687514Y2479567D01*
G01X3711963Y2489356D01*
G01X3734827Y2502426D01*
G01X3755669Y2518527D01*
G01X3774088Y2537350D01*
G01X3789733Y2558536D01*
G01X3802304Y2581678D01*
G01X3811561Y2606334D01*
G01X3817327Y2632031D01*
G01X3819490Y2658278D01*
G01X3818010Y2684573D01*
G01X3812915Y2710411D01*
G01X3804302Y2735299D01*
G01X3792336Y2758760D01*
G01X3802561Y2774131D01*
G01X3815358Y2787438D01*
G01X3830318Y2798255D01*
G01X3846964Y2806238D01*
G01X3864765Y2811133D01*
G01X3883152Y2812782D01*
G01X4714497Y2812782D01*
G01X4694584Y2795490D01*
G01X4677252Y2775611D01*
G01X4662833Y2753529D01*
G01X4651606Y2729665D01*
G01X4643784Y2704478D01*
G01X4639519Y2678452D01*
G01X4638891Y2652086D01*
G01X4641914Y2625887D01*
G01X4648529Y2600357D01*
G01X4658610Y2575986D01*
G01X4671962Y2553242D01*
G01X4688329Y2532563D01*
G01X4707397Y2514343D01*
G01X4728801Y2498935D01*
G01X4752129Y2486632D01*
G01X4776933Y2477672D01*
G01X4802738Y2472226D01*
G01X4829048Y2470399D01*
G01X4855358Y2472226D01*
G01X4881163Y2477672D01*
G01X4905967Y2486632D01*
G01X4929295Y2498935D01*
G01X4950699Y2514343D01*
G01X4969767Y2532563D01*
G01X4986134Y2553242D01*
G01X4999486Y2575986D01*
G01X5009567Y2600357D01*
G01X5016182Y2625887D01*
G01X5019205Y2652086D01*
G01X5018577Y2678452D01*
G01X5014312Y2704478D01*
G01X5006490Y2729665D01*
G01X4995263Y2753529D01*
G01X4980844Y2775611D01*
G01X4963512Y2795490D01*
G01X4943599Y2812782D01*
G01X4953000Y2812782D01*
G01X4973162Y2810796D01*
G01X4992549Y2804915D01*
G01X5010416Y2795365D01*
G01X5026077Y2782512D01*
G01X5038929Y2766851D01*
G01X5048479Y2748984D01*
G01X5054360Y2729597D01*
G01X5056346Y2709436D01*
G01X5056346Y2453017D01*
G01X5054360Y2432855D01*
G01X5048479Y2413468D01*
G01X5038929Y2395601D01*
G01X5026077Y2379940D01*
G01X4796965Y2150829D01*
G01X4770297Y2121405D01*
G01X4746641Y2089509D01*
G01X4726226Y2055448D01*
G01X4709247Y2019549D01*
G01X4695869Y1982160D01*
G01X4686220Y1943639D01*
G01X4680393Y1904358D01*
G01X4678445Y1864695D01*
G01X4678445Y1557093D01*
G01X4663107Y1533914D01*
G01X4651309Y1508749D01*
G01X4643300Y1482134D01*
G01X4639253Y1454637D01*
G01X4639253Y1426843D01*
G01X4643300Y1399346D01*
G01X4651309Y1372731D01*
G01X4663107Y1347566D01*
G01X4678445Y1324387D01*
G01X4678445Y1181100D01*
G01X4676459Y1160938D01*
G01X4670578Y1141551D01*
G01X4661028Y1123684D01*
G01X4648175Y1108023D01*
G01X4632515Y1095171D01*
G01X4614648Y1085621D01*
G01X4595261Y1079740D01*
G01X4575099Y1077754D01*
G01X4327436Y1077754D01*
G01X4349863Y1093598D01*
G01X4369776Y1112503D01*
G01X4386762Y1134076D01*
G01X4400468Y1157869D01*
G01X4410608Y1183387D01*
G01X4416971Y1210097D01*
G01X4419425Y1237445D01*
G01X4417919Y1264862D01*
G01X4412484Y1291777D01*
G01X4403234Y1317630D01*
G01X4390360Y1341883D01*
G01X4374131Y1364032D01*
G01X4354883Y1383615D01*
G01X4333019Y1400225D01*
G01X4308992Y1413517D01*
G01X4283303Y1423214D01*
G01X4256487Y1429114D01*
G01X4229100Y1431094D01*
G01X4201713Y1429114D01*
G01X4174897Y1423214D01*
G01X4149208Y1413517D01*
G01X4125181Y1400225D01*
G01X4103317Y1383615D01*
G01X4084069Y1364032D01*
G01X4067840Y1341883D01*
G01X4054966Y1317630D01*
G01X4045716Y1291777D01*
G01X4040281Y1264862D01*
G01X4038775Y1237445D01*
G01X4041229Y1210097D01*
G01X4047592Y1183387D01*
G01X4057732Y1157869D01*
G01X4071438Y1134076D01*
G01X4088424Y1112503D01*
G01X4108337Y1093598D01*
G01X4130764Y1077754D01*
G01X3755216Y1077754D01*
G01X3755216Y1077754D01*
G01X3715553Y1075805D01*
G01X3676272Y1069979D01*
G01X3637751Y1060330D01*
G01X3600361Y1046952D01*
G01X3564463Y1029973D01*
G01X3530402Y1009558D01*
G01X3498506Y985902D01*
G01X3469082Y959234D01*
G01X3204644Y694796D01*
G01X3178668Y689600D01*
G01X3153665Y680849D01*
G01X3130119Y668711D01*
G01X3108486Y653422D01*
G01X3089185Y635278D01*
G01X3072589Y614630D01*
G01X3059021Y591878D01*
G01X3048743Y567463D01*
G01X3041954Y541857D01*
G01X3038785Y515557D01*
G01X3039298Y489072D01*
G01X3043484Y462914D01*
G01X3051260Y437590D01*
G01X3062476Y413592D01*
G01X3076915Y391382D01*
G01X3094298Y371393D01*
G01X3114288Y354010D01*
G01X3136497Y339571D01*
G01X3160496Y328354D01*
G01X3185819Y320578D01*
G01X3211977Y316393D01*
G01X3238462Y315880D01*
G01X3264763Y319048D01*
G01X3290368Y325838D01*
G01X3314784Y336116D01*
G01X3337536Y349684D01*
G01X3358184Y366279D01*
G01X3376328Y385580D01*
G01X3391617Y407213D01*
G01X3403754Y430760D01*
G01X3412506Y455763D01*
G01X3417701Y481739D01*
G01X3682139Y746177D01*
G01X3697800Y759029D01*
G01X3715667Y768579D01*
G01X3735054Y774460D01*
G01X3755216Y776446D01*
G01X4575099Y776446D01*
G01X4614762Y778395D01*
G01X4654043Y784221D01*
G01X4692564Y793870D01*
G01X4729953Y807248D01*
G01X4765851Y824227D01*
G01X4799913Y844642D01*
G01X4831809Y868298D01*
G01X4861232Y894966D01*
G01X4887901Y924390D01*
G01X4911556Y956286D01*
G01X4931972Y990347D01*
G01X4948950Y1026246D01*
G01X4962329Y1063635D01*
G01X4971977Y1102156D01*
G01X4977804Y1141437D01*
G01X4979753Y1181100D01*
G01X4979753Y1258173D01*
G01X5664109Y1258173D01*
G01X5664109Y1233414D01*
G01X5667800Y1208932D01*
G01X5675097Y1185274D01*
G01X5685840Y1162967D01*
G01X5699787Y1142510D01*
G01X5716627Y1124361D01*
G01X5735984Y1108924D01*
G01X5757426Y1096545D01*
G01X5780473Y1087500D01*
G01X5804611Y1081990D01*
G01X5829300Y1080140D01*
G01X5829300Y1080140D01*
G01X5853989Y1081990D01*
G01X5878127Y1087500D01*
G01X5901174Y1096545D01*
G01X5922616Y1108924D01*
G01X5941973Y1124361D01*
G01X5958813Y1142510D01*
G01X5972760Y1162967D01*
G01X5983503Y1185274D01*
G01X5990800Y1208932D01*
G01X5994491Y1233414D01*
G01X5994491Y1258173D01*
G01X5990800Y1282655D01*
G01X5983503Y1306314D01*
G01X5972760Y1328621D01*
G01X5958813Y1349077D01*
G01X5941973Y1367227D01*
G01X5922616Y1382663D01*
G01X5901174Y1395043D01*
G01X5878127Y1404088D01*
G01X5853989Y1409597D01*
G01X5829300Y1411448D01*
G01X5804611Y1409597D01*
G01X5780473Y1404088D01*
G01X5757426Y1395043D01*
G01X5735984Y1382663D01*
G01X5716627Y1367227D01*
G01X5699787Y1349077D01*
G01X5685840Y1328621D01*
G01X5675097Y1306314D01*
G01X5667800Y1282655D01*
G01X5664109Y1258173D01*
G01X4979753Y1258173D01*
G01X4979753Y1324387D01*
G01X4995090Y1347566D01*
G01X5006889Y1372731D01*
G01X5014897Y1399346D01*
G01X5018945Y1426843D01*
G01X5018945Y1454637D01*
G01X5018417Y1458224D01*
G01X5064111Y1458224D01*
G01X5064111Y1433465D01*
G01X5067801Y1408983D01*
G01X5075099Y1385324D01*
G01X5085841Y1363017D01*
G01X5099788Y1342561D01*
G01X5116628Y1324411D01*
G01X5135985Y1308975D01*
G01X5157427Y1296595D01*
G01X5180474Y1287550D01*
G01X5204612Y1282041D01*
G01X5229301Y1280190D01*
G01X5229301Y1280190D01*
G01X5253991Y1282041D01*
G01X5278128Y1287550D01*
G01X5301176Y1296595D01*
G01X5322617Y1308975D01*
G01X5341974Y1324411D01*
G01X5358814Y1342561D01*
G01X5372762Y1363017D01*
G01X5383504Y1385324D01*
G01X5390802Y1408983D01*
G01X5394492Y1433465D01*
G01X5394492Y1458224D01*
G01X5390802Y1482706D01*
G01X5383504Y1506364D01*
G01X5372762Y1528671D01*
G01X5358814Y1549128D01*
G01X5341974Y1567277D01*
G01X5322617Y1582714D01*
G01X5301176Y1595093D01*
G01X5278128Y1604138D01*
G01X5253991Y1609648D01*
G01X5229301Y1611498D01*
G01X5204612Y1609648D01*
G01X5180474Y1604138D01*
G01X5157427Y1595093D01*
G01X5135985Y1582714D01*
G01X5116628Y1567277D01*
G01X5099788Y1549128D01*
G01X5085841Y1528671D01*
G01X5075099Y1506364D01*
G01X5067801Y1482706D01*
G01X5064111Y1458224D01*
G01X5018417Y1458224D01*
G01X5014897Y1482134D01*
G01X5006889Y1508749D01*
G01X4995090Y1533914D01*
G01X4979753Y1557093D01*
G01X4979753Y1864695D01*
G01X4981739Y1884857D01*
G01X4987620Y1904244D01*
G01X4997170Y1922111D01*
G01X5010022Y1937772D01*
G01X5239134Y2166883D01*
G01X5265802Y2196307D01*
G01X5289458Y2228203D01*
G01X5309873Y2262264D01*
G01X5326852Y2298162D01*
G01X5340230Y2335552D01*
G01X5349879Y2374073D01*
G01X5355705Y2413354D01*
G01X5357654Y2453017D01*
G01X5357654Y2709436D01*
G01X5355757Y2748569D01*
G01X5350085Y2787337D01*
G01X5340690Y2825373D01*
G01X5327660Y2862323D01*
G01X5311118Y2897840D01*
G01X5291219Y2931590D01*
G01X5268149Y2963258D01*
G01X5242125Y2992546D01*
G01X5213390Y3019180D01*
G01X5182214Y3042911D01*
G01X5148889Y3063515D01*
G01X5113728Y3080800D01*
G01X5077060Y3094603D01*
G01X5039230Y3104795D01*
G01X5000590Y3111281D01*
G01X4961505Y3114000D01*
G01X4977909Y3132300D01*
G01X4991426Y3152825D01*
G01X5001757Y3175123D01*
G01X5008676Y3198705D01*
G01X5012029Y3223052D01*
G01X5011744Y3247626D01*
G01X5007826Y3271887D01*
G01X5000361Y3295302D01*
G01X4989515Y3317355D01*
G01X4975525Y3337561D01*
G01X4958700Y3355474D01*
G01X4939410Y3370701D01*
G01X4918079Y3382907D01*
G01X4895177Y3391822D01*
G01X4871208Y3397251D01*
G01X4846700Y3399074D01*
G01X4576700Y3399074D01*
G01X4552200Y3397252D01*
G01X4528238Y3391827D01*
G01X4505343Y3382917D01*
G01X4484017Y3370719D01*
G01X4464730Y3355502D01*
G01X4447905Y3337598D01*
G01X4433914Y3317404D01*
G01X4423063Y3295362D01*
G01X4415591Y3271958D01*
G01X4411663Y3247706D01*
G01X4411365Y3223140D01*
G01X4414704Y3198800D01*
G01X4421606Y3175222D01*
G01X4431919Y3152923D01*
G01X4445417Y3132395D01*
G01X4461802Y3114090D01*
G01X3883152Y3114090D01*
G01X3848360Y3112591D01*
G01X3813826Y3108107D01*
G01X3779806Y3100670D01*
G01X3779806Y3718052D01*
G01X3780966Y3729350D01*
G01X3784398Y3740176D01*
G01X3789959Y3750080D01*
G01X3797416Y3758646D01*
G01X3970400Y3758646D01*
G01X3995624Y3760578D01*
G01X4020259Y3766328D01*
G01X4043732Y3775761D01*
G01X4065494Y3788660D01*
G01X4085039Y3804721D01*
G01X4101910Y3823571D01*
G01X4115714Y3844770D01*
G01X4126130Y3867824D01*
G01X4132913Y3892195D01*
G01X4135907Y3917315D01*
G01X4135040Y3942598D01*
G01X4130334Y3967454D01*
G01X4121898Y3991304D01*
G01X4109929Y4013590D01*
G01X4094706Y4033795D01*
G01X4076584Y4051446D01*
G01X4470516Y4051446D01*
G01X4452394Y4033795D01*
G01X4437171Y4013590D01*
G01X4425202Y3991304D01*
G01X4416766Y3967454D01*
G01X4412060Y3942598D01*
G01X4411193Y3917315D01*
G01X4414187Y3892195D01*
G01X4420970Y3867824D01*
G01X4431386Y3844770D01*
G01X4445190Y3823571D01*
G01X4462061Y3804721D01*
G01X4481606Y3788660D01*
G01X4503368Y3775761D01*
G01X4526841Y3766328D01*
G01X4551476Y3760578D01*
G01X4576700Y3758646D01*
G01X4648346Y3758646D01*
G01X4648346Y3744514D01*
G01X4576700Y3744514D01*
G01X4552011Y3742664D01*
G01X4527873Y3737154D01*
G01X4504825Y3728109D01*
G01X4483384Y3715730D01*
G01X4464027Y3700293D01*
G01X4447187Y3682144D01*
G01X4433239Y3661687D01*
G01X4422497Y3639380D01*
G01X4415199Y3615721D01*
G01X4411509Y3591239D01*
G01X4411509Y3566481D01*
G01X4415199Y3541999D01*
G01X4422497Y3518340D01*
G01X4433239Y3496033D01*
G01X4447187Y3475576D01*
G01X4464027Y3457427D01*
G01X4483384Y3441990D01*
G01X4504825Y3429611D01*
G01X4527873Y3420566D01*
G01X4552011Y3415056D01*
G01X4576700Y3413206D01*
G01X4846700Y3413206D01*
G01X4871389Y3415056D01*
G01X4895527Y3420566D01*
G01X4918575Y3429611D01*
G01X4940016Y3441990D01*
G01X4959373Y3457427D01*
G01X4976213Y3475576D01*
G01X4990161Y3496033D01*
G01X5000903Y3518340D01*
G01X5008201Y3541999D01*
G01X5011891Y3566481D01*
G01X5011891Y3591239D01*
G01X5008201Y3615721D01*
G01X5000903Y3639380D01*
G01X4990161Y3661687D01*
G01X4976213Y3682144D01*
G01X4959373Y3700293D01*
G01X4940016Y3715730D01*
G01X4918575Y3728109D01*
G01X4895527Y3737154D01*
G01X4871389Y3742664D01*
G01X4846700Y3744514D01*
G01X4775054Y3744514D01*
G01X4775054Y3758646D01*
G01X4846700Y3758646D01*
G01X4871924Y3760578D01*
G01X4896559Y3766328D01*
G01X4920032Y3775761D01*
G01X4941794Y3788660D01*
G01X4961339Y3804721D01*
G01X4978210Y3823571D01*
G01X4992014Y3844770D01*
G01X5002430Y3867824D01*
G01X5009213Y3892195D01*
G01X5012207Y3917315D01*
G01X5011340Y3942598D01*
G01X5006634Y3967454D01*
G01X4998198Y3991304D01*
G01X4986229Y4013590D01*
G01X4971006Y4033795D01*
G01X4952884Y4051446D01*
G01X5239442Y4051446D01*
G01X5283969Y4049604D01*
G01X5328192Y4044092D01*
G01X5371809Y4034947D01*
G01X5414522Y4022231D01*
G01X5456038Y4006031D01*
G01X5496075Y3986458D01*
G01X5534359Y3963646D01*
G01X5570628Y3937750D01*
G01X5604635Y3908947D01*
G01X5636147Y3877435D01*
G01X5664950Y3843428D01*
G01X5690846Y3807159D01*
G01X5713658Y3768875D01*
G01X5733231Y3728838D01*
G01X5749431Y3687322D01*
G01X5762147Y3644609D01*
G01X5771292Y3600992D01*
G01X5776804Y3556769D01*
G01X5778646Y3512242D01*
G01X5778646Y3225800D01*
G01X5780383Y3199296D01*
G01X5785565Y3173246D01*
G01X5794103Y3148095D01*
G01X5805850Y3124273D01*
G01X5820606Y3102189D01*
G01X5838119Y3082219D01*
G01X5858089Y3064706D01*
G01X5880173Y3049950D01*
G01X5903995Y3038203D01*
G01X5929146Y3029665D01*
G01X5955196Y3024483D01*
G01X5981700Y3022746D01*
G01X6438900Y3022746D01*
G01X6458079Y3021068D01*
G01X6476675Y3016085D01*
G01X6494123Y3007949D01*
G01X6509893Y2996907D01*
G01X6523507Y2983293D01*
G01X6534549Y2967523D01*
G01X6542685Y2950075D01*
G01X6547668Y2931479D01*
G01X6549346Y2912300D01*
G01X6549346Y2779954D01*
G01X6532016Y2795769D01*
G01X6512625Y2808977D01*
G01X6491563Y2819313D01*
G01X6469252Y2826570D01*
G01X6446139Y2830602D01*
G01X6422689Y2831328D01*
G01X6399371Y2828734D01*
G01X6376653Y2822872D01*
G01X6354992Y2813859D01*
G01X6316207Y2807519D01*
G01X6278220Y2797447D01*
G01X6241390Y2783738D01*
G01X6206063Y2766521D01*
G01X6172573Y2745957D01*
G01X6141235Y2722243D01*
G01X6112345Y2695600D01*
G01X6086177Y2666280D01*
G01X6062975Y2634560D01*
G01X6042961Y2600740D01*
G01X6026321Y2565137D01*
G01X6013213Y2528088D01*
G01X6003761Y2489942D01*
G01X5998054Y2451059D01*
G01X5996146Y2411806D01*
G01X5996146Y876300D01*
G01X5994160Y856138D01*
G01X5988279Y836751D01*
G01X5978729Y818884D01*
G01X5965877Y803223D01*
G01X5950216Y790371D01*
G01X5932349Y780821D01*
G01X5912962Y774940D01*
G01X5892800Y772954D01*
G01X4054910Y772954D01*
G01X4054910Y772954D01*
G01X4015247Y771005D01*
G01X3975966Y765179D01*
G01X3937446Y755530D01*
G01X3900056Y742152D01*
G01X3864158Y725173D01*
G01X3830097Y704758D01*
G01X3798201Y681102D01*
G01X3768777Y654434D01*
G01X3447666Y333323D01*
G01X3432006Y320471D01*
G01X3414139Y310921D01*
G01X3394752Y305040D01*
G01X3374590Y303054D01*
G01X2819231Y303054D01*
G01X2817831Y329224D01*
G01X2812850Y354953D01*
G01X2804382Y379754D01*
G01X2792588Y403158D01*
G01X2777691Y424719D01*
G01X2759974Y444031D01*
G01X2739773Y460725D01*
G01X2717470Y474487D01*
G01X2693488Y485055D01*
G01X2668282Y492229D01*
G01X2642329Y495873D01*
G01X2616122Y495918D01*
G01X2590157Y492363D01*
G01X2564927Y485276D01*
G01X2540909Y474790D01*
G01X2518559Y461105D01*
G01X2498300Y444480D01*
G01X2480517Y425229D01*
G01X2465546Y403719D01*
G01X2453672Y380356D01*
G01X2445119Y355584D01*
G01X2440050Y329872D01*
G01X2438560Y303707D01*
G01X2440678Y277586D01*
G01X2446363Y252003D01*
G01X2455509Y227443D01*
G01X2467941Y204373D01*
G01X2483424Y183228D01*
G01X2501665Y164411D01*
G01X2522317Y148277D01*
G01X2541128Y120767D01*
G01X2562835Y95479D01*
G01X2587177Y72717D01*
G01X2613863Y52754D01*
G01X924079Y52754D01*
G01X896812Y53892D01*
G01X869734Y57297D01*
G01X843034Y62946D01*
G01X1112900Y62946D01*
G01X1137589Y64796D01*
G01X1161727Y70306D01*
G01X1184775Y79351D01*
G01X1206216Y91730D01*
G01X1225573Y107167D01*
G01X1242413Y125316D01*
G01X1256361Y145773D01*
G01X1267103Y168080D01*
G01X1274401Y191739D01*
G01X1278091Y216221D01*
G01X1278091Y240979D01*
G01X1274401Y265461D01*
G01X1267103Y289120D01*
G01X1256361Y311427D01*
G01X1242413Y331884D01*
G01X1225573Y350033D01*
G01X1206216Y365470D01*
G01X1184775Y377849D01*
G01X1161727Y386894D01*
G01X1137589Y392404D01*
G01X1112900Y394254D01*
G01X842900Y394254D01*
G01X817480Y392292D01*
G01X792662Y386452D01*
G01X769034Y376874D01*
G01X747156Y363782D01*
G01X727546Y347489D01*
G01X710668Y328379D01*
G01X696923Y306906D01*
G01X686635Y283578D01*
G01X680050Y258948D01*
G01X677321Y233598D01*
G01X678516Y208131D01*
G01X683604Y183148D01*
G01X692465Y159241D01*
G01X704890Y136978D01*
G01X680699Y161201D01*
G01X659169Y187817D01*
G01X640538Y216537D01*
G01X625007Y247046D01*
G01X612749Y279009D01*
G01X603895Y312079D01*
G01X598544Y345892D01*
G01X596754Y380079D01*
G01X596754Y1066031D01*
G01X596754Y1066031D01*
G01X607289Y1032757D01*
G01X620722Y1000544D01*
G01X636949Y969644D01*
G01X655842Y940298D01*
G01X677254Y912736D01*
G01X679526Y887008D01*
G01X685770Y861946D01*
G01X695834Y838159D01*
G01X709472Y816225D01*
G01X726355Y796678D01*
G01X746070Y779993D01*
G01X768140Y766575D01*
G01X792027Y756751D01*
G01X817150Y750760D01*
G01X842900Y748746D01*
G01X1112900Y748746D01*
G01X1137873Y750639D01*
G01X1162275Y756276D01*
G01X1185549Y765526D01*
G01X1207162Y778180D01*
G01X1226620Y793947D01*
G01X1243479Y812467D01*
G01X1257354Y833318D01*
G01X1267926Y856022D01*
G01X1274955Y880060D01*
G01X1278280Y904883D01*
G01X1277825Y929923D01*
G01X1273600Y954609D01*
G01X1265702Y978376D01*
G01X1254311Y1000680D01*
G01X1239688Y1021012D01*
G01X1222166Y1038907D01*
G01X1202148Y1053957D01*
G01X1180089Y1065816D01*
G01X1186896Y1065455D01*
G01X1198568Y1064970D01*
G01X1217114Y1063375D01*
G01X1235114Y1058635D01*
G01X1252040Y1050890D01*
G01X1267395Y1040369D01*
G01X1280727Y1027379D01*
G01X1291644Y1012303D01*
G01X1299826Y995584D01*
G01X1305300Y976327D01*
G01X1307146Y956392D01*
G01X1307146Y746789D01*
G01X1305598Y736550D01*
G01X1301092Y727227D01*
G01X1294031Y719652D01*
G01X1285047Y714502D01*
G01X1274942Y712239D01*
G01X1272510Y712154D01*
G01X1200408Y712154D01*
G01X1180056Y722931D01*
G01X1158405Y730781D01*
G01X1135874Y735553D01*
G01X1112900Y737154D01*
G01X842900Y737154D01*
G01X818211Y735304D01*
G01X794073Y729794D01*
G01X771025Y720749D01*
G01X749584Y708370D01*
G01X730227Y692933D01*
G01X713387Y674784D01*
G01X699439Y654327D01*
G01X688697Y632020D01*
G01X681399Y608361D01*
G01X677709Y583879D01*
G01X677709Y559121D01*
G01X681399Y534639D01*
G01X688697Y510980D01*
G01X699439Y488673D01*
G01X713387Y468216D01*
G01X730227Y450067D01*
G01X749584Y434630D01*
G01X771025Y422251D01*
G01X794073Y413206D01*
G01X818211Y407696D01*
G01X842900Y405846D01*
G01X1112900Y405846D01*
G01X1135874Y407447D01*
G01X1158405Y412219D01*
G01X1180056Y420069D01*
G01X1200408Y430846D01*
G01X1272512Y430846D01*
G01X1272512Y430846D01*
G01X1294698Y431626D01*
G01X1294698Y431626D01*
G01X1328285Y435808D01*
G01X1361232Y443559D01*
G01X1393161Y454790D01*
G01X1423705Y469372D01*
G01X1452514Y487138D01*
G01X1476821Y505993D01*
G01X1838547Y505993D01*
G01X1840485Y478903D01*
G01X1846258Y452364D01*
G01X1855749Y426918D01*
G01X1868765Y403080D01*
G01X1885041Y381338D01*
G01X1904246Y362133D01*
G01X1925988Y345857D01*
G01X1949825Y332841D01*
G01X1975272Y323350D01*
G01X2001811Y317577D01*
G01X2028901Y315639D01*
G01X2055991Y317577D01*
G01X2082530Y323350D01*
G01X2107977Y332841D01*
G01X2131814Y345857D01*
G01X2153557Y362133D01*
G01X2172761Y381338D01*
G01X2189037Y403080D01*
G01X2202053Y426918D01*
G01X2211544Y452364D01*
G01X2217318Y478903D01*
G01X2219255Y505993D01*
G01X2217318Y533084D01*
G01X2211544Y559622D01*
G01X2202053Y585069D01*
G01X2189037Y608907D01*
G01X2172761Y630649D01*
G01X2153557Y649853D01*
G01X2131814Y666129D01*
G01X2107977Y679145D01*
G01X2082530Y688637D01*
G01X2055991Y694410D01*
G01X2028901Y696347D01*
G01X2028901Y696347D01*
G01X2001811Y694410D01*
G01X1975272Y688637D01*
G01X1949825Y679145D01*
G01X1925988Y666129D01*
G01X1904246Y649853D01*
G01X1885041Y630649D01*
G01X1868765Y608907D01*
G01X1855749Y585069D01*
G01X1846258Y559622D01*
G01X1840485Y533084D01*
G01X1838547Y505993D01*
G01X1476821Y505993D01*
G01X1479257Y507883D01*
G01X1503628Y531371D01*
G01X1525346Y557330D01*
G01X1544162Y585464D01*
G01X1559861Y615450D01*
G01X1572262Y646943D01*
G01X1581223Y679581D01*
G01X1586641Y712991D01*
G01X1588454Y746789D01*
G01X1588454Y956392D01*
G01X1588454Y956392D01*
G01X1586793Y992337D01*
G01X1581826Y1027975D01*
G01X1573595Y1063004D01*
G01X1562169Y1097124D01*
G01X1562169Y1097124D01*
G01X1549274Y1126734D01*
G01X1533973Y1155174D01*
G01X1516371Y1182251D01*
G01X1496588Y1207778D01*
G01X1474761Y1231580D01*
G01X1499450Y1214872D01*
G01X1526127Y1201564D01*
G01X1554325Y1191889D01*
G01X1583553Y1186015D01*
G01X1613300Y1184046D01*
G01X1663300Y1184046D01*
G01X1692754Y1185977D01*
G01X1721703Y1191735D01*
G01X1749654Y1201223D01*
G01X1776127Y1214278D01*
G01X1800669Y1230677D01*
G01X1822861Y1250139D01*
G01X1842323Y1272331D01*
G01X1858722Y1296873D01*
G01X1871777Y1323346D01*
G01X1881265Y1351296D01*
G01X1887023Y1380246D01*
G01X1888954Y1409700D01*
G01X1887023Y1439154D01*
G01X1886708Y1440740D01*
G01X3438747Y1440740D01*
G01X3440685Y1413650D01*
G01X3446458Y1387111D01*
G01X3455949Y1361664D01*
G01X3468965Y1337827D01*
G01X3485241Y1316085D01*
G01X3504446Y1296880D01*
G01X3526188Y1280604D01*
G01X3550025Y1267588D01*
G01X3575472Y1258097D01*
G01X3602011Y1252324D01*
G01X3629101Y1250386D01*
G01X3656191Y1252324D01*
G01X3682730Y1258097D01*
G01X3708177Y1267588D01*
G01X3732014Y1280604D01*
G01X3753757Y1296880D01*
G01X3772961Y1316085D01*
G01X3789237Y1337827D01*
G01X3802253Y1361664D01*
G01X3811744Y1387111D01*
G01X3817518Y1413650D01*
G01X3819455Y1440740D01*
G01X3817518Y1467830D01*
G01X3811744Y1494369D01*
G01X3802253Y1519816D01*
G01X3789237Y1543653D01*
G01X3772961Y1565395D01*
G01X3753757Y1584600D01*
G01X3732014Y1600876D01*
G01X3708177Y1613892D01*
G01X3682730Y1623383D01*
G01X3656191Y1629156D01*
G01X3629101Y1631094D01*
G01X3629101Y1631094D01*
G01X3602011Y1629156D01*
G01X3575472Y1623383D01*
G01X3550025Y1613892D01*
G01X3526188Y1600876D01*
G01X3504446Y1584600D01*
G01X3485241Y1565395D01*
G01X3468965Y1543653D01*
G01X3455949Y1519816D01*
G01X3446458Y1494369D01*
G01X3440685Y1467830D01*
G01X3438747Y1440740D01*
G01X1886708Y1440740D01*
G01X1881265Y1468104D01*
G01X1871777Y1496054D01*
G01X1858722Y1522527D01*
G01X1842323Y1547069D01*
G01X1822861Y1569261D01*
G01X1800669Y1588723D01*
G01X1776127Y1605122D01*
G01X1749654Y1618177D01*
G01X1721703Y1627665D01*
G01X1692754Y1633423D01*
G01X1663300Y1635354D01*
G01X1613300Y1635354D01*
G01X1584288Y1633481D01*
G01X1555757Y1627894D01*
G01X1528182Y1618685D01*
G01X1502019Y1606007D01*
G01X1477704Y1590070D01*
G01X1455639Y1571140D01*
G01X1436192Y1549530D01*
G01X1419684Y1525598D01*
G01X1406390Y1499743D01*
G01X1396530Y1472394D01*
G01X1390269Y1444004D01*
G01X1387709Y1415044D01*
G01X1388895Y1385995D01*
G01X1393805Y1357341D01*
G01X1402358Y1329555D01*
G01X1414413Y1303099D01*
G01X1429769Y1278413D01*
G01X1448172Y1255907D01*
G01X1417957Y1278695D01*
G01X1385675Y1298447D01*
G01X1351631Y1314977D01*
G01X1316144Y1328127D01*
G01X1279549Y1337775D01*
G01X1242191Y1343830D01*
G01X1204422Y1346234D01*
G01X1177489Y1347154D01*
G01X1173421Y1348244D01*
G01X1170444Y1351222D01*
G01X1169354Y1355290D01*
G01X1169354Y1726006D01*
G01X1838598Y1726006D01*
G01X1840536Y1698916D01*
G01X1846309Y1672377D01*
G01X1855800Y1646930D01*
G01X1868816Y1623093D01*
G01X1885092Y1601351D01*
G01X1904297Y1582146D01*
G01X1926039Y1565870D01*
G01X1949876Y1552854D01*
G01X1975323Y1543363D01*
G01X2001862Y1537590D01*
G01X2028952Y1535652D01*
G01X2056042Y1537590D01*
G01X2082581Y1543363D01*
G01X2108028Y1552854D01*
G01X2131865Y1565870D01*
G01X2153607Y1582146D01*
G01X2172812Y1601351D01*
G01X2189088Y1623093D01*
G01X2202104Y1646930D01*
G01X2211595Y1672377D01*
G01X2217368Y1698916D01*
G01X2219306Y1726006D01*
G01X3038494Y1726006D01*
G01X3040432Y1698916D01*
G01X3046205Y1672377D01*
G01X3055696Y1646930D01*
G01X3068712Y1623093D01*
G01X3084988Y1601351D01*
G01X3104193Y1582146D01*
G01X3125935Y1565870D01*
G01X3149772Y1552854D01*
G01X3175219Y1543363D01*
G01X3201758Y1537590D01*
G01X3228848Y1535652D01*
G01X3255938Y1537590D01*
G01X3282477Y1543363D01*
G01X3307924Y1552854D01*
G01X3331761Y1565870D01*
G01X3353503Y1582146D01*
G01X3372708Y1601351D01*
G01X3388984Y1623093D01*
G01X3402000Y1646930D01*
G01X3411491Y1672377D01*
G01X3417264Y1698916D01*
G01X3419202Y1726006D01*
G01X3417264Y1753096D01*
G01X3411491Y1779635D01*
G01X3402000Y1805082D01*
G01X3388984Y1828919D01*
G01X3372708Y1850662D01*
G01X3353503Y1869866D01*
G01X3331761Y1886142D01*
G01X3307924Y1899158D01*
G01X3282477Y1908649D01*
G01X3255938Y1914423D01*
G01X3228848Y1916360D01*
G01X3228848Y1916360D01*
G01X3201758Y1914423D01*
G01X3175219Y1908649D01*
G01X3149772Y1899158D01*
G01X3125935Y1886142D01*
G01X3104193Y1869866D01*
G01X3084988Y1850662D01*
G01X3068712Y1828919D01*
G01X3055696Y1805082D01*
G01X3046205Y1779635D01*
G01X3040432Y1753096D01*
G01X3038494Y1726006D01*
G01X2219306Y1726006D01*
G01X2219306Y1726006D01*
G01X2217368Y1753096D01*
G01X2211595Y1779635D01*
G01X2202104Y1805082D01*
G01X2189088Y1828919D01*
G01X2172812Y1850662D01*
G01X2153607Y1869866D01*
G01X2131865Y1886142D01*
G01X2108028Y1899158D01*
G01X2082581Y1908649D01*
G01X2056042Y1914423D01*
G01X2028952Y1916360D01*
G01X2028952Y1916360D01*
G01X2001862Y1914423D01*
G01X1975323Y1908649D01*
G01X1949876Y1899158D01*
G01X1926039Y1886142D01*
G01X1904297Y1869866D01*
G01X1885092Y1850662D01*
G01X1868816Y1828919D01*
G01X1855800Y1805082D01*
G01X1846309Y1779635D01*
G01X1840536Y1753096D01*
G01X1838598Y1726006D01*
G01X1169354Y1726006D01*
G01X1169354Y1816238D01*
G01X1202871Y1820825D01*
G01X1235713Y1828941D01*
G01X1267509Y1840495D01*
G01X1297900Y1855357D01*
G01X1326542Y1873359D01*
G01X1353113Y1894298D01*
G01X1377313Y1917938D01*
G01X1398869Y1944011D01*
G01X1417537Y1972224D01*
G01X1433107Y2002258D01*
G01X1445403Y2033774D01*
G01X1454287Y2066417D01*
G01X1459657Y2099818D01*
G01X1461454Y2133600D01*
G01X1461454Y2261794D01*
G01X2438546Y2261794D01*
G01X2440484Y2234704D01*
G01X2446257Y2208165D01*
G01X2455748Y2182718D01*
G01X2468764Y2158881D01*
G01X2485040Y2137138D01*
G01X2504245Y2117934D01*
G01X2525987Y2101658D01*
G01X2549824Y2088642D01*
G01X2575271Y2079151D01*
G01X2601810Y2073377D01*
G01X2628900Y2071440D01*
G01X2655990Y2073377D01*
G01X2682529Y2079151D01*
G01X2707976Y2088642D01*
G01X2731813Y2101658D01*
G01X2753555Y2117934D01*
G01X2772760Y2137138D01*
G01X2789036Y2158881D01*
G01X2802052Y2182718D01*
G01X2811543Y2208165D01*
G01X2817316Y2234704D01*
G01X2819254Y2261794D01*
G01X2817316Y2288884D01*
G01X2811543Y2315423D01*
G01X2802052Y2340870D01*
G01X2789036Y2364707D01*
G01X2772760Y2386449D01*
G01X2753555Y2405654D01*
G01X2731813Y2421930D01*
G01X2707976Y2434946D01*
G01X2682529Y2444437D01*
G01X2655990Y2450210D01*
G01X2628900Y2452148D01*
G01X2628900Y2452148D01*
G01X2601810Y2450210D01*
G01X2575271Y2444437D01*
G01X2549824Y2434946D01*
G01X2525987Y2421930D01*
G01X2504245Y2405654D01*
G01X2485040Y2386449D01*
G01X2468764Y2364707D01*
G01X2455748Y2340870D01*
G01X2446257Y2315423D01*
G01X2440484Y2288884D01*
G01X2438546Y2261794D01*
G01X1461454Y2261794D01*
G01X1461454Y2474224D01*
G01X1463508Y2474224D01*
G01X1463508Y2449465D01*
G01X1467198Y2424983D01*
G01X1474496Y2401324D01*
G01X1485238Y2379017D01*
G01X1499186Y2358561D01*
G01X1516026Y2340411D01*
G01X1535383Y2324975D01*
G01X1556824Y2312595D01*
G01X1579872Y2303550D01*
G01X1604009Y2298041D01*
G01X1628699Y2296190D01*
G01X1628699Y2296190D01*
G01X1653388Y2298041D01*
G01X1677526Y2303550D01*
G01X1700573Y2312595D01*
G01X1722015Y2324975D01*
G01X1741372Y2340411D01*
G01X1758212Y2358561D01*
G01X1772159Y2379017D01*
G01X1782901Y2401324D01*
G01X1790199Y2424983D01*
G01X1793889Y2449465D01*
G01X1793889Y2461793D01*
G01X1838547Y2461793D01*
G01X1840485Y2434703D01*
G01X1846258Y2408164D01*
G01X1855749Y2382718D01*
G01X1868765Y2358880D01*
G01X1885041Y2337138D01*
G01X1904246Y2317933D01*
G01X1925988Y2301657D01*
G01X1949825Y2288641D01*
G01X1975272Y2279150D01*
G01X2001811Y2273377D01*
G01X2028901Y2271439D01*
G01X2055991Y2273377D01*
G01X2082530Y2279150D01*
G01X2107977Y2288641D01*
G01X2131814Y2301657D01*
G01X2153557Y2317933D01*
G01X2172761Y2337138D01*
G01X2189037Y2358880D01*
G01X2202053Y2382718D01*
G01X2211544Y2408164D01*
G01X2217318Y2434703D01*
G01X2219255Y2461793D01*
G01X2217318Y2488884D01*
G01X2211544Y2515422D01*
G01X2202053Y2540869D01*
G01X2189037Y2564707D01*
G01X2172761Y2586449D01*
G01X2153557Y2605653D01*
G01X2131814Y2621929D01*
G01X2107977Y2634945D01*
G01X2082530Y2644437D01*
G01X2055991Y2650210D01*
G01X2028901Y2652147D01*
G01X2028901Y2652147D01*
G01X2001811Y2650210D01*
G01X1975272Y2644437D01*
G01X1949825Y2634945D01*
G01X1925988Y2621929D01*
G01X1904246Y2605653D01*
G01X1885041Y2586449D01*
G01X1868765Y2564707D01*
G01X1855749Y2540869D01*
G01X1846258Y2515422D01*
G01X1840485Y2488884D01*
G01X1838547Y2461793D01*
G01X1793889Y2461793D01*
G01X1793889Y2474224D01*
G01X1790199Y2498706D01*
G01X1782901Y2522364D01*
G01X1772159Y2544671D01*
G01X1758212Y2565128D01*
G01X1741372Y2583277D01*
G01X1722015Y2598714D01*
G01X1700573Y2611093D01*
G01X1677526Y2620138D01*
G01X1653388Y2625648D01*
G01X1628699Y2627498D01*
G01X1604009Y2625648D01*
G01X1579872Y2620138D01*
G01X1556824Y2611093D01*
G01X1535383Y2598714D01*
G01X1516026Y2583277D01*
G01X1499186Y2565128D01*
G01X1485238Y2544671D01*
G01X1474496Y2522364D01*
G01X1467198Y2498706D01*
G01X1463508Y2474224D01*
G01X1461454Y2474224D01*
G01X1461454Y2806700D01*
G01X1463176Y2826382D01*
G01X1468290Y2845467D01*
G01X1476639Y2863373D01*
G01X1487972Y2879557D01*
G01X1501943Y2893528D01*
G01X1518127Y2904861D01*
G01X1536033Y2913210D01*
G01X1555118Y2918324D01*
G01X1574800Y2920046D01*
G01X2974848Y2920046D01*
G01X3013531Y2921946D01*
G01X3051841Y2927629D01*
G01X3089410Y2937040D01*
G01X3125876Y2950087D01*
G01X3160887Y2966646D01*
G01X3194106Y2986557D01*
G01X3225214Y3009628D01*
G01X3253910Y3035638D01*
G01X3279920Y3064334D01*
G01X3302991Y3095442D01*
G01X3322902Y3128661D01*
G01X3339461Y3163672D01*
G01X3352508Y3200138D01*
G01X3361919Y3237707D01*
G01X3367602Y3276017D01*
G01X3369502Y3314700D01*
G01X3369502Y3553544D01*
G01X3386493Y3575117D01*
G01X3400204Y3598909D01*
G01X3410348Y3624427D01*
G01X3416715Y3651139D01*
G01X3419173Y3678489D01*
G01X3417670Y3705908D01*
G01X3412237Y3732825D01*
G01X3402988Y3758681D01*
G01X3390115Y3782937D01*
G01X3373886Y3805088D01*
G01X3354639Y3824674D01*
G01X3332774Y3841287D01*
G01X3308746Y3854580D01*
G01X3283055Y3864279D01*
G01X3256237Y3870179D01*
G01X3228848Y3872160D01*
G01X3201459Y3870179D01*
G01X3174641Y3864279D01*
G01X3148950Y3854580D01*
G01X3124922Y3841287D01*
G01X3103057Y3824674D01*
G01X3083810Y3805088D01*
G01X3067581Y3782937D01*
G01X3054708Y3758681D01*
G01X3045459Y3732825D01*
G01X3040026Y3705908D01*
G01X3038523Y3678489D01*
G01X3040981Y3651139D01*
G01X3047348Y3624427D01*
G01X3057492Y3598909D01*
G01X3071203Y3575117D01*
G01X3088194Y3553544D01*
G01X3088194Y3314700D01*
G01X3086472Y3295018D01*
G01X3081358Y3275933D01*
G01X3073009Y3258027D01*
G01X3061676Y3241843D01*
G01X3047705Y3227872D01*
G01X3031521Y3216539D01*
G01X3013615Y3208190D01*
G01X2994530Y3203076D01*
G01X2974848Y3201354D01*
G01X1813710Y3201354D01*
G01X1813710Y3201354D01*
G01X1851703Y3206981D01*
G01X1888969Y3216275D01*
G01X1925155Y3229147D01*
G01X1959919Y3245476D01*
G01X1992931Y3265106D01*
G01X2023878Y3287853D01*
G01X2052468Y3313499D01*
G01X2078429Y3341804D01*
G01X2101516Y3372498D01*
G01X2121510Y3405291D01*
G01X2138222Y3439872D01*
G01X2151494Y3475913D01*
G01X2161199Y3513075D01*
G01X2167246Y3551003D01*
G01X2167246Y3551003D01*
G01X2184543Y3572143D01*
G01X2198637Y3595541D01*
G01X2209236Y3620715D01*
G01X2216124Y3647147D01*
G01X2219158Y3674292D01*
G01X2218275Y3701593D01*
G01X2213494Y3728486D01*
G01X2204913Y3754417D01*
G01X2192709Y3778854D01*
G01X2177133Y3801292D01*
G01X2158506Y3821271D01*
G01X2137212Y3838377D01*
G01X2113688Y3852260D01*
G01X2088420Y3862633D01*
G01X2061927Y3869282D01*
G01X2034755Y3872072D01*
G01X2034755Y3872072D01*
G01X2007464Y3870943D01*
G01X1980615Y3865921D01*
G01X1954761Y3857107D01*
G01X1930435Y3844684D01*
G01X1908138Y3828907D01*
G01X1888328Y3810101D01*
G01X1871414Y3788654D01*
G01X1857743Y3765006D01*
G01X1847598Y3739645D01*
G01X1841187Y3713094D01*
G01X1838642Y3685898D01*
G01X1840016Y3658618D01*
G01X1845280Y3631815D01*
G01X1854325Y3606042D01*
G01X1866967Y3581829D01*
G01X1882944Y3559674D01*
G01X1875019Y3540865D01*
G01X1863850Y3523783D01*
G01X1849798Y3508980D01*
G01X1833319Y3496937D01*
G01X1814948Y3488045D01*
G01X1795279Y3482592D01*
G01X1774952Y3480754D01*
G01X977900Y3480754D01*
G01X939217Y3478854D01*
G01X900907Y3473171D01*
G01X863338Y3463760D01*
G01X826872Y3450713D01*
G01X791861Y3434154D01*
G01X758642Y3414243D01*
G01X727534Y3391172D01*
G01X698838Y3365162D01*
G01X672828Y3336466D01*
G01X649757Y3305358D01*
G01X629846Y3272139D01*
G01X613287Y3237128D01*
G01X600240Y3200662D01*
G01X590829Y3163093D01*
G01X585146Y3124783D01*
G01X583246Y3086100D01*
G01X583246Y2521485D01*
G37*
G36*
G01X864554Y2239496D02*
G01X869838Y2214848D01*
G01X878800Y2191288D01*
G01X891233Y2169360D01*
G01X906850Y2149572D01*
G01X925288Y2132383D01*
G01X946120Y2118191D01*
G01X968865Y2107324D01*
G01X992995Y2100034D01*
G01X1017952Y2096489D01*
G01X1043158Y2096772D01*
G01X1068029Y2100877D01*
G01X1091990Y2108707D01*
G01X1114485Y2120082D01*
G01X1134993Y2134739D01*
G01X1153040Y2152338D01*
G01X1168208Y2172471D01*
G01X1180146Y2194673D01*
G01X1180146Y2133600D01*
G01X1178328Y2122121D01*
G01X1173052Y2111766D01*
G01X1164834Y2103548D01*
G01X1154479Y2098272D01*
G01X1143000Y2096454D01*
G01X1112269Y2094595D01*
G01X1081986Y2089045D01*
G01X1052592Y2079886D01*
G01X1024517Y2067250D01*
G01X998170Y2051323D01*
G01X973934Y2032336D01*
G01X952164Y2010566D01*
G01X933177Y1986330D01*
G01X917250Y1959983D01*
G01X904614Y1931908D01*
G01X895455Y1902514D01*
G01X889905Y1872231D01*
G01X888046Y1841500D01*
G01X888046Y1355290D01*
G01X889931Y1322308D01*
G01X895563Y1289755D01*
G01X904867Y1258057D01*
G01X917722Y1227625D01*
G01X933961Y1198856D01*
G01X953373Y1172125D01*
G01X975705Y1147780D01*
G01X1000665Y1126138D01*
G01X1027928Y1107482D01*
G01X1057140Y1092053D01*
G01X1087919Y1080054D01*
G01X906891Y1080054D01*
G01X892314Y1094087D01*
G01X880465Y1110489D01*
G01X871720Y1128736D01*
G01X866360Y1148247D01*
G01X864554Y1168400D01*
G01X864554Y2239496D01*
G37*
G36*
G01X977900Y3199446D02*
G01X1536042Y3199446D01*
G01X1536042Y3199446D01*
G01X1497738Y3193757D01*
G01X1460175Y3184341D01*
G01X1423717Y3171289D01*
G01X1388712Y3154727D01*
G01X1355500Y3134815D01*
G01X1324399Y3111743D01*
G01X1295709Y3085734D01*
G01X1269706Y3057038D01*
G01X1246640Y3025933D01*
G01X1226734Y2992716D01*
G01X1210180Y2957709D01*
G01X1197135Y2921247D01*
G01X1187727Y2883683D01*
G01X1182046Y2845378D01*
G01X1180146Y2806700D01*
G01X1180146Y2328915D01*
G01X1168208Y2351116D01*
G01X1153040Y2371250D01*
G01X1134993Y2388848D01*
G01X1114485Y2403505D01*
G01X1091990Y2414881D01*
G01X1068029Y2422711D01*
G01X1043158Y2426815D01*
G01X1017952Y2427099D01*
G01X992995Y2423554D01*
G01X968865Y2416264D01*
G01X946120Y2405397D01*
G01X925288Y2391204D01*
G01X906850Y2374015D01*
G01X891233Y2354228D01*
G01X878800Y2332300D01*
G01X869838Y2308740D01*
G01X864554Y2284092D01*
G01X864554Y3086100D01*
G01X866276Y3105782D01*
G01X871390Y3124867D01*
G01X879739Y3142773D01*
G01X891072Y3158957D01*
G01X905043Y3172928D01*
G01X921227Y3184261D01*
G01X939133Y3192610D01*
G01X958218Y3197724D01*
G01X977900Y3199446D01*
G37*
G36*
G01X6000000Y52754D02*
G01X3571261Y52754D01*
G01X3603126Y72460D01*
G01X3633032Y95028D01*
G01X3660723Y120266D01*
G01X3981834Y441377D01*
G01X3997494Y454229D01*
G01X4015361Y463779D01*
G01X4034748Y469660D01*
G01X4054910Y471646D01*
G01X5892800Y471646D01*
G01X5932463Y473595D01*
G01X5971744Y479421D01*
G01X6010265Y489070D01*
G01X6047654Y502448D01*
G01X6083553Y519427D01*
G01X6117614Y539842D01*
G01X6149510Y563498D01*
G01X6178934Y590166D01*
G01X6205602Y619590D01*
G01X6229258Y651486D01*
G01X6249673Y685547D01*
G01X6266652Y721446D01*
G01X6280030Y758835D01*
G01X6289679Y797356D01*
G01X6295505Y836637D01*
G01X6297454Y876300D01*
G01X6297454Y1345554D01*
G01X6313241Y1327642D01*
G01X6331439Y1312186D01*
G01X6351670Y1299506D01*
G01X6373513Y1289866D01*
G01X6396516Y1283467D01*
G01X6420199Y1280441D01*
G01X6444071Y1280850D01*
G01X6467637Y1284688D01*
G01X6490406Y1291873D01*
G01X6511906Y1302257D01*
G01X6531690Y1315624D01*
G01X6549346Y1331696D01*
G01X6549346Y602100D01*
G01X6547470Y556735D01*
G01X6541854Y511681D01*
G01X6532536Y467244D01*
G01X6519581Y423728D01*
G01X6503076Y381430D01*
G01X6483135Y340640D01*
G01X6459894Y301636D01*
G01X6433511Y264685D01*
G01X6404167Y230038D01*
G01X6372062Y197933D01*
G01X6337415Y168589D01*
G01X6300464Y142206D01*
G01X6261460Y118965D01*
G01X6220670Y99024D01*
G01X6178372Y82519D01*
G01X6134856Y69564D01*
G01X6090419Y60246D01*
G01X6045365Y54630D01*
G01X6000000Y52754D01*
G37*
G36*
G01X5879954Y3225800D02*
G01X5879954Y3512242D01*
G01X5878057Y3561497D01*
G01X5872379Y3610460D01*
G01X5862952Y3658841D01*
G01X5849832Y3706354D01*
G01X5833098Y3752717D01*
G01X5812848Y3797656D01*
G01X5789202Y3840905D01*
G01X5762301Y3882208D01*
G01X5732302Y3921319D01*
G01X5699386Y3958008D01*
G01X5663745Y3992057D01*
G01X5625591Y4023265D01*
G01X5585151Y4051446D01*
G01X6000000Y4051446D01*
G01X6045365Y4049570D01*
G01X6090419Y4043954D01*
G01X6134856Y4034636D01*
G01X6178372Y4021681D01*
G01X6220670Y4005176D01*
G01X6261460Y3985235D01*
G01X6300464Y3961994D01*
G01X6337415Y3935611D01*
G01X6372062Y3906267D01*
G01X6404167Y3874162D01*
G01X6433511Y3839515D01*
G01X6459894Y3802564D01*
G01X6483135Y3763560D01*
G01X6503076Y3722770D01*
G01X6519581Y3680472D01*
G01X6532536Y3636956D01*
G01X6541854Y3592519D01*
G01X6547470Y3547465D01*
G01X6549346Y3502100D01*
G01X6549346Y3092969D01*
G01X6523603Y3106375D01*
G01X6496269Y3116135D01*
G01X6467856Y3122065D01*
G01X6438900Y3124054D01*
G01X5981700Y3124054D01*
G01X5961850Y3126009D01*
G01X5942763Y3131799D01*
G01X5925173Y3141201D01*
G01X5909755Y3153855D01*
G01X5897101Y3169273D01*
G01X5887699Y3186863D01*
G01X5881909Y3205950D01*
G01X5879954Y3225800D01*
G37*
G36*
G01X6549346Y2551658D02*
G01X6549346Y1559992D01*
G01X6531690Y1576064D01*
G01X6511906Y1589431D01*
G01X6490406Y1599815D01*
G01X6467637Y1607000D01*
G01X6444071Y1610838D01*
G01X6420199Y1611248D01*
G01X6396516Y1608222D01*
G01X6373513Y1601822D01*
G01X6351670Y1592182D01*
G01X6331439Y1579503D01*
G01X6313241Y1564046D01*
G01X6297454Y1546134D01*
G01X6297454Y2411806D01*
G01X6299172Y2430571D01*
G01X6304268Y2448712D01*
G01X6312574Y2465626D01*
G01X6323813Y2480751D01*
G01X6337611Y2493584D01*
G01X6353510Y2503698D01*
G01X6370982Y2510757D01*
G01X6370982Y2510757D01*
G01X6394206Y2503912D01*
G01X6418180Y2500526D01*
G01X6442392Y2500671D01*
G01X6466324Y2504343D01*
G01X6489465Y2511465D01*
G01X6511321Y2521884D01*
G01X6531424Y2535378D01*
G01X6549346Y2551658D01*
G37*
G54D10*
G01X198040Y3876545D02*
G01X198040Y2106406D01*
G03X198207Y2100288I112360J0D01*
G02X50654Y2286000I43093J185712D01*
G01X50654Y3502100D01*
G02X198040Y3876545I549346J0D01*
G01X50654Y2064886D02*
G03X241300Y1994046I190646J221114D01*
G01X330200Y1994046D01*
G02X495446Y1828800I0J-165246D01*
G01X495446Y380079D01*
G03X647340Y52754I428633J0D01*
G01X600000Y52754D01*
G02X50654Y602100I0J549346D01*
G01X50654Y2064886D01*
G01X299348Y2106406D02*
G01X299348Y2358361D01*
G03X583246Y2402203I129353J103484D01*
G01X583246Y1912578D01*
G03X330200Y2095354I-253046J-83778D01*
G01X310400Y2095354D01*
G02X299348Y2106406I0J11052D01*
G01X583246Y2521485D02*
G03X299348Y2565328I-154545J-59641D01*
G01X299348Y3961871D01*
G02X314435Y3971390I300652J-459771D01*
G01X3323554Y3971390D01*
G03X3444049Y4051446I0J130710D01*
G01X3594216Y4051446D01*
G03X3535266Y3911181I106184J-127146D01*
G03X3478498Y3718052I300134J-193129D01*
G01X3478498Y2811407D01*
G01X3427858Y2811407D01*
G03X3112267Y2612231I0J-349613D01*
G03X3166635Y2281910I116632J-150438D01*
G03X3413575Y2507939I62263J179883D01*
G02X3427858Y2510099I14283J-46145D01*
G01X3512799Y2510099D01*
G03X3755669Y2518527I116353J150654D01*
G03X3792336Y2758760I-126517J142226D01*
G02X3883152Y2812782I90816J-49325D01*
G01X4714497Y2812782D01*
G03X4829048Y2470399I114551J-152029D01*
G03X4943599Y2812782I0J190354D01*
G01X4953000Y2812782D01*
G02X5056346Y2709436I0J-103346D01*
G01X5056346Y2453017D01*
G02X5026077Y2379940I-103346J0D01*
G01X4796965Y2150829D01*
G03X4678445Y1864695I286134J-286134D01*
G01X4678445Y1557093D01*
G03X4678445Y1324387I150654J-116353D01*
G01X4678445Y1181100D01*
G02X4575099Y1077754I-103346J0D01*
G01X4327436Y1077754D01*
G03X4229100Y1431094I-98336J162986D01*
G03X4130764Y1077754I0J-190354D01*
G01X3755216Y1077754D01*
G03X3469082Y959234I-0J-404654D01*
G01X3204644Y694796D01*
G03X3094298Y371393I24255J-188802D01*
G03X3417701Y481739I134601J134601D01*
G01X3682139Y746177D01*
G02X3755216Y776446I73077J-73077D01*
G01X4575099Y776446D01*
G03X4979753Y1181100I0J404654D01*
G01X4979753Y1324387D01*
G03X4979753Y1557093I-150654J116353D01*
G01X4979753Y1864695D01*
G02X5010022Y1937772I103346J0D01*
G01X5239134Y2166883D01*
G03X5357654Y2453017I-286134J286134D01*
G01X5357654Y2709436D01*
G03X4961505Y3114000I-404654J0D01*
G03X4846700Y3399074I-114805J119420D01*
G01X4576700Y3399074D01*
G03X4461802Y3114090I0J-165654D01*
G01X3883152Y3114090D01*
G03X3779806Y3100670I0J-404654D01*
G01X3779806Y3718052D01*
G02X3797416Y3758646I55594J0D01*
G01X3970400Y3758646D01*
G03X4076584Y4051446I0J165654D01*
G01X4470516Y4051446D01*
G03X4576700Y3758646I106184J-127146D01*
G01X4648346Y3758646D01*
G01X4648346Y3744514D01*
G01X4576700Y3744514D01*
G03X4576700Y3413206I0J-165654D01*
G01X4846700Y3413206D01*
G03X4846700Y3744514I0J165654D01*
G01X4775054Y3744514D01*
G01X4775054Y3758646D01*
G01X4846700Y3758646D01*
G03X4952884Y4051446I0J165654D01*
G01X5239442Y4051446D01*
G02X5778646Y3512242I0J-539204D01*
G01X5778646Y3225800D01*
G03X5981700Y3022746I203054J0D01*
G01X6438900Y3022746D01*
G02X6549346Y2912300I0J-110446D01*
G01X6549346Y2779954D01*
G03X6354992Y2813859I-120047J-114148D01*
G03X5996146Y2411806I45808J-402053D01*
G01X5996146Y876300D01*
G02X5892800Y772954I-103346J0D01*
G01X4054910Y772954D01*
G03X3768777Y654434I-0J-404654D01*
G01X3447666Y333323D01*
G02X3374590Y303054I-73077J73077D01*
G01X2819231Y303054D01*
G03X2540909Y474790I-190331J2940D01*
G03X2522317Y148277I87991J-168796D01*
G03X2613863Y52754I260177J157717D01*
G01X924079Y52754D01*
G02X843034Y62946I0J327325D01*
G01X1112900Y62946D01*
G03X1112900Y394254I0J165654D01*
G01X842900Y394254D01*
G03X704890Y136978I0J-165654D01*
G02X596754Y380079I219189J243101D01*
G01X596754Y1066031D01*
G03X677254Y912736I381146J102369D01*
G03X842900Y748746I165646J1664D01*
G01X1112900Y748746D01*
G03X1180089Y1065816I0J165654D01*
G02X1186896Y1065455I-2598J-113315D01*
G03X1198568Y1064970I11672J140169D01*
G02X1299826Y995584I0J-108578D01*
G02X1307146Y956392I-101258J-39192D01*
G01X1307146Y746789D01*
G02X1274942Y712239I-34636J1D01*
G01X1272510Y712154D01*
G01X1200408Y712154D01*
G03X1112900Y737154I-87508J-140654D01*
G01X842900Y737154D01*
G03X842900Y405846I0J-165654D01*
G01X1112900Y405846D01*
G03X1200408Y430846I0J165654D01*
G01X1272512Y430846D01*
G03X1294698Y431626I-3J315944D01*
G03X1588454Y746789I-22186J315162D01*
G01X1588454Y956392D01*
G03X1562169Y1097124I-389886J0D01*
G03X1474761Y1231580I-363600J-140732D01*
G03X1613300Y1184046I138539J178120D01*
G01X1663300Y1184046D01*
G03X1663300Y1635354I0J225654D01*
G01X1613300Y1635354D01*
G03X1448172Y1255907I0J-225654D01*
G03X1204422Y1346234I-249604J-299514D01*
G03X1177489Y1347154I-26932J-393733D01*
G02X1169354Y1355290I0J8135D01*
G01X1169354Y1816238D01*
G03X1461454Y2133600I-26354J317362D01*
G01X1461454Y2806700D01*
G02X1574800Y2920046I113346J0D01*
G01X2974848Y2920046D01*
G03X3369502Y3314700I0J394654D01*
G01X3369502Y3553544D01*
G03X3228848Y3872160I-140654J128262D01*
G03X3088194Y3553544I0J-190354D01*
G01X3088194Y3314700D01*
G02X2974848Y3201354I-113346J0D01*
G01X1813710Y3201354D01*
G03X2167246Y3551003I-38758J392746D01*
G03X2034755Y3872072I-138294J130803D01*
G03X1882944Y3559674I-5803J-190265D01*
G02X1774952Y3480754I-107992J34426D01*
G01X977900Y3480754D01*
G03X583246Y3086100I0J-394654D01*
G01X583246Y2521485D01*
G01X1628699Y3516152D02*
G03X1628699Y3847460I0J165654D01*
G03X1628699Y3516152I0J-165654D01*
G01X1628699Y2296190D02*
G03X1628699Y2627498I0J165654D01*
G03X1628699Y2296190I0J-165654D01*
G01X2028901Y696347D02*
G03X2028901Y315639I0J-190354D01*
G03X2028901Y696347I0J190354D01*
G01X2028901Y2652147D02*
G03X2028901Y2271439I0J-190354D01*
G03X2028901Y2652147I0J190354D01*
G01X2028952Y1916360D02*
G03X2028952Y1535652I0J-190354D01*
G03X2028952Y1916360I0J190354D01*
G01X2628900Y2452148D02*
G03X2628900Y2071440I0J-190354D01*
G03X2628900Y2452148I0J190354D01*
G01X3228848Y1916360D02*
G03X3228848Y1535652I0J-190354D01*
G03X3228848Y1916360I0J190354D01*
G01X3629101Y1631094D02*
G03X3629101Y1250386I0J-190354D01*
G03X3629101Y1631094I0J190354D01*
G01X5229301Y1280190D02*
G03X5229301Y1611498I0J165654D01*
G03X5229301Y1280190I0J-165654D01*
G01X5829300Y1080140D02*
G03X5829300Y1411448I0J165654D01*
G03X5829300Y1080140I0J-165654D01*
G01X864554Y2239496D02*
G03X1180146Y2194673I164146J22298D01*
G01X1180146Y2133600D01*
G02X1143000Y2096454I-37146J0D01*
G03X888046Y1841500I0J-254954D01*
G01X888046Y1355290D01*
G03X1087919Y1080054I289444J0D01*
G01X906891Y1080054D01*
G02X864554Y1168400I71009J88346D01*
G01X864554Y2239496D01*
G01X977900Y3199446D02*
G01X1536042Y3199446D01*
G03X1180146Y2806700I38758J-392746D01*
G01X1180146Y2328915D01*
G03X864554Y2284092I-151446J-67121D01*
G01X864554Y3086100D01*
G02X977900Y3199446I113346J0D01*
G01X6000000Y52754D02*
G01X3571261Y52754D01*
G03X3660723Y120266I-196671J353646D01*
G01X3981834Y441377D01*
G02X4054910Y471646I73077J-73077D01*
G01X5892800Y471646D01*
G03X6297454Y876300I0J404654D01*
G01X6297454Y1345554D01*
G03X6549346Y1331696I131845J100290D01*
G01X6549346Y602100D01*
G02X6000000Y52754I-549346J0D01*
G01X5879954Y3225800D02*
G01X5879954Y3512242D01*
G03X5585151Y4051446I-640512J0D01*
G01X6000000Y4051446D01*
G02X6549346Y3502100I0J-549346D01*
G01X6549346Y3092969D01*
G03X6438900Y3124054I-110446J-180669D01*
G01X5981700Y3124054D01*
G02X5879954Y3225800I0J101746D01*
G01X6549346Y2551658D02*
G01X6549346Y1559992D01*
G03X6297454Y1546134I-120047J-114148D01*
G01X6297454Y2411806D01*
G02X6370982Y2510757I103346J0D01*
G03X6549346Y2551658I58317J155049D01*
G54D11*
G01X1628699Y2347098D02*
G01X1628699Y2321190D01*
G01X1628699Y2576590D02*
G01X1628699Y2602498D01*
G01X1513953Y2461844D02*
G01X1488045Y2461844D01*
G01X1743445Y2461844D02*
G01X1769353Y2461844D01*
G01X1438554Y1409700D02*
G01X1412646Y1409700D01*
G01X1838046Y1409700D02*
G01X1863954Y1409700D01*
G01X1638300Y1584446D02*
G01X1638300Y1610354D01*
G01X1638300Y1234954D02*
G01X1638300Y1209046D01*
G01X4461954Y3233420D02*
G01X4436046Y3233420D01*
G01X4961446Y3233420D02*
G01X4987354Y3233420D01*
G01X4711700Y3348166D02*
G01X4711700Y3374074D01*
G01X4829048Y2521307D02*
G01X4829048Y2495399D01*
G01X4968494Y2660753D02*
G01X4994402Y2660753D01*
G01X4689602Y2660753D02*
G01X4663694Y2660753D01*
G01X5229301Y1331098D02*
G01X5229301Y1305190D01*
G01X5229301Y1560590D02*
G01X5229301Y1586498D01*
G01X5114555Y1445844D02*
G01X5088647Y1445844D01*
G01X5344047Y1445844D02*
G01X5369955Y1445844D01*
G04 Copper End*

G04 Pad Start*
G54D12*
G01X4711700Y3578860D03*
G01X4711700Y3233420D03*
G01X3835400Y3924300D03*
G01X977900Y914400D03*
G01X977900Y228600D03*
G01X977900Y571500D03*
G01X4711700Y3924300D03*
G54D13*
G01X1638300Y1409700D03*
G54D14*
G01X5829300Y1245794D03*
G01X5229301Y1445844D03*
G01X6429299Y2665806D03*
G01X6429299Y1445844D03*
G01X1028700Y2261794D03*
G01X428701Y2461844D03*
G01X1628699Y3681806D03*
G01X1628699Y2461844D03*
G54D15*
G01X4829048Y2660753D03*
G01X4229100Y1240740D03*
G01X3629101Y1440740D03*
G01X4829099Y1440740D03*
G01X3629152Y2660753D03*
G01X3228848Y1726006D03*
G01X2628900Y305994D03*
G01X2028901Y505993D03*
G01X3228899Y505993D03*
G01X2028952Y1726006D03*
G01X3228848Y3681806D03*
G01X2628900Y2261794D03*
G01X2028901Y2461793D03*
G01X3228899Y2461793D03*
G01X2028952Y3681806D03*
G04 Pad End*

G04 Track Start*
G54D16*
G01X4350890Y2182595D02*
G01X4829048Y2660753D01*
G01X3153210Y2108200D02*
G01X4171285Y2108200D01*
G01X3629152Y2660753D02*
G01X3427858Y2660753D01*
G01X4829099Y1864695D02*
G01X4829099Y1440740D01*
G01X3575611Y852705D02*
G01X3228899Y505993D01*
G01X4829099Y1440740D02*
G01X4829099Y1181100D01*
G01X4575099Y927100D02*
G01X3755216Y927100D01*
G01X6429299Y2665806D02*
G01X6400800Y2665806D01*
G01X3374590Y152400D02*
G01X2782494Y152400D01*
G01X1628699Y2461844D02*
G01X1628699Y2349500D01*
G01X2893795Y1953995D02*
G01X2973605Y2033805D01*
G01X1882699Y2095500D02*
G01X2117290Y2095500D01*
G01X2346163Y1971837D02*
G01X2364005Y1953995D01*
G01X2543610Y1879600D02*
G01X2714190Y1879600D01*
G54D18*
G01X2028952Y3681806D02*
G01X2028952Y3594100D01*
G01X1774952Y3340100D02*
G01X977900Y3340100D01*
G01X723900Y3086100D02*
G01X723900Y1168400D01*
G54D16*
G01X5132605Y2273412D02*
G01X4903494Y2044300D01*
G01X5207000Y2709436D02*
G01X5207000Y2453017D01*
G01X3629152Y2660753D02*
G01X3629152Y2709436D01*
G01X3883152Y2963436D02*
G01X4953000Y2963436D01*
G01X3629152Y3718052D02*
G01X3629152Y2709436D01*
G54D11*
G01X4711700Y3924300D02*
G01X4711700Y3578860D01*
G54D18*
G01X1028700Y1355290D02*
G01X1028700Y1841500D01*
G01X1447800Y746789D02*
G01X1447800Y956392D01*
G01X977900Y571500D02*
G01X1272511Y571500D01*
G01X1320800Y2133600D02*
G01X1320800Y2806700D01*
G01X3228848Y3314700D02*
G01X3228848Y3681806D01*
G01X1574800Y3060700D02*
G01X2974848Y3060700D01*
G54D16*
G01X6146800Y2411806D02*
G01X6146800Y876300D01*
G01X5892800Y622300D02*
G01X4054910Y622300D01*
G01X3554195Y226795D02*
G01X3875305Y547905D01*
G01X4171285Y2108200D02*
G03X4350890Y2182595I0J254000D01*
G01X2973605Y2033805D02*
G02X3153210Y2108200I179605J-179605D01*
G01X3427858Y2660753D02*
G03X3228899Y2461793I0J-198959D01*
G01X4903494Y2044300D02*
G03X4829099Y1864695I179605J-179605D01*
G01X3755216Y927100D02*
G03X3575611Y852705I0J-254000D01*
G01X4829099Y1181100D02*
G02X4575099Y927100I-254000J0D01*
G01X2782494Y152400D02*
G02X2628900Y305994I0J153594D01*
G01X6400800Y2665806D02*
G03X6146800Y2411806I0J-254000D01*
G01X3554195Y226795D02*
G02X3374590Y152400I-179605J179605D01*
G01X1628699Y2349500D02*
G03X1882699Y2095500I254000J0D01*
G01X2714190Y1879600D02*
G03X2893795Y1953995I0J254000D01*
G01X2117290Y2095500D02*
G02X2296895Y2021105I0J-254000D01*
G01X2364005Y1953995D02*
G03X2543610Y1879600I179605J179605D01*
G54D18*
G01X2028952Y3594100D02*
G02X1774952Y3340100I-254000J0D01*
G01X977900Y3340100D02*
G03X723900Y3086100I0J-254000D01*
G01X723900Y1168400D02*
G03X977900Y914400I254000J0D01*
G54D16*
G01X5207000Y2453017D02*
G02X5132605Y2273412I-254000J0D01*
G01X3835400Y3924300D02*
G03X3629152Y3718052I0J-206248D01*
G01X4953000Y2963436D02*
G02X5207000Y2709436I0J-254000D01*
G01X3629152Y2709436D02*
G02X3883152Y2963436I254000J0D01*
G54D18*
G01X1143000Y1955800D02*
G03X1320800Y2133600I0J177800D01*
G01X1028700Y1841500D02*
G02X1143000Y1955800I114300J0D01*
G01X1177490Y1206500D02*
G02X1028700Y1355290I0J148790D01*
G01X1430997Y1046354D02*
G03X1198568Y1205624I-232429J-89962D01*
G01X1447800Y956392D02*
G03X1430997Y1046354I-249232J0D01*
G01X1198568Y1205624D02*
G01X1177490Y1206500D01*
G01X1284820Y571933D02*
G03X1447800Y746789I-12309J174856D01*
G01X1272511Y571500D02*
G01X1284820Y571933D01*
G01X1320800Y2806700D02*
G02X1574800Y3060700I254000J0D01*
G01X2974848Y3060700D02*
G03X3228848Y3314700I0J254000D01*
G54D16*
G01X6146800Y876300D02*
G02X5892800Y622300I-254000J0D01*
G01X4054910Y622300D02*
G03X3875305Y547905I0J-254000D01*
G04 Track End*

M02*

