G04 Layer: BottomSilkscreenLayer*
G04 EasyEDA Pro v2.2.45.4, 2025-12-25 15:41:57*
G04 Gerber Generator version 0.3*
G04 Scale: 100 percent, Rotated: No, Reflected: No*
G04 Dimensions in millimeters*
G04 Leading zeros omitted, absolute positions, 4 integers and 5 decimals*
G04 Generated by custom config*
%FSLAX45Y45*%
%MOMM*%
%ADD10C,0.1524*%
%ADD11C,0.6*%
%ADD12C,0.8814*%
G75*


G04 Text Start*
G54D10*
G01X5874370Y1852564D02*
G01X5874370Y1806082D01*
G01X5871322Y1796938D01*
G01X5864972Y1790588D01*
G01X5855828Y1787540D01*
G01X5849478Y1787540D01*
G01X5840334Y1790588D01*
G01X5834238Y1796938D01*
G01X5830936Y1806082D01*
G01X5830936Y1852564D01*
G01X5800710Y1840118D02*
G01X5794614Y1843420D01*
G01X5785470Y1852564D01*
G01X5785470Y1787540D01*
G01X1086018Y2864678D02*
G01X1086018Y2818196D01*
G01X1082970Y2809052D01*
G01X1076620Y2802702D01*
G01X1067476Y2799654D01*
G01X1061126Y2799654D01*
G01X1051982Y2802702D01*
G01X1045886Y2809052D01*
G01X1042584Y2818196D01*
G01X1042584Y2864678D01*
G01X1009310Y2849184D02*
G01X1009310Y2852232D01*
G01X1006262Y2858582D01*
G01X1003214Y2861630D01*
G01X997118Y2864678D01*
G01X984672Y2864678D01*
G01X978322Y2861630D01*
G01X975274Y2858582D01*
G01X972226Y2852232D01*
G01X972226Y2846136D01*
G01X975274Y2840040D01*
G01X981624Y2830642D01*
G01X1012358Y2799654D01*
G01X969178Y2799654D01*
G01X4289241Y1847376D02*
G01X4289241Y1800894D01*
G01X4286193Y1791750D01*
G01X4279843Y1785400D01*
G01X4270699Y1782352D01*
G01X4264349Y1782352D01*
G01X4255205Y1785400D01*
G01X4249109Y1791750D01*
G01X4245807Y1800894D01*
G01X4245807Y1847376D01*
G01X4209485Y1847376D02*
G01X4175449Y1847376D01*
G01X4193991Y1822738D01*
G01X4184847Y1822738D01*
G01X4178497Y1819690D01*
G01X4175449Y1816388D01*
G01X4172401Y1807244D01*
G01X4172401Y1800894D01*
G01X4175449Y1791750D01*
G01X4181545Y1785400D01*
G01X4190943Y1782352D01*
G01X4200341Y1782352D01*
G01X4209485Y1785400D01*
G01X4212533Y1788702D01*
G01X4215581Y1794798D01*
G01X2690565Y912630D02*
G01X2690565Y866148D01*
G01X2687517Y857004D01*
G01X2681167Y850654D01*
G01X2672023Y847606D01*
G01X2665673Y847606D01*
G01X2656529Y850654D01*
G01X2650433Y857004D01*
G01X2647131Y866148D01*
G01X2647131Y912630D01*
G01X2586171Y912630D02*
G01X2616905Y869450D01*
G01X2570677Y869450D01*
G01X2586171Y912630D02*
G01X2586171Y847606D01*
G01X2689041Y2868430D02*
G01X2689041Y2821948D01*
G01X2685993Y2812804D01*
G01X2679643Y2806454D01*
G01X2670499Y2803406D01*
G01X2664149Y2803406D01*
G01X2655005Y2806454D01*
G01X2648909Y2812804D01*
G01X2645607Y2821948D01*
G01X2645607Y2868430D01*
G01X2578297Y2868430D02*
G01X2609285Y2868430D01*
G01X2612333Y2840744D01*
G01X2609285Y2843792D01*
G01X2600141Y2846840D01*
G01X2590743Y2846840D01*
G01X2581345Y2843792D01*
G01X2575249Y2837442D01*
G01X2572201Y2828298D01*
G01X2572201Y2821948D01*
G01X2575249Y2812804D01*
G01X2581345Y2806454D01*
G01X2590743Y2803406D01*
G01X2600141Y2803406D01*
G01X2609285Y2806454D01*
G01X2612333Y2809756D01*
G01X2615381Y2815852D01*
G04 Text End*

G04 PolygonModel Start*
G54D11*
G01X3557700Y3752850D02*
G01X4931700Y3752850D01*
G01X3557700Y3409950D02*
G01X4931700Y3409950D01*
G01X697900Y742950D02*
G01X1197900Y742995D01*
G01X697900Y400050D02*
G01X1197900Y400050D01*
G01X3557700Y3060700D02*
G01X4931700Y3060700D01*
G54D10*
G01X6101682Y1584516D02*
G01X5556435Y1584516D01*
G01X5948741Y1864759D02*
G01X5948741Y1584516D01*
G01X6101682Y1864759D02*
G01X5556435Y1864759D01*
G01X5556435Y1864759D02*
G01X5556435Y1824606D01*
G01X5556435Y1584516D02*
G01X5556435Y1624668D01*
G36*
G01X6094059Y1872376D02*
G01X6094059Y1819526D01*
G01X6139779Y1819526D01*
G01X6139779Y1872376D01*
G01X6094059Y1872376D01*
G37*
G36*
G01X6094059Y1576898D02*
G01X6094059Y1629748D01*
G01X6139779Y1629748D01*
G01X6139779Y1576898D01*
G01X6094059Y1576898D01*
G37*
G01X755835Y2880759D02*
G01X1301082Y2880759D01*
G01X908776Y2600516D02*
G01X908776Y2880759D01*
G01X755835Y2600516D02*
G01X1301082Y2600516D01*
G01X1301082Y2600516D02*
G01X1301082Y2640668D01*
G01X1301082Y2880759D02*
G01X1301082Y2840606D01*
G36*
G01X763458Y2592898D02*
G01X763458Y2645748D01*
G01X717738Y2645748D01*
G01X717738Y2592898D01*
G01X763458Y2592898D01*
G37*
G36*
G01X763458Y2888376D02*
G01X763458Y2835526D01*
G01X717738Y2835526D01*
G01X717738Y2888376D01*
G01X763458Y2888376D01*
G37*
G01X4502583Y1579328D02*
G01X3957337Y1579328D01*
G01X4349642Y1859571D02*
G01X4349642Y1579328D01*
G01X4502583Y1859571D02*
G01X3957337Y1859571D01*
G01X3957337Y1859571D02*
G01X3957337Y1819419D01*
G01X3957337Y1579328D02*
G01X3957337Y1619480D01*
G36*
G01X4494961Y1867188D02*
G01X4494961Y1814339D01*
G01X4540681Y1814339D01*
G01X4540681Y1867188D01*
G01X4494961Y1867188D01*
G37*
G36*
G01X4494961Y1571710D02*
G01X4494961Y1624560D01*
G01X4540681Y1624560D01*
G01X4540681Y1571710D01*
G01X4494961Y1571710D01*
G37*
G01X2902383Y644581D02*
G01X2357137Y644581D01*
G01X2749442Y924824D02*
G01X2749442Y644581D01*
G01X2902383Y924824D02*
G01X2357137Y924824D01*
G01X2357137Y924824D02*
G01X2357137Y884672D01*
G01X2357137Y644581D02*
G01X2357137Y684733D01*
G36*
G01X2894761Y932442D02*
G01X2894761Y879592D01*
G01X2940481Y879592D01*
G01X2940481Y932442D01*
G01X2894761Y932442D01*
G37*
G36*
G01X2894761Y636963D02*
G01X2894761Y689813D01*
G01X2940481Y689813D01*
G01X2940481Y636963D01*
G01X2894761Y636963D01*
G37*
G01X2902383Y2600381D02*
G01X2357137Y2600381D01*
G01X2749442Y2880624D02*
G01X2749442Y2600381D01*
G01X2902383Y2880624D02*
G01X2357137Y2880624D01*
G01X2357137Y2880624D02*
G01X2357137Y2840472D01*
G01X2357137Y2600381D02*
G01X2357137Y2640533D01*
G36*
G01X2894761Y2888242D02*
G01X2894761Y2835392D01*
G01X2940481Y2835392D01*
G01X2940481Y2888242D01*
G01X2894761Y2888242D01*
G37*
G36*
G01X2894761Y2592763D02*
G01X2894761Y2645613D01*
G01X2940481Y2645613D01*
G01X2940481Y2592763D01*
G01X2894761Y2592763D01*
G37*

M02*

