G04 Layer: TopSilkscreenLayer*
G04 EasyEDA Pro v2.2.45.4, 2025-12-25 15:41:57*
G04 Gerber Generator version 0.3*
G04 Scale: 100 percent, Rotated: No, Reflected: No*
G04 Dimensions in millimeters*
G04 Leading zeros omitted, absolute positions, 4 integers and 5 decimals*
G04 Generated by custom config*
%FSLAX45Y45*%
%MOMM*%
%ADD10C,0.1524*%
%ADD11C,0.6*%
%ADD12C,0.254*%
%ADD13C,0.3*%
%ADD14C,0.5*%
%ADD15C,0.3761*%
G75*


G04 Text Start*
G36*
G01X5292696Y3476336D02*
G01X5294081Y3475297D01*
G01X5296390Y3474951D01*
G01X5298699Y3475297D01*
G01X5300085Y3476336D01*
G01X5301932Y3479569D01*
G01X5307474Y3494347D01*
G01X5313016Y3508202D01*
G01X5314401Y3512358D01*
G01X5315786Y3516053D01*
G01X5319481Y3525289D01*
G01X5321328Y3530369D01*
G01X5328717Y3548842D01*
G01X5330103Y3552998D01*
G01X5331488Y3556231D01*
G01X5334259Y3563620D01*
G01X5339801Y3577474D01*
G01X5341648Y3582554D01*
G01X5343496Y3587173D01*
G01X5345343Y3592253D01*
G01X5347190Y3596409D01*
G01X5348576Y3600104D01*
G01X5349961Y3604260D01*
G01X5351808Y3607954D01*
G01X5352847Y3609224D01*
G01X5354117Y3609340D01*
G01X5355965Y3606569D01*
G01X5356888Y3602874D01*
G01X5358274Y3599180D01*
G01X5361968Y3589944D01*
G01X5363354Y3585787D01*
G01X5364739Y3582093D01*
G01X5368434Y3572856D01*
G01X5369819Y3568700D01*
G01X5373976Y3557616D01*
G01X5375361Y3554384D01*
G01X5376746Y3550689D01*
G01X5380441Y3540529D01*
G01X5382288Y3535911D01*
G01X5383674Y3531754D01*
G01X5385059Y3528522D01*
G01X5387830Y3521133D01*
G01X5389677Y3516514D01*
G01X5391063Y3512358D01*
G01X5392448Y3508664D01*
G01X5394296Y3503584D01*
G01X5397990Y3494347D01*
G01X5399376Y3490191D01*
G01X5400761Y3486496D01*
G01X5402608Y3481878D01*
G01X5404456Y3477722D01*
G01X5405726Y3476221D01*
G01X5407688Y3475413D01*
G01X5411845Y3475413D01*
G01X5413346Y3476336D01*
G01X5414154Y3478184D01*
G01X5415077Y3481878D01*
G01X5416463Y3485573D01*
G01X5417848Y3489729D01*
G01X5418772Y3492962D01*
G01X5420157Y3496656D01*
G01X5421543Y3500813D01*
G01X5422928Y3504507D01*
G01X5431241Y3529445D01*
G01X5433088Y3534525D01*
G01X5434474Y3539144D01*
G01X5435859Y3542838D01*
G01X5437245Y3546994D01*
G01X5438168Y3550227D01*
G01X5439554Y3553922D01*
G01X5441401Y3558540D01*
G01X5442786Y3562696D01*
G01X5443710Y3565929D01*
G01X5445096Y3569624D01*
G01X5446481Y3574242D01*
G01X5447866Y3578398D01*
G01X5449252Y3582093D01*
G01X5450176Y3585325D01*
G01X5451561Y3589020D01*
G01X5452946Y3593176D01*
G01X5454332Y3596871D01*
G01X5455717Y3601489D01*
G01X5457103Y3605645D01*
G01X5458488Y3608878D01*
G01X5459412Y3612111D01*
G01X5460797Y3615805D01*
G01X5462183Y3619962D01*
G01X5463106Y3623194D01*
G01X5464492Y3626889D01*
G01X5465877Y3631045D01*
G01X5466801Y3634278D01*
G01X5468186Y3637973D01*
G01X5469572Y3642129D01*
G01X5470957Y3645824D01*
G01X5476499Y3662449D01*
G01X5477885Y3665682D01*
G01X5479039Y3666952D01*
G01X5481579Y3667991D01*
G01X5487121Y3669376D01*
G01X5492201Y3670762D01*
G01X5495434Y3673071D01*
G01X5495896Y3676765D01*
G01X5495318Y3678613D01*
G01X5493586Y3679536D01*
G01X5460797Y3679998D01*
G01X5430317Y3679998D01*
G01X5429856Y3677689D01*
G01X5429856Y3673533D01*
G01X5431241Y3672032D01*
G01X5434474Y3671224D01*
G01X5440939Y3670300D01*
G01X5445096Y3669838D01*
G01X5448328Y3669376D01*
G01X5453870Y3668453D01*
G01X5458950Y3667529D01*
G01X5459874Y3665220D01*
G01X5458950Y3661525D01*
G01X5454794Y3649056D01*
G01X5453870Y3645362D01*
G01X5452485Y3641667D01*
G01X5451099Y3637511D01*
G01X5450176Y3634278D01*
G01X5448790Y3630584D01*
G01X5447405Y3625965D01*
G01X5446481Y3622271D01*
G01X5445096Y3618576D01*
G01X5443710Y3614420D01*
G01X5442786Y3611187D01*
G01X5441401Y3607493D01*
G01X5440016Y3602874D01*
G01X5435859Y3590405D01*
G01X5434474Y3585787D01*
G01X5433088Y3581631D01*
G01X5431703Y3577936D01*
G01X5430779Y3574242D01*
G01X5427546Y3564544D01*
G01X5426161Y3559925D01*
G01X5425237Y3556693D01*
G01X5423852Y3552998D01*
G01X5422466Y3548842D01*
G01X5421543Y3545609D01*
G01X5420157Y3541914D01*
G01X5418772Y3537296D01*
G01X5417386Y3533140D01*
G01X5415539Y3530831D01*
G01X5414616Y3531177D01*
G01X5413692Y3533140D01*
G01X5411845Y3537758D01*
G01X5410459Y3541914D01*
G01X5409074Y3545609D01*
G01X5407226Y3549765D01*
G01X5405379Y3555307D01*
G01X5403532Y3559925D01*
G01X5399837Y3570085D01*
G01X5397990Y3574704D01*
G01X5396605Y3578860D01*
G01X5395219Y3582554D01*
G01X5393372Y3587173D01*
G01X5389677Y3597333D01*
G01X5387830Y3601951D01*
G01X5385983Y3607031D01*
G01X5384136Y3611649D01*
G01X5382750Y3615805D01*
G01X5381365Y3619500D01*
G01X5379979Y3622733D01*
G01X5378594Y3626427D01*
G01X5374899Y3636587D01*
G01X5371205Y3645824D01*
G01X5369819Y3649980D01*
G01X5368434Y3653674D01*
G01X5367048Y3656907D01*
G01X5365663Y3660602D01*
G01X5364277Y3663834D01*
G01X5363238Y3664989D01*
G01X5361045Y3665682D01*
G01X5358620Y3665566D01*
G01X5356888Y3664296D01*
G01X5355041Y3660602D01*
G01X5350885Y3649518D01*
G01X5345343Y3635664D01*
G01X5343957Y3631507D01*
G01X5342572Y3627813D01*
G01X5337030Y3613958D01*
G01X5335645Y3610264D01*
G01X5334259Y3607031D01*
G01X5332412Y3602413D01*
G01X5330565Y3596871D01*
G01X5328717Y3592714D01*
G01X5327332Y3589020D01*
G01X5325946Y3584864D01*
G01X5313016Y3552536D01*
G01X5311168Y3546994D01*
G01X5309321Y3542838D01*
G01X5306550Y3535449D01*
G01X5304703Y3532216D01*
G01X5303779Y3531062D01*
G01X5302856Y3531293D01*
G01X5301008Y3534987D01*
G01X5297776Y3544685D01*
G01X5296390Y3548380D01*
G01X5295005Y3552536D01*
G01X5294081Y3555769D01*
G01X5292696Y3559464D01*
G01X5291310Y3563620D01*
G01X5290386Y3566853D01*
G01X5289001Y3570547D01*
G01X5287616Y3574704D01*
G01X5286692Y3577936D01*
G01X5285306Y3581631D01*
G01X5283459Y3586711D01*
G01X5274685Y3613034D01*
G01X5273299Y3616729D01*
G01X5271914Y3620885D01*
G01X5270990Y3624118D01*
G01X5269605Y3627813D01*
G01X5268219Y3631969D01*
G01X5267296Y3635202D01*
G01X5265910Y3638896D01*
G01X5264525Y3643053D01*
G01X5263601Y3646285D01*
G01X5262216Y3649980D01*
G01X5260368Y3655060D01*
G01X5258521Y3660602D01*
G01X5257136Y3665682D01*
G01X5256674Y3667991D01*
G01X5259906Y3667991D01*
G01X5264525Y3668453D01*
G01X5270066Y3669376D01*
G01X5278379Y3670300D01*
G01X5283921Y3671685D01*
G01X5284960Y3673186D01*
G01X5285306Y3675842D01*
G01X5284729Y3678382D01*
G01X5282997Y3679536D01*
G01X5245128Y3679998D01*
G01X5209568Y3679998D01*
G01X5209106Y3677689D01*
G01X5209106Y3673533D01*
G01X5210030Y3672032D01*
G01X5211877Y3671224D01*
G01X5215572Y3670300D01*
G01X5223885Y3668453D01*
G01X5226194Y3667067D01*
G01X5227579Y3663373D01*
G01X5228965Y3659216D01*
G01X5230350Y3655522D01*
G01X5231736Y3651365D01*
G01X5233583Y3646285D01*
G01X5234968Y3641667D01*
G01X5236354Y3637973D01*
G01X5237739Y3633816D01*
G01X5238663Y3630584D01*
G01X5240048Y3626889D01*
G01X5241896Y3622271D01*
G01X5243281Y3618114D01*
G01X5244205Y3614882D01*
G01X5246976Y3606569D01*
G01X5248361Y3602874D01*
G01X5249746Y3598718D01*
G01X5251132Y3595024D01*
G01X5252979Y3589944D01*
G01X5254365Y3585325D01*
G01X5255750Y3581631D01*
G01X5257136Y3577474D01*
G01X5258059Y3574242D01*
G01X5259445Y3570547D01*
G01X5261292Y3565929D01*
G01X5262677Y3561773D01*
G01X5263601Y3558540D01*
G01X5264986Y3554845D01*
G01X5266834Y3549765D01*
G01X5268681Y3543762D01*
G01X5270528Y3538682D01*
G01X5271914Y3534525D01*
G01X5274685Y3527136D01*
G01X5275608Y3523442D01*
G01X5276994Y3519747D01*
G01X5278379Y3515591D01*
G01X5279303Y3512358D01*
G01X5280688Y3508664D01*
G01X5282536Y3504045D01*
G01X5283921Y3499889D01*
G01X5285306Y3496194D01*
G01X5290848Y3479569D01*
G01X5292696Y3476336D01*
G37*
G36*
G01X5115819Y3477260D02*
G01X5120437Y3476798D01*
G01X5125979Y3477260D01*
G01X5138910Y3478184D01*
G01X5142143Y3478645D01*
G01X5145837Y3479569D01*
G01X5150456Y3480954D01*
G01X5155536Y3482802D01*
G01X5159692Y3484649D01*
G01X5163386Y3486496D01*
G01X5166619Y3488805D01*
G01X5170314Y3491576D01*
G01X5173546Y3494347D01*
G01X5176317Y3497580D01*
G01X5180012Y3502198D01*
G01X5182783Y3506816D01*
G01X5184630Y3510511D01*
G01X5186016Y3514205D01*
G01X5187401Y3518362D01*
G01X5188325Y3522518D01*
G01X5188786Y3526213D01*
G01X5189710Y3535449D01*
G01X5190172Y3538682D01*
G01X5189710Y3541914D01*
G01X5188786Y3551151D01*
G01X5187863Y3554845D01*
G01X5186477Y3558540D01*
G01X5185092Y3561773D01*
G01X5183706Y3564544D01*
G01X5181859Y3567776D01*
G01X5179550Y3571009D01*
G01X5175856Y3575627D01*
G01X5173546Y3577936D01*
G01X5170776Y3580245D01*
G01X5168005Y3582093D01*
G01X5164772Y3584402D01*
G01X5161077Y3586711D01*
G01X5153688Y3590405D01*
G01X5145376Y3594100D01*
G01X5137986Y3596871D01*
G01X5129674Y3599642D01*
G01X5125979Y3601027D01*
G01X5121823Y3602413D01*
G01X5117205Y3604260D01*
G01X5112125Y3606107D01*
G01X5108430Y3607954D01*
G01X5105197Y3609340D01*
G01X5102426Y3610725D01*
G01X5100117Y3612573D01*
G01X5096885Y3614882D01*
G01X5094114Y3617191D01*
G01X5092266Y3619500D01*
G01X5089957Y3621809D01*
G01X5088110Y3624118D01*
G01X5086725Y3627351D01*
G01X5085339Y3633354D01*
G01X5084877Y3641205D01*
G01X5085339Y3646285D01*
G01X5086725Y3649980D01*
G01X5089034Y3654136D01*
G01X5091343Y3657369D01*
G01X5094114Y3659678D01*
G01X5096885Y3661525D01*
G01X5100117Y3663373D01*
G01X5103812Y3665220D01*
G01X5108430Y3666605D01*
G01X5113048Y3667529D01*
G01X5124132Y3668453D01*
G01X5129212Y3668914D01*
G01X5134292Y3668453D01*
G01X5142605Y3667529D01*
G01X5146761Y3666605D01*
G01X5150917Y3665220D01*
G01X5154612Y3663834D01*
G01X5157845Y3662449D01*
G01X5160616Y3660602D01*
G01X5163386Y3658293D01*
G01X5164772Y3653674D01*
G01X5166157Y3648594D01*
G01X5167081Y3644900D01*
G01X5167543Y3641667D01*
G01X5168466Y3637973D01*
G01X5170314Y3634740D01*
G01X5175394Y3633816D01*
G01X5179088Y3633816D01*
G01X5179550Y3637973D01*
G01X5180012Y3657369D01*
G01X5179666Y3669261D01*
G01X5178626Y3674456D01*
G01X5176548Y3675957D01*
G01X5173085Y3676765D01*
G01X5167543Y3677689D01*
G01X5163848Y3678613D01*
G01X5159230Y3679536D01*
G01X5154612Y3679998D01*
G01X5150917Y3680460D01*
G01X5141681Y3681384D01*
G01X5136139Y3682307D01*
G01X5127826Y3682769D01*
G01X5122285Y3682307D01*
G01X5105659Y3680460D01*
G01X5101503Y3679536D01*
G01X5096885Y3678151D01*
G01X5092728Y3676765D01*
G01X5089034Y3675380D01*
G01X5085339Y3673533D01*
G01X5082106Y3671685D01*
G01X5079336Y3669838D01*
G01X5073794Y3665220D01*
G01X5071023Y3662449D01*
G01X5068714Y3659678D01*
G01X5066866Y3657369D01*
G01X5063634Y3650904D01*
G01X5062248Y3647209D01*
G01X5060863Y3642591D01*
G01X5059477Y3636125D01*
G01X5059016Y3628274D01*
G01X5059477Y3622271D01*
G01X5061786Y3613034D01*
G01X5063634Y3608416D01*
G01X5067328Y3601951D01*
G01X5069176Y3599180D01*
G01X5071485Y3596871D01*
G01X5074256Y3593638D01*
G01X5077026Y3590867D01*
G01X5079336Y3589482D01*
G01X5082568Y3587173D01*
G01X5086263Y3584864D01*
G01X5089496Y3583016D01*
G01X5093190Y3581169D01*
G01X5101503Y3577474D01*
G01X5108892Y3574704D01*
G01X5113048Y3573318D01*
G01X5116743Y3571933D01*
G01X5125056Y3569162D01*
G01X5128750Y3567776D01*
G01X5132906Y3566391D01*
G01X5141219Y3562696D01*
G01X5144452Y3560849D01*
G01X5148146Y3558540D01*
G01X5152765Y3555307D01*
G01X5156459Y3551151D01*
G01X5158768Y3547918D01*
G01X5160616Y3544685D01*
G01X5162463Y3540067D01*
G01X5163848Y3534525D01*
G01X5164310Y3526674D01*
G01X5163848Y3520671D01*
G01X5162001Y3514205D01*
G01X5160616Y3510511D01*
G01X5158768Y3506816D01*
G01X5156921Y3504045D01*
G01X5152303Y3499427D01*
G01X5149994Y3497580D01*
G01X5145376Y3494809D01*
G01X5142605Y3493424D01*
G01X5138448Y3492038D01*
G01X5133830Y3490653D01*
G01X5120899Y3489729D01*
G01X5108430Y3490191D01*
G01X5104736Y3491114D01*
G01X5099656Y3492500D01*
G01X5094576Y3494347D01*
G01X5089957Y3496194D01*
G01X5086263Y3498042D01*
G01X5083030Y3499889D01*
G01X5080259Y3501736D01*
G01X5077950Y3503584D01*
G01X5075641Y3506354D01*
G01X5074256Y3511434D01*
G01X5072408Y3520671D01*
G01X5071485Y3526213D01*
G01X5070561Y3530831D01*
G01X5069637Y3532678D01*
G01X5067790Y3533602D01*
G01X5062710Y3534064D01*
G01X5059939Y3534064D01*
G01X5059477Y3530831D01*
G01X5059016Y3508202D01*
G01X5059016Y3488805D01*
G01X5061325Y3487420D01*
G01X5066405Y3485573D01*
G01X5071023Y3484187D01*
G01X5076103Y3482802D01*
G01X5080721Y3481878D01*
G01X5089034Y3480031D01*
G01X5094576Y3479107D01*
G01X5102888Y3478184D01*
G01X5111201Y3477722D01*
G01X5115819Y3477260D01*
G37*
G36*
G01X5574405Y3541914D02*
G01X5574405Y3510049D01*
G01X5590106Y3510049D01*
G01X5590106Y3573780D01*
G01X5652914Y3573780D01*
G01X5652914Y3588558D01*
G01X5590106Y3588558D01*
G01X5590106Y3652289D01*
G01X5574405Y3652289D01*
G01X5574405Y3588558D01*
G01X5511597Y3588558D01*
G01X5511597Y3573780D01*
G01X5574405Y3573780D01*
G01X5574405Y3541914D01*
G37*
G36*
G01X5145837Y3823624D02*
G01X5147338Y3822238D01*
G01X5149994Y3821776D01*
G01X5152649Y3822238D01*
G01X5154150Y3823624D01*
G01X5157845Y3831936D01*
G01X5159230Y3835631D01*
G01X5163386Y3845329D01*
G01X5164772Y3849024D01*
G01X5167543Y3855489D01*
G01X5168928Y3859184D01*
G01X5172623Y3867496D01*
G01X5175394Y3874886D01*
G01X5179088Y3883198D01*
G01X5181859Y3889664D01*
G01X5184630Y3897053D01*
G01X5188325Y3905366D01*
G01X5191096Y3911831D01*
G01X5193866Y3919220D01*
G01X5197561Y3927533D01*
G01X5200332Y3933998D01*
G01X5203103Y3941387D01*
G01X5206797Y3949700D01*
G01X5209568Y3956166D01*
G01X5212339Y3963555D01*
G01X5216034Y3971867D01*
G01X5218805Y3978333D01*
G01X5221576Y3985722D01*
G01X5225270Y3994035D01*
G01X5228041Y4000500D01*
G01X5230812Y4007889D01*
G01X5232659Y4011584D01*
G01X5233929Y4013431D01*
G01X5235892Y4014355D01*
G01X5241434Y4015740D01*
G01X5246976Y4016664D01*
G01X5250670Y4017126D01*
G01X5253903Y4018049D01*
G01X5255404Y4018973D01*
G01X5256212Y4020820D01*
G01X5256212Y4024976D01*
G01X5247784Y4026362D01*
G01X5223423Y4026824D01*
G01X5191096Y4026824D01*
G01X5190634Y4023591D01*
G01X5190634Y4020820D01*
G01X5191557Y4018973D01*
G01X5193405Y4017934D01*
G01X5196176Y4017587D01*
G01X5200794Y4017126D01*
G01X5208183Y4016202D01*
G01X5211877Y4015278D01*
G01X5215110Y4014355D01*
G01X5215572Y4011584D01*
G01X5214186Y4007427D01*
G01X5211416Y4000962D01*
G01X5210030Y3997267D01*
G01X5208645Y3994035D01*
G01X5207259Y3990340D01*
G01X5204488Y3983875D01*
G01X5203103Y3980180D01*
G01X5198946Y3970482D01*
G01X5197561Y3966787D01*
G01X5192019Y3952933D01*
G01X5190172Y3948776D01*
G01X5187401Y3942311D01*
G01X5184630Y3934922D01*
G01X5180936Y3926609D01*
G01X5178165Y3919220D01*
G01X5174470Y3910907D01*
G01X5171699Y3903518D01*
G01X5168928Y3897053D01*
G01X5166157Y3889664D01*
G01X5162463Y3881351D01*
G01X5159692Y3873962D01*
G01X5157845Y3870729D01*
G01X5156921Y3869806D01*
G01X5155997Y3870729D01*
G01X5154150Y3874886D01*
G01X5152303Y3879966D01*
G01X5148608Y3888278D01*
G01X5146761Y3892896D01*
G01X5143990Y3899362D01*
G01X5142605Y3903056D01*
G01X5141219Y3906289D01*
G01X5139834Y3909984D01*
G01X5137063Y3916449D01*
G01X5135677Y3920144D01*
G01X5131983Y3928456D01*
G01X5129212Y3935846D01*
G01X5125517Y3944158D01*
G01X5122746Y3951547D01*
G01X5119976Y3958013D01*
G01X5118590Y3961707D01*
G01X5115819Y3968173D01*
G01X5114434Y3971867D01*
G01X5112586Y3976024D01*
G01X5108892Y3985260D01*
G01X5107045Y3989416D01*
G01X5105659Y3993111D01*
G01X5102888Y3999576D01*
G01X5101503Y4003271D01*
G01X5097808Y4011584D01*
G01X5097808Y4013893D01*
G01X5101041Y4014816D01*
G01X5104736Y4015278D01*
G01X5108430Y4016202D01*
G01X5112586Y4016664D01*
G01X5115819Y4017126D01*
G01X5119976Y4017587D01*
G01X5122746Y4017587D01*
G01X5123208Y4020820D01*
G01X5122746Y4025438D01*
G01X5112240Y4026477D01*
G01X5082568Y4026824D01*
G01X5043314Y4026824D01*
G01X5042852Y4024515D01*
G01X5042390Y4020358D01*
G01X5042967Y4018857D01*
G01X5044699Y4018049D01*
G01X5051165Y4017126D01*
G01X5058092Y4015740D01*
G01X5063172Y4014816D01*
G01X5065019Y4014239D01*
G01X5065943Y4012507D01*
G01X5067328Y4008813D01*
G01X5070099Y4002347D01*
G01X5071485Y3998653D01*
G01X5077026Y3985722D01*
G01X5078412Y3982027D01*
G01X5080259Y3978333D01*
G01X5082106Y3973715D01*
G01X5083954Y3969558D01*
G01X5087648Y3960322D01*
G01X5089496Y3956166D01*
G01X5091343Y3951547D01*
G01X5095037Y3943235D01*
G01X5096885Y3938616D01*
G01X5098732Y3934460D01*
G01X5101503Y3927995D01*
G01X5102888Y3924300D01*
G01X5104274Y3921067D01*
G01X5106121Y3916911D01*
G01X5107968Y3912293D01*
G01X5110739Y3905827D01*
G01X5112586Y3901209D01*
G01X5114434Y3897053D01*
G01X5122746Y3877656D01*
G01X5124132Y3873962D01*
G01X5126903Y3867496D01*
G01X5128288Y3863802D01*
G01X5131983Y3855489D01*
G01X5133368Y3851795D01*
G01X5134754Y3848562D01*
G01X5136139Y3845791D01*
G01X5137525Y3842096D01*
G01X5139372Y3837478D01*
G01X5141219Y3833322D01*
G01X5143990Y3826856D01*
G01X5145837Y3823624D01*
G37*
G36*
G01X5337954Y3888740D02*
G01X5337954Y3856875D01*
G01X5352732Y3856875D01*
G01X5352732Y3920606D01*
G01X5416463Y3920606D01*
G01X5416463Y3935384D01*
G01X5352732Y3935384D01*
G01X5352732Y3999115D01*
G01X5337954Y3999115D01*
G01X5337954Y3935384D01*
G01X5274223Y3935384D01*
G01X5274223Y3920606D01*
G01X5337954Y3920606D01*
G01X5337954Y3888740D01*
G37*
G36*
G01X5145837Y3132744D02*
G01X5147338Y3131358D01*
G01X5149994Y3130896D01*
G01X5152649Y3131358D01*
G01X5154150Y3132744D01*
G01X5157845Y3141056D01*
G01X5159230Y3144751D01*
G01X5163386Y3154449D01*
G01X5164772Y3158144D01*
G01X5167543Y3164609D01*
G01X5168928Y3168304D01*
G01X5172623Y3176616D01*
G01X5175394Y3184006D01*
G01X5179088Y3192318D01*
G01X5181859Y3198784D01*
G01X5184630Y3206173D01*
G01X5188325Y3214486D01*
G01X5191096Y3220951D01*
G01X5193866Y3228340D01*
G01X5197561Y3236653D01*
G01X5200332Y3243118D01*
G01X5203103Y3250507D01*
G01X5206797Y3258820D01*
G01X5209568Y3265286D01*
G01X5212339Y3272675D01*
G01X5216034Y3280987D01*
G01X5218805Y3287453D01*
G01X5221576Y3294842D01*
G01X5225270Y3303155D01*
G01X5228041Y3309620D01*
G01X5230812Y3317009D01*
G01X5232659Y3320704D01*
G01X5233929Y3322551D01*
G01X5235892Y3323475D01*
G01X5241434Y3324860D01*
G01X5246976Y3325784D01*
G01X5250670Y3326246D01*
G01X5253903Y3327169D01*
G01X5255404Y3328093D01*
G01X5256212Y3329940D01*
G01X5256212Y3334096D01*
G01X5247784Y3335482D01*
G01X5223423Y3335944D01*
G01X5191096Y3335944D01*
G01X5190634Y3332711D01*
G01X5190634Y3329940D01*
G01X5191557Y3328093D01*
G01X5193405Y3327054D01*
G01X5196176Y3326707D01*
G01X5200794Y3326246D01*
G01X5208183Y3325322D01*
G01X5211877Y3324398D01*
G01X5215110Y3323475D01*
G01X5215572Y3320704D01*
G01X5214186Y3316547D01*
G01X5211416Y3310082D01*
G01X5210030Y3306387D01*
G01X5208645Y3303155D01*
G01X5207259Y3299460D01*
G01X5204488Y3292995D01*
G01X5203103Y3289300D01*
G01X5198946Y3279602D01*
G01X5197561Y3275907D01*
G01X5192019Y3262053D01*
G01X5190172Y3257896D01*
G01X5187401Y3251431D01*
G01X5184630Y3244042D01*
G01X5180936Y3235729D01*
G01X5178165Y3228340D01*
G01X5174470Y3220027D01*
G01X5171699Y3212638D01*
G01X5168928Y3206173D01*
G01X5166157Y3198784D01*
G01X5162463Y3190471D01*
G01X5159692Y3183082D01*
G01X5157845Y3179849D01*
G01X5156921Y3178926D01*
G01X5155997Y3179849D01*
G01X5154150Y3184006D01*
G01X5152303Y3189086D01*
G01X5148608Y3197398D01*
G01X5146761Y3202016D01*
G01X5143990Y3208482D01*
G01X5142605Y3212176D01*
G01X5141219Y3215409D01*
G01X5139834Y3219104D01*
G01X5137063Y3225569D01*
G01X5135677Y3229264D01*
G01X5131983Y3237576D01*
G01X5129212Y3244966D01*
G01X5125517Y3253278D01*
G01X5122746Y3260667D01*
G01X5119976Y3267133D01*
G01X5118590Y3270827D01*
G01X5115819Y3277293D01*
G01X5114434Y3280987D01*
G01X5112586Y3285144D01*
G01X5108892Y3294380D01*
G01X5107045Y3298536D01*
G01X5105659Y3302231D01*
G01X5102888Y3308696D01*
G01X5101503Y3312391D01*
G01X5097808Y3320704D01*
G01X5097808Y3323013D01*
G01X5101041Y3323936D01*
G01X5104736Y3324398D01*
G01X5108430Y3325322D01*
G01X5112586Y3325784D01*
G01X5115819Y3326246D01*
G01X5119976Y3326707D01*
G01X5122746Y3326707D01*
G01X5123208Y3329940D01*
G01X5122746Y3334558D01*
G01X5112240Y3335597D01*
G01X5082568Y3335944D01*
G01X5043314Y3335944D01*
G01X5042852Y3333635D01*
G01X5042390Y3329478D01*
G01X5042967Y3327977D01*
G01X5044699Y3327169D01*
G01X5051165Y3326246D01*
G01X5058092Y3324860D01*
G01X5063172Y3323936D01*
G01X5065019Y3323359D01*
G01X5065943Y3321627D01*
G01X5067328Y3317933D01*
G01X5070099Y3311467D01*
G01X5071485Y3307773D01*
G01X5077026Y3294842D01*
G01X5078412Y3291147D01*
G01X5080259Y3287453D01*
G01X5082106Y3282835D01*
G01X5083954Y3278678D01*
G01X5087648Y3269442D01*
G01X5089496Y3265286D01*
G01X5091343Y3260667D01*
G01X5095037Y3252355D01*
G01X5096885Y3247736D01*
G01X5098732Y3243580D01*
G01X5101503Y3237115D01*
G01X5102888Y3233420D01*
G01X5104274Y3230187D01*
G01X5106121Y3226031D01*
G01X5107968Y3221413D01*
G01X5110739Y3214947D01*
G01X5112586Y3210329D01*
G01X5114434Y3206173D01*
G01X5122746Y3186776D01*
G01X5124132Y3183082D01*
G01X5126903Y3176616D01*
G01X5128288Y3172922D01*
G01X5131983Y3164609D01*
G01X5133368Y3160915D01*
G01X5134754Y3157682D01*
G01X5136139Y3154911D01*
G01X5137525Y3151216D01*
G01X5139372Y3146598D01*
G01X5141219Y3142442D01*
G01X5143990Y3135976D01*
G01X5145837Y3132744D01*
G37*
G36*
G01X5242819Y3208020D02*
G01X5242819Y3196475D01*
G01X5321328Y3196475D01*
G01X5321328Y3219566D01*
G01X5242819Y3219566D01*
G01X5242819Y3208020D01*
G37*
G36*
G01X1435590Y827867D02*
G01X1467917Y826943D01*
G01X1491701Y827289D01*
G01X1500245Y828329D01*
G01X1501168Y832485D01*
G01X1501168Y835256D01*
G01X1497936Y835718D01*
G01X1493317Y836641D01*
G01X1486852Y837565D01*
G01X1478539Y838489D01*
G01X1475768Y839412D01*
G01X1474845Y840221D01*
G01X1474845Y841721D01*
G01X1479001Y852805D01*
G01X1483157Y865274D01*
G01X1484543Y868969D01*
G01X1490085Y885594D01*
G01X1493779Y894831D01*
G01X1504055Y895869D01*
G01X1533034Y896216D01*
G01X1572288Y896678D01*
G01X1573096Y896331D01*
G01X1575059Y889751D01*
G01X1577830Y881438D01*
G01X1579677Y876358D01*
G01X1581525Y870816D01*
G01X1582910Y866198D01*
G01X1585681Y858809D01*
G01X1587066Y854652D01*
G01X1590761Y844492D01*
G01X1591685Y840798D01*
G01X1590992Y839412D01*
G01X1588914Y838951D01*
G01X1584757Y838489D01*
G01X1577368Y837565D01*
G01X1570903Y836641D01*
G01X1567670Y835718D01*
G01X1566285Y834448D01*
G01X1565823Y831561D01*
G01X1565823Y827867D01*
G01X1569056Y827405D01*
G01X1610619Y826943D01*
G01X1639598Y827405D01*
G01X1649874Y828791D01*
G01X1650797Y832485D01*
G01X1650220Y834101D01*
G01X1648488Y835256D01*
G01X1642946Y836641D01*
G01X1637405Y837565D01*
G01X1632786Y838027D01*
G01X1629092Y838489D01*
G01X1626321Y839412D01*
G01X1624012Y842183D01*
G01X1622165Y847263D01*
G01X1620317Y851881D01*
G01X1618932Y856038D01*
G01X1610619Y878205D01*
G01X1609234Y882361D01*
G01X1607386Y886979D01*
G01X1603692Y897139D01*
G01X1601845Y901758D01*
G01X1596303Y916536D01*
G01X1594917Y920692D01*
G01X1585219Y946554D01*
G01X1583372Y951172D01*
G01X1581525Y956714D01*
G01X1578754Y964103D01*
G01X1576906Y969183D01*
G01X1575059Y973339D01*
G01X1572288Y980729D01*
G01X1570903Y984885D01*
G01X1568132Y992274D01*
G01X1566746Y996431D01*
G01X1564899Y1000587D01*
G01X1563052Y1005667D01*
G01X1561666Y1009823D01*
G01X1560281Y1013056D01*
G01X1556125Y1024139D01*
G01X1554277Y1027834D01*
G01X1549890Y1028873D01*
G01X1539499Y1029219D01*
G01X1526106Y1029219D01*
G01X1525183Y1026449D01*
G01X1523336Y1021369D01*
G01X1521488Y1015827D01*
G01X1519641Y1011209D01*
G01X1518256Y1007514D01*
G01X1515485Y999201D01*
G01X1511328Y988118D01*
G01X1508557Y979805D01*
G01X1506710Y975187D01*
G01X1504863Y969645D01*
G01X1503016Y964565D01*
G01X1501168Y959947D01*
G01X1497012Y947478D01*
G01X1490085Y929005D01*
G01X1487314Y920692D01*
G01X1485928Y916998D01*
G01X1484543Y912841D01*
G01X1483988Y911456D01*
G01X1499783Y911456D01*
G01X1500245Y914689D01*
G01X1503477Y924387D01*
G01X1506248Y931776D01*
G01X1507634Y935932D01*
G01X1509481Y940551D01*
G01X1510866Y944707D01*
G01X1513637Y952096D01*
G01X1516408Y960409D01*
G01X1517794Y964103D01*
G01X1520565Y972416D01*
G01X1521950Y976111D01*
G01X1523336Y980267D01*
G01X1525183Y984885D01*
G01X1528877Y995969D01*
G01X1530725Y1000587D01*
G01X1532110Y1003358D01*
G01X1533496Y1003819D01*
G01X1534881Y1001049D01*
G01X1540423Y986271D01*
G01X1543194Y977958D01*
G01X1548736Y963179D01*
G01X1550121Y959023D01*
G01X1551968Y954405D01*
G01X1553816Y949325D01*
G01X1555663Y943783D01*
G01X1557510Y939165D01*
G01X1560281Y931776D01*
G01X1563052Y923463D01*
G01X1565823Y916074D01*
G01X1567208Y912841D01*
G01X1567670Y910994D01*
G01X1533957Y910994D01*
G01X1499783Y911456D01*
G01X1499783Y911456D01*
G01X1483988Y911456D01*
G01X1482696Y908223D01*
G01X1480848Y903143D01*
G01X1479001Y897601D01*
G01X1477154Y892983D01*
G01X1475768Y889289D01*
G01X1472997Y880976D01*
G01X1468841Y869892D01*
G01X1466070Y861579D01*
G01X1464223Y856961D01*
G01X1462376Y851419D01*
G01X1460528Y846339D01*
G01X1458681Y841721D01*
G01X1456372Y839412D01*
G01X1445288Y837565D01*
G01X1440670Y836641D01*
G01X1436052Y834794D01*
G01X1434666Y831099D01*
G01X1435590Y827867D01*
G37*
G36*
G01X1528993Y483581D02*
G01X1545618Y483119D01*
G01X1563167Y483581D01*
G01X1572404Y484505D01*
G01X1577022Y485429D01*
G01X1583026Y486352D01*
G01X1587644Y487738D01*
G01X1595956Y490509D01*
G01X1600113Y492356D01*
G01X1604269Y494665D01*
G01X1607964Y496974D01*
G01X1610735Y499283D01*
G01X1615353Y502978D01*
G01X1620895Y510367D01*
G01X1624589Y516832D01*
G01X1627360Y524221D01*
G01X1628284Y527454D01*
G01X1628746Y530687D01*
G01X1629207Y536229D01*
G01X1629669Y541309D01*
G01X1629669Y543618D01*
G01X1628746Y553778D01*
G01X1627360Y557472D01*
G01X1625513Y561629D01*
G01X1621818Y567171D01*
G01X1619509Y569941D01*
G01X1617662Y572251D01*
G01X1614891Y575021D01*
G01X1611196Y577331D01*
G01X1605655Y581025D01*
G01X1602422Y582872D01*
G01X1598266Y584719D01*
G01X1594109Y586105D01*
G01X1590876Y587029D01*
G01X1587182Y587952D01*
G01X1582564Y588876D01*
G01X1578869Y589799D01*
G01X1577946Y591185D01*
G01X1580716Y592571D01*
G01X1584411Y593956D01*
G01X1591800Y597651D01*
G01X1594571Y599498D01*
G01X1598266Y602269D01*
G01X1603807Y607811D01*
G01X1605655Y610119D01*
G01X1607502Y613352D01*
G01X1609811Y617509D01*
G01X1612582Y624898D01*
G01X1613506Y629054D01*
G01X1613967Y632287D01*
G01X1614429Y639214D01*
G01X1613967Y646141D01*
G01X1612120Y653531D01*
G01X1610735Y657225D01*
G01X1608426Y661381D01*
G01X1606116Y664614D01*
G01X1601498Y669232D01*
G01X1598727Y671541D01*
G01X1595495Y673389D01*
G01X1588106Y677083D01*
G01X1583487Y678931D01*
G01X1577484Y680316D01*
G01X1573327Y681239D01*
G01X1568709Y682163D01*
G01X1561320Y683087D01*
G01X1551160Y683549D01*
G01X1543771Y684011D01*
G01X1496666Y684472D01*
G01X1450946Y684472D01*
G01X1450484Y682163D01*
G01X1450022Y678007D01*
G01X1451061Y676506D01*
G01X1454178Y675698D01*
G01X1460644Y674774D01*
G01X1465262Y673851D01*
G01X1470804Y672927D01*
G01X1474960Y671541D01*
G01X1475361Y633672D01*
G01X1504516Y633672D01*
G01X1504516Y670618D01*
G01X1507749Y670156D01*
G01X1530840Y669694D01*
G01X1552084Y669232D01*
G01X1559473Y668309D01*
G01X1563167Y666923D01*
G01X1567786Y665076D01*
G01X1571018Y663229D01*
G01X1573327Y661381D01*
G01X1575636Y659072D01*
G01X1577946Y655839D01*
G01X1580255Y652145D01*
G01X1581640Y647527D01*
G01X1583487Y639214D01*
G01X1583487Y631825D01*
G01X1582564Y623974D01*
G01X1581640Y619356D01*
G01X1580255Y615661D01*
G01X1578407Y611967D01*
G01X1576560Y609196D01*
G01X1571942Y604578D01*
G01X1569171Y602731D01*
G01X1566400Y601345D01*
G01X1563167Y599959D01*
G01X1554855Y597189D01*
G01X1549313Y596265D01*
G01X1525760Y595803D01*
G01X1504978Y596265D01*
G01X1504978Y596265D01*
G01X1504516Y633672D01*
G01X1475361Y633672D01*
G01X1475884Y584258D01*
G01X1475537Y519257D01*
G01X1474541Y497898D01*
G01X1504516Y497898D01*
G01X1504516Y581949D01*
G01X1525760Y581949D01*
G01X1548389Y581487D01*
G01X1562244Y580563D01*
G01X1569633Y578716D01*
G01X1574251Y577331D01*
G01X1578869Y575483D01*
G01X1582564Y573636D01*
G01X1585796Y571327D01*
G01X1590415Y566709D01*
G01X1592724Y563476D01*
G01X1595033Y559319D01*
G01X1596880Y553778D01*
G01X1598266Y547312D01*
G01X1598727Y539461D01*
G01X1598266Y533458D01*
G01X1596418Y524221D01*
G01X1595495Y520989D01*
G01X1594109Y518218D01*
G01X1592262Y514985D01*
G01X1589953Y511752D01*
G01X1587644Y509443D01*
G01X1584411Y506672D01*
G01X1580716Y504363D01*
G01X1577022Y502516D01*
G01X1571942Y500669D01*
G01X1566862Y499283D01*
G01X1563167Y498359D01*
G01X1555778Y497436D01*
G01X1538229Y496974D01*
G01X1521604Y497436D01*
G01X1521604Y497436D01*
G01X1512829Y497898D01*
G01X1504516Y497898D01*
G01X1474541Y497898D01*
G01X1474498Y496974D01*
G01X1471266Y496051D01*
G01X1468033Y495589D01*
G01X1464338Y494665D01*
G01X1457873Y493741D01*
G01X1451869Y492818D01*
G01X1450484Y491548D01*
G01X1450022Y488661D01*
G01X1450022Y484967D01*
G01X1453255Y484505D01*
G01X1492509Y484043D01*
G01X1528993Y483581D01*
G37*
G36*
G01X1545791Y138834D02*
G01X1554566Y138372D01*
G01X1564264Y138834D01*
G01X1580890Y139758D01*
G01X1590126Y140681D01*
G01X1599362Y142529D01*
G01X1605828Y143452D01*
G01X1616911Y146223D01*
G01X1621068Y147609D01*
G01X1622453Y153728D01*
G01X1622915Y170238D01*
G01X1623377Y193329D01*
G01X1622453Y194368D01*
G01X1618759Y194714D01*
G01X1613679Y194714D01*
G01X1613217Y192405D01*
G01X1612293Y187325D01*
G01X1611370Y183169D01*
G01X1609522Y172085D01*
G01X1608599Y167467D01*
G01X1607791Y164927D01*
G01X1606290Y163772D01*
G01X1603519Y162387D01*
G01X1600286Y160539D01*
G01X1596591Y158692D01*
G01X1592897Y157307D01*
G01X1588741Y155921D01*
G01X1584122Y154536D01*
G01X1571653Y151765D01*
G01X1563341Y150841D01*
G01X1551333Y150379D01*
G01X1539326Y150841D01*
G01X1536093Y151303D01*
G01X1532399Y152227D01*
G01X1523162Y154998D01*
G01X1519006Y156845D01*
G01X1515311Y158692D01*
G01X1511617Y161001D01*
G01X1508384Y163311D01*
G01X1506075Y165158D01*
G01X1501457Y169776D01*
G01X1499148Y172547D01*
G01X1496377Y176703D01*
G01X1493606Y181321D01*
G01X1491759Y184554D01*
G01X1489911Y188249D01*
G01X1488064Y192405D01*
G01X1486679Y196561D01*
G01X1485293Y201179D01*
G01X1483908Y206721D01*
G01X1482984Y211801D01*
G01X1482061Y219191D01*
G01X1481137Y225656D01*
G01X1480675Y241358D01*
G01X1481137Y257059D01*
G01X1482061Y264449D01*
G01X1482984Y272761D01*
G01X1483908Y277379D01*
G01X1485293Y282459D01*
G01X1486679Y287078D01*
G01X1488064Y291234D01*
G01X1491759Y299547D01*
G01X1493606Y302779D01*
G01X1497301Y308321D01*
G01X1499610Y311092D01*
G01X1504228Y315711D01*
G01X1506537Y317558D01*
G01X1509770Y319867D01*
G01X1513464Y322176D01*
G01X1517159Y324023D01*
G01X1521777Y325871D01*
G01X1526857Y327718D01*
G01X1533784Y329103D01*
G01X1539326Y330027D01*
G01X1543944Y330951D01*
G01X1554104Y331412D01*
G01X1562417Y330951D01*
G01X1569806Y330027D01*
G01X1575348Y329103D01*
G01X1582275Y328179D01*
G01X1594744Y324023D01*
G01X1598901Y322176D01*
G01X1602595Y320329D01*
G01X1604904Y318481D01*
G01X1606290Y315249D01*
G01X1606751Y311554D01*
G01X1607675Y305089D01*
G01X1608599Y301394D01*
G01X1609522Y295852D01*
G01X1609984Y292619D01*
G01X1613217Y292158D01*
G01X1618297Y292158D01*
G01X1619682Y297699D01*
G01X1620144Y313401D01*
G01X1619798Y329219D01*
G01X1618759Y335107D01*
G01X1614602Y336954D01*
G01X1609984Y337878D01*
G01X1606751Y338339D01*
G01X1599362Y339263D01*
G01X1590126Y341111D01*
G01X1580890Y342034D01*
G01X1567035Y342958D01*
G01X1554104Y343881D01*
G01X1547177Y344343D01*
G01X1540250Y343881D01*
G01X1535631Y342958D01*
G01X1530551Y342496D01*
G01X1524086Y341572D01*
G01X1520391Y340649D01*
G01X1510231Y337878D01*
G01X1505613Y336031D01*
G01X1501457Y334645D01*
G01X1498686Y333259D01*
G01X1495453Y331874D01*
G01X1492682Y330489D01*
G01X1489911Y328641D01*
G01X1486217Y326332D01*
G01X1482984Y324023D01*
G01X1470515Y311554D01*
G01X1467744Y307859D01*
G01X1464973Y303703D01*
G01X1463126Y300471D01*
G01X1459431Y293081D01*
G01X1456661Y286616D01*
G01X1453890Y277379D01*
G01X1452966Y274147D01*
G01X1452504Y270914D01*
G01X1450657Y260754D01*
G01X1449733Y254289D01*
G01X1449271Y238125D01*
G01X1449733Y221961D01*
G01X1451581Y211801D01*
G01X1452504Y207183D01*
G01X1453890Y202565D01*
G01X1456661Y194252D01*
G01X1458508Y190096D01*
G01X1460355Y186401D01*
G01X1464050Y179936D01*
G01X1466359Y176703D01*
G01X1469591Y172085D01*
G01X1479751Y161925D01*
G01X1482522Y159616D01*
G01X1490835Y154074D01*
G01X1494068Y151765D01*
G01X1499148Y149456D01*
G01X1507461Y145761D01*
G01X1513464Y143914D01*
G01X1519468Y142529D01*
G01X1523624Y141605D01*
G01X1527319Y140681D01*
G01X1531475Y140219D01*
G01X1534708Y139758D01*
G01X1540711Y139296D01*
G01X1545791Y138834D01*
G37*
G54D10*
G01X5783748Y2974764D02*
G01X5783748Y2909740D01*
G01X5827182Y2974764D02*
G01X5783748Y2931584D01*
G01X5799242Y2947078D02*
G01X5827182Y2909740D01*
G01X5857408Y2962318D02*
G01X5863504Y2965620D01*
G01X5872648Y2974764D01*
G01X5872648Y2909740D01*
G01X969178Y3990764D02*
G01X969178Y3925740D01*
G01X1012612Y3990764D02*
G01X969178Y3947584D01*
G01X984672Y3963078D02*
G01X1012612Y3925740D01*
G01X1045886Y3975270D02*
G01X1045886Y3978318D01*
G01X1048934Y3984668D01*
G01X1051982Y3987716D01*
G01X1058078Y3990764D01*
G01X1070524Y3990764D01*
G01X1076874Y3987716D01*
G01X1079922Y3984668D01*
G01X1082970Y3978318D01*
G01X1082970Y3972222D01*
G01X1079922Y3966126D01*
G01X1073572Y3956728D01*
G01X1042838Y3925740D01*
G01X1086018Y3925740D01*
G01X4036059Y2969576D02*
G01X4036059Y2904552D01*
G01X4036059Y2969576D02*
G01X4063999Y2969576D01*
G01X4073143Y2966528D01*
G01X4076191Y2963480D01*
G01X4079493Y2957130D01*
G01X4079493Y2951034D01*
G01X4076191Y2944938D01*
G01X4073143Y2941890D01*
G01X4063999Y2938588D01*
G01X4036059Y2938588D01*
G01X4057649Y2938588D02*
G01X4079493Y2904552D01*
G01X4109719Y2969576D02*
G01X4109719Y2904552D01*
G01X4109719Y2969576D02*
G01X4149851Y2969576D01*
G01X4109719Y2938588D02*
G01X4134357Y2938588D01*
G01X4109719Y2904552D02*
G01X4149851Y2904552D01*
G01X4180077Y2969576D02*
G01X4180077Y2904552D01*
G01X4180077Y2904552D02*
G01X4217161Y2904552D01*
G01X4272025Y2969576D02*
G01X4247387Y2904552D01*
G01X4272025Y2969576D02*
G01X4296917Y2904552D01*
G01X4256531Y2926396D02*
G01X4287519Y2926396D01*
G01X4327143Y2969576D02*
G01X4351781Y2938588D01*
G01X4351781Y2904552D01*
G01X4376673Y2969576D02*
G01X4351781Y2938588D01*
G01X4406899Y2957130D02*
G01X4412995Y2960432D01*
G01X4422139Y2969576D01*
G01X4422139Y2904552D01*
G01X2421889Y2034830D02*
G01X2421889Y1969806D01*
G01X2421889Y2034830D02*
G01X2449829Y2034830D01*
G01X2458973Y2031782D01*
G01X2462021Y2028734D01*
G01X2465323Y2022384D01*
G01X2465323Y2016288D01*
G01X2462021Y2010192D01*
G01X2458973Y2007144D01*
G01X2449829Y2003842D01*
G01X2421889Y2003842D01*
G01X2443479Y2003842D02*
G01X2465323Y1969806D01*
G01X2495549Y2034830D02*
G01X2495549Y1969806D01*
G01X2495549Y2034830D02*
G01X2535681Y2034830D01*
G01X2495549Y2003842D02*
G01X2520187Y2003842D01*
G01X2495549Y1969806D02*
G01X2535681Y1969806D01*
G01X2565907Y2034830D02*
G01X2565907Y1969806D01*
G01X2565907Y1969806D02*
G01X2602991Y1969806D01*
G01X2657855Y2034830D02*
G01X2633217Y1969806D01*
G01X2657855Y2034830D02*
G01X2682747Y1969806D01*
G01X2642361Y1991650D02*
G01X2673349Y1991650D01*
G01X2712973Y2034830D02*
G01X2737611Y2003842D01*
G01X2737611Y1969806D01*
G01X2762503Y2034830D02*
G01X2737611Y2003842D01*
G01X2795777Y2019336D02*
G01X2795777Y2022384D01*
G01X2798825Y2028734D01*
G01X2801873Y2031782D01*
G01X2807969Y2034830D01*
G01X2820415Y2034830D01*
G01X2826765Y2031782D01*
G01X2829813Y2028734D01*
G01X2832861Y2022384D01*
G01X2832861Y2016288D01*
G01X2829813Y2010192D01*
G01X2823463Y2000794D01*
G01X2792729Y1969806D01*
G01X2835909Y1969806D01*
G01X2421889Y3990630D02*
G01X2421889Y3925606D01*
G01X2421889Y3990630D02*
G01X2449829Y3990630D01*
G01X2458973Y3987582D01*
G01X2462021Y3984534D01*
G01X2465323Y3978184D01*
G01X2465323Y3972088D01*
G01X2462021Y3965992D01*
G01X2458973Y3962944D01*
G01X2449829Y3959642D01*
G01X2421889Y3959642D01*
G01X2443479Y3959642D02*
G01X2465323Y3925606D01*
G01X2495549Y3990630D02*
G01X2495549Y3925606D01*
G01X2495549Y3990630D02*
G01X2535681Y3990630D01*
G01X2495549Y3959642D02*
G01X2520187Y3959642D01*
G01X2495549Y3925606D02*
G01X2535681Y3925606D01*
G01X2565907Y3990630D02*
G01X2565907Y3925606D01*
G01X2565907Y3925606D02*
G01X2602991Y3925606D01*
G01X2657855Y3990630D02*
G01X2633217Y3925606D01*
G01X2657855Y3990630D02*
G01X2682747Y3925606D01*
G01X2642361Y3947450D02*
G01X2673349Y3947450D01*
G01X2712973Y3990630D02*
G01X2737611Y3959642D01*
G01X2737611Y3925606D01*
G01X2762503Y3990630D02*
G01X2737611Y3959642D01*
G01X2798825Y3990630D02*
G01X2832861Y3990630D01*
G01X2814319Y3965992D01*
G01X2823463Y3965992D01*
G01X2829813Y3962944D01*
G01X2832861Y3959642D01*
G01X2835909Y3950498D01*
G01X2835909Y3944148D01*
G01X2832861Y3935004D01*
G01X2826765Y3928654D01*
G01X2817367Y3925606D01*
G01X2807969Y3925606D01*
G01X2798825Y3928654D01*
G01X2795777Y3931956D01*
G01X2792729Y3938052D01*
G36*
G01X1017051Y1968143D02*
G01X1017294Y1996022D01*
G01X1018991Y1996506D01*
G01X1021173Y1995779D01*
G01X1021718Y1994628D01*
G01X1021900Y1992628D01*
G01X1022142Y1989476D01*
G01X1022385Y1987537D01*
G01X1022627Y1984628D01*
G01X1023112Y1982203D01*
G01X1023355Y1978810D01*
G01X1023839Y1975416D01*
G01X1034446Y1974870D01*
G01X1065294Y1974688D01*
G01X1107476Y1974931D01*
G01X1108324Y1975355D01*
G01X1108446Y1976143D01*
G01X1107718Y1978082D01*
G01X1106991Y1980264D01*
G01X1106264Y1982203D01*
G01X1105536Y1983900D01*
G01X1104809Y1986325D01*
G01X1103839Y1988749D01*
G01X1103112Y1990931D01*
G01X1102385Y1992870D01*
G01X1101900Y1994809D01*
G01X1102203Y1995719D01*
G01X1103112Y1996022D01*
G01X1105052Y1995779D01*
G01X1106264Y1995052D01*
G01X1116930Y1976385D01*
G01X1118142Y1973961D01*
G01X1119355Y1972022D01*
G01X1120809Y1969113D01*
G01X1122021Y1967173D01*
G01X1122749Y1963537D01*
G01X1122749Y1961113D01*
G01X1074264Y1961113D01*
G01X1024567Y1960870D01*
G01X1023658Y1960264D01*
G01X1023355Y1958931D01*
G01X1023112Y1955537D01*
G01X1022627Y1953113D01*
G01X1022142Y1948264D01*
G01X1021900Y1945113D01*
G01X1021415Y1941234D01*
G01X1020748Y1940143D01*
G01X1019718Y1939779D01*
G01X1017779Y1940264D01*
G01X1017233Y1947476D01*
G01X1017051Y1968143D01*
G37*
G36*
G01X1075233Y1818567D02*
G01X1075264Y1819052D01*
G01X1082991Y1819052D01*
G01X1083233Y1815901D01*
G01X1083718Y1813961D01*
G01X1084446Y1811779D01*
G01X1085415Y1810082D01*
G01X1086627Y1808143D01*
G01X1088567Y1805961D01*
G01X1090749Y1804507D01*
G01X1092446Y1803537D01*
G01X1094385Y1802810D01*
G01X1096324Y1802325D01*
G01X1098749Y1802082D01*
G01X1101173Y1802325D01*
G01X1103597Y1802810D01*
G01X1106021Y1803537D01*
G01X1107718Y1804264D01*
G01X1109173Y1805234D01*
G01X1111597Y1807173D01*
G01X1112567Y1808385D01*
G01X1113536Y1809840D01*
G01X1114506Y1811537D01*
G01X1115233Y1813476D01*
G01X1115718Y1815416D01*
G01X1115961Y1817597D01*
G01X1115718Y1819779D01*
G01X1115476Y1821476D01*
G01X1114991Y1823416D01*
G01X1114021Y1825597D01*
G01X1113052Y1827294D01*
G01X1111839Y1828991D01*
G01X1110385Y1830688D01*
G01X1108446Y1832143D01*
G01X1105779Y1833597D01*
G01X1103597Y1834325D01*
G01X1099718Y1834567D01*
G01X1095112Y1834082D01*
G01X1092446Y1833113D01*
G01X1090021Y1831900D01*
G01X1088324Y1830446D01*
G01X1087112Y1829234D01*
G01X1085900Y1827779D01*
G01X1084688Y1825840D01*
G01X1083718Y1823416D01*
G01X1083718Y1823416D01*
G01X1083233Y1821719D01*
G01X1082991Y1819052D01*
G01X1075264Y1819052D01*
G01X1075476Y1822446D01*
G01X1076203Y1825113D01*
G01X1077173Y1828022D01*
G01X1078385Y1830446D01*
G01X1079597Y1832143D01*
G01X1080324Y1833355D01*
G01X1081294Y1834567D01*
G01X1084203Y1837476D01*
G01X1087840Y1839900D01*
G01X1089294Y1840628D01*
G01X1090991Y1841355D01*
G01X1093415Y1842082D01*
G01X1096809Y1842567D01*
G01X1100203Y1842567D01*
G01X1103597Y1842082D01*
G01X1106749Y1841355D01*
G01X1109415Y1840385D01*
G01X1112809Y1838688D01*
G01X1114021Y1837719D01*
G01X1115476Y1836507D01*
G01X1117415Y1834810D01*
G01X1118870Y1832870D01*
G01X1120082Y1831173D01*
G01X1121294Y1828991D01*
G01X1122264Y1826810D01*
G01X1122991Y1824143D01*
G01X1123476Y1821719D01*
G01X1123718Y1819294D01*
G01X1123476Y1816385D01*
G01X1122991Y1813476D01*
G01X1122264Y1810810D01*
G01X1120324Y1806446D01*
G01X1119112Y1804507D01*
G01X1117900Y1802810D01*
G01X1115476Y1800385D01*
G01X1113779Y1798931D01*
G01X1112082Y1797719D01*
G01X1110385Y1796749D01*
G01X1108203Y1795779D01*
G01X1106021Y1795052D01*
G01X1104082Y1794567D01*
G01X1100688Y1794325D01*
G01X1096324Y1794567D01*
G01X1093415Y1795052D01*
G01X1091233Y1795779D01*
G01X1089052Y1796749D01*
G01X1086627Y1797961D01*
G01X1084930Y1799173D01*
G01X1083718Y1800143D01*
G01X1081294Y1802567D01*
G01X1079840Y1804264D01*
G01X1078385Y1806446D01*
G01X1077173Y1808628D01*
G01X1076446Y1810567D01*
G01X1075476Y1814931D01*
G01X1075233Y1818567D01*
G37*
G36*
G01X1015597Y1890810D02*
G01X1015709Y1892264D01*
G01X1022142Y1892264D01*
G01X1022142Y1889597D01*
G01X1022870Y1885961D01*
G01X1023839Y1883537D01*
G01X1024809Y1881840D01*
G01X1027233Y1879416D01*
G01X1028688Y1878203D01*
G01X1030142Y1877234D01*
G01X1031839Y1876264D01*
G01X1034264Y1875294D01*
G01X1037173Y1874325D01*
G01X1039597Y1873597D01*
G01X1043961Y1872628D01*
G01X1047355Y1872143D01*
G01X1050021Y1871900D01*
G01X1054143Y1871658D01*
G01X1057052Y1871173D01*
G01X1068688Y1870931D01*
G01X1081779Y1871173D01*
G01X1084688Y1871658D01*
G01X1090991Y1872143D01*
G01X1094870Y1872628D01*
G01X1096567Y1872870D01*
G01X1104324Y1874809D01*
G01X1106506Y1875779D01*
G01X1108930Y1876991D01*
G01X1110870Y1878203D01*
G01X1112324Y1879173D01*
G01X1113536Y1880385D01*
G01X1114991Y1882325D01*
G01X1116203Y1884749D01*
G01X1116930Y1886931D01*
G01X1117415Y1890082D01*
G01X1117173Y1892991D01*
G01X1116688Y1894931D01*
G01X1115961Y1897113D01*
G01X1114749Y1899294D01*
G01X1113536Y1900991D01*
G01X1112567Y1901961D01*
G01X1111355Y1902931D01*
G01X1109415Y1904143D01*
G01X1106991Y1905355D01*
G01X1104324Y1906325D01*
G01X1102143Y1907052D01*
G01X1097779Y1908022D01*
G01X1093900Y1908507D01*
G01X1088082Y1908991D01*
G01X1084203Y1909476D01*
G01X1070870Y1909719D01*
G01X1057537Y1909476D01*
G01X1053173Y1908991D01*
G01X1048324Y1908507D01*
G01X1043961Y1908022D01*
G01X1042264Y1907779D01*
G01X1039839Y1907294D01*
G01X1037658Y1906567D01*
G01X1035476Y1906082D01*
G01X1033294Y1905355D01*
G01X1031112Y1904385D01*
G01X1028445Y1902931D01*
G01X1026506Y1901476D01*
G01X1025294Y1900264D01*
G01X1024324Y1899052D01*
G01X1023597Y1897597D01*
G01X1022870Y1895900D01*
G01X1022385Y1893961D01*
G01X1022385Y1893961D01*
G01X1022142Y1892264D01*
G01X1015709Y1892264D01*
G01X1015839Y1893961D01*
G01X1016324Y1896870D01*
G01X1017051Y1900022D01*
G01X1018021Y1902446D01*
G01X1018991Y1904628D01*
G01X1019961Y1906325D01*
G01X1021415Y1908507D01*
G01X1022870Y1910446D01*
G01X1024082Y1911658D01*
G01X1025294Y1912628D01*
G01X1026991Y1914082D01*
G01X1030627Y1916507D01*
G01X1033536Y1917961D01*
G01X1035718Y1918931D01*
G01X1038142Y1919901D01*
G01X1045415Y1922082D01*
G01X1051233Y1923052D01*
G01X1053658Y1923537D01*
G01X1060446Y1924022D01*
G01X1069173Y1924264D01*
G01X1077900Y1924022D01*
G01X1081052Y1923779D01*
G01X1084688Y1923537D01*
G01X1087112Y1923052D01*
G01X1090021Y1922567D01*
G01X1093415Y1922082D01*
G01X1096082Y1921355D01*
G01X1100930Y1919901D01*
G01X1102870Y1919173D01*
G01X1104567Y1918446D01*
G01X1108446Y1916507D01*
G01X1110142Y1915537D01*
G01X1111597Y1914567D01*
G01X1113294Y1913355D01*
G01X1114991Y1911901D01*
G01X1117415Y1909476D01*
G01X1118385Y1908264D01*
G01X1119355Y1906810D01*
G01X1120567Y1904628D01*
G01X1121779Y1901961D01*
G01X1122749Y1899537D01*
G01X1123233Y1897597D01*
G01X1123476Y1895900D01*
G01X1123961Y1891537D01*
G01X1123961Y1890325D01*
G01X1123718Y1888870D01*
G01X1123476Y1886203D01*
G01X1122991Y1882809D01*
G01X1122264Y1880385D01*
G01X1121536Y1878446D01*
G01X1120809Y1876749D01*
G01X1118870Y1873355D01*
G01X1117658Y1871658D01*
G01X1116203Y1869961D01*
G01X1113779Y1867537D01*
G01X1112567Y1866567D01*
G01X1109658Y1864628D01*
G01X1107961Y1863658D01*
G01X1106021Y1862688D01*
G01X1101658Y1860749D01*
G01X1099233Y1860022D01*
G01X1096567Y1859294D01*
G01X1094385Y1858567D01*
G01X1088567Y1857597D01*
G01X1086627Y1857113D01*
G01X1079355Y1856628D01*
G01X1070385Y1856385D01*
G01X1061415Y1856628D01*
G01X1054627Y1857113D01*
G01X1052446Y1857597D01*
G01X1049294Y1858082D01*
G01X1046385Y1858567D01*
G01X1044446Y1859052D01*
G01X1042264Y1859537D01*
G01X1039839Y1860264D01*
G01X1035961Y1861719D01*
G01X1033779Y1862688D01*
G01X1031355Y1863900D01*
G01X1028930Y1865355D01*
G01X1026506Y1867052D01*
G01X1024809Y1868264D01*
G01X1023355Y1869719D01*
G01X1021415Y1872143D01*
G01X1019961Y1874325D01*
G01X1018991Y1876022D01*
G01X1018264Y1877719D01*
G01X1017536Y1879658D01*
G01X1016809Y1881840D01*
G01X1016324Y1883779D01*
G01X1015839Y1887658D01*
G01X1015597Y1890810D01*
G37*
G36*
G01X838627Y1724506D02*
G01X838870Y1729113D01*
G01X839112Y1731779D01*
G01X839355Y1734931D01*
G01X839840Y1738810D01*
G01X840324Y1740991D01*
G01X841052Y1744143D01*
G01X841779Y1746567D01*
G01X842264Y1748507D01*
G01X842991Y1750446D01*
G01X843961Y1752385D01*
G01X844930Y1754810D01*
G01X846143Y1756992D01*
G01X847597Y1759173D01*
G01X848809Y1760870D01*
G01X849779Y1762325D01*
G01X850991Y1763779D01*
G01X856324Y1769113D01*
G01X858749Y1770810D01*
G01X860446Y1772022D01*
G01X863839Y1773961D01*
G01X865779Y1774931D01*
G01X867961Y1775901D01*
G01X872324Y1777355D01*
G01X874749Y1778082D01*
G01X877173Y1778567D01*
G01X882506Y1779537D01*
G01X890991Y1779779D01*
G01X899476Y1779537D01*
G01X903355Y1779052D01*
G01X908203Y1778082D01*
G01X909900Y1777840D01*
G01X911840Y1777355D01*
G01X914264Y1776628D01*
G01X916446Y1775901D01*
G01X919840Y1774446D01*
G01X923718Y1772507D01*
G01X925415Y1771537D01*
G01X927597Y1770082D01*
G01X929537Y1768628D01*
G01X936082Y1762082D01*
G01X937294Y1760385D01*
G01X938506Y1758446D01*
G01X939476Y1756992D01*
G01X940203Y1755537D01*
G01X941173Y1753355D01*
G01X942143Y1751416D01*
G01X942627Y1749719D01*
G01X943355Y1747779D01*
G01X944809Y1742446D01*
G01X945294Y1740507D01*
G01X945779Y1737113D01*
G01X946021Y1734446D01*
G01X946506Y1732022D01*
G01X946749Y1728385D01*
G01X946506Y1724749D01*
G01X946021Y1717961D01*
G01X945537Y1710688D01*
G01X945052Y1705840D01*
G01X944082Y1700991D01*
G01X943597Y1697113D01*
G01X943355Y1695416D01*
G01X942870Y1692991D01*
G01X941900Y1690810D01*
G01X938809Y1690264D01*
G01X930506Y1690082D01*
G01X922264Y1690325D01*
G01X919355Y1691052D01*
G01X919355Y1693719D01*
G01X919597Y1695416D01*
G01X921537Y1695658D01*
G01X924203Y1696143D01*
G01X926143Y1696628D01*
G01X929537Y1697113D01*
G01X932446Y1697597D01*
G01X933658Y1698567D01*
G01X935597Y1702446D01*
G01X936567Y1704870D01*
G01X937537Y1707779D01*
G01X938264Y1710203D01*
G01X938749Y1713597D01*
G01X939234Y1716506D01*
G01X939718Y1720385D01*
G01X939961Y1724749D01*
G01X939718Y1730082D01*
G01X939234Y1732507D01*
G01X938749Y1735416D01*
G01X938021Y1739052D01*
G01X937052Y1741719D01*
G01X936082Y1744143D01*
G01X935112Y1746082D01*
G01X933900Y1748022D01*
G01X932688Y1749719D01*
G01X931718Y1750931D01*
G01X929294Y1753355D01*
G01X927840Y1754567D01*
G01X924931Y1756507D01*
G01X923234Y1757476D01*
G01X918870Y1759416D01*
G01X916688Y1760143D01*
G01X914264Y1760870D01*
G01X911597Y1761598D01*
G01X909173Y1762082D01*
G01X904809Y1762567D01*
G01X900931Y1763052D01*
G01X892688Y1763295D01*
G01X884446Y1763052D01*
G01X881052Y1762567D01*
G01X877173Y1762082D01*
G01X874506Y1761598D01*
G01X871597Y1760870D01*
G01X869173Y1760143D01*
G01X866991Y1759416D01*
G01X864809Y1758446D01*
G01X862870Y1757476D01*
G01X861173Y1756507D01*
G01X858749Y1755052D01*
G01X856567Y1753598D01*
G01X855112Y1752385D01*
G01X852203Y1749476D01*
G01X850506Y1747052D01*
G01X849294Y1745113D01*
G01X848324Y1743173D01*
G01X847355Y1740991D01*
G01X845900Y1736143D01*
G01X845415Y1734203D01*
G01X845173Y1732507D01*
G01X844930Y1726203D01*
G01X845173Y1719900D01*
G01X845415Y1717961D01*
G01X845658Y1715537D01*
G01X846143Y1713597D01*
G01X846627Y1710931D01*
G01X847355Y1708022D01*
G01X848809Y1703658D01*
G01X849779Y1701476D01*
G01X851476Y1698082D01*
G01X852930Y1696628D01*
G01X856324Y1695658D01*
G01X859233Y1695173D01*
G01X862627Y1694688D01*
G01X864567Y1694204D01*
G01X868203Y1693476D01*
G01X868203Y1690810D01*
G01X868021Y1688870D01*
G01X867476Y1688385D01*
G01X855355Y1688628D01*
G01X846688Y1688870D01*
G01X843476Y1689597D01*
G01X842749Y1691779D01*
G01X841294Y1697597D01*
G01X840809Y1700991D01*
G01X839840Y1705840D01*
G01X839355Y1710688D01*
G01X838870Y1719416D01*
G01X838627Y1724506D01*
G37*
G36*
G01X872082Y1673598D02*
G01X884203Y1673598D01*
G01X884203Y1631901D01*
G01X872082Y1631901D01*
G01X872082Y1673598D01*
G37*
G36*
G01X1015597Y1724506D02*
G01X1015839Y1729113D01*
G01X1016082Y1731779D01*
G01X1016324Y1734931D01*
G01X1016809Y1738810D01*
G01X1017294Y1740991D01*
G01X1018021Y1744143D01*
G01X1018748Y1746567D01*
G01X1019233Y1748507D01*
G01X1019961Y1750446D01*
G01X1020930Y1752385D01*
G01X1021900Y1754810D01*
G01X1023112Y1756992D01*
G01X1024567Y1759173D01*
G01X1025779Y1760870D01*
G01X1026748Y1762325D01*
G01X1027961Y1763779D01*
G01X1033294Y1769113D01*
G01X1035718Y1770810D01*
G01X1037415Y1772022D01*
G01X1040809Y1773961D01*
G01X1042749Y1774931D01*
G01X1044930Y1775901D01*
G01X1049294Y1777355D01*
G01X1051718Y1778082D01*
G01X1054143Y1778567D01*
G01X1059476Y1779537D01*
G01X1067961Y1779779D01*
G01X1076446Y1779537D01*
G01X1080324Y1779052D01*
G01X1085173Y1778082D01*
G01X1086870Y1777840D01*
G01X1088809Y1777355D01*
G01X1091233Y1776628D01*
G01X1093415Y1775901D01*
G01X1096809Y1774446D01*
G01X1100688Y1772507D01*
G01X1102385Y1771537D01*
G01X1104567Y1770082D01*
G01X1106506Y1768628D01*
G01X1113052Y1762082D01*
G01X1114264Y1760385D01*
G01X1115476Y1758446D01*
G01X1116446Y1756992D01*
G01X1117173Y1755537D01*
G01X1118142Y1753355D01*
G01X1119112Y1751416D01*
G01X1119597Y1749719D01*
G01X1120324Y1747779D01*
G01X1121779Y1742446D01*
G01X1122264Y1740507D01*
G01X1122749Y1737113D01*
G01X1122991Y1734446D01*
G01X1123476Y1732022D01*
G01X1123718Y1728385D01*
G01X1123476Y1724749D01*
G01X1122991Y1717961D01*
G01X1122506Y1710688D01*
G01X1122021Y1705840D01*
G01X1121052Y1700991D01*
G01X1120567Y1697113D01*
G01X1120324Y1695416D01*
G01X1119839Y1692991D01*
G01X1118870Y1690810D01*
G01X1115779Y1690264D01*
G01X1107476Y1690082D01*
G01X1099233Y1690325D01*
G01X1096324Y1691052D01*
G01X1096324Y1693719D01*
G01X1096567Y1695416D01*
G01X1098506Y1695658D01*
G01X1101173Y1696143D01*
G01X1103112Y1696628D01*
G01X1106506Y1697113D01*
G01X1109415Y1697597D01*
G01X1110627Y1698567D01*
G01X1112567Y1702446D01*
G01X1113536Y1704870D01*
G01X1114506Y1707779D01*
G01X1115233Y1710203D01*
G01X1115718Y1713597D01*
G01X1116203Y1716506D01*
G01X1116688Y1720385D01*
G01X1116930Y1724749D01*
G01X1116688Y1730082D01*
G01X1116203Y1732507D01*
G01X1115718Y1735416D01*
G01X1114991Y1739052D01*
G01X1114021Y1741719D01*
G01X1113052Y1744143D01*
G01X1112082Y1746082D01*
G01X1110870Y1748022D01*
G01X1109658Y1749719D01*
G01X1108688Y1750931D01*
G01X1106264Y1753355D01*
G01X1104809Y1754567D01*
G01X1101900Y1756507D01*
G01X1100203Y1757476D01*
G01X1095839Y1759416D01*
G01X1093658Y1760143D01*
G01X1091233Y1760870D01*
G01X1088567Y1761598D01*
G01X1086143Y1762082D01*
G01X1081779Y1762567D01*
G01X1077900Y1763052D01*
G01X1069658Y1763295D01*
G01X1061415Y1763052D01*
G01X1058021Y1762567D01*
G01X1054143Y1762082D01*
G01X1051476Y1761598D01*
G01X1048567Y1760870D01*
G01X1046143Y1760143D01*
G01X1043961Y1759416D01*
G01X1041779Y1758446D01*
G01X1039839Y1757476D01*
G01X1038142Y1756507D01*
G01X1035718Y1755052D01*
G01X1033536Y1753598D01*
G01X1032082Y1752385D01*
G01X1029173Y1749476D01*
G01X1027476Y1747052D01*
G01X1026264Y1745113D01*
G01X1025294Y1743173D01*
G01X1024324Y1740991D01*
G01X1022870Y1736143D01*
G01X1022385Y1734203D01*
G01X1022142Y1732507D01*
G01X1021900Y1726203D01*
G01X1022142Y1719900D01*
G01X1022385Y1717961D01*
G01X1022627Y1715537D01*
G01X1023112Y1713597D01*
G01X1023597Y1710931D01*
G01X1024324Y1708022D01*
G01X1025779Y1703658D01*
G01X1026748Y1701476D01*
G01X1028445Y1698082D01*
G01X1029900Y1696628D01*
G01X1033294Y1695658D01*
G01X1036203Y1695173D01*
G01X1039597Y1694688D01*
G01X1041536Y1694204D01*
G01X1045173Y1693476D01*
G01X1045173Y1690810D01*
G01X1044991Y1688870D01*
G01X1044446Y1688385D01*
G01X1032324Y1688628D01*
G01X1023658Y1688870D01*
G01X1020445Y1689597D01*
G01X1019718Y1691779D01*
G01X1018264Y1697597D01*
G01X1017779Y1700991D01*
G01X1016809Y1705840D01*
G01X1016324Y1710688D01*
G01X1015839Y1719416D01*
G01X1015597Y1724506D01*
G37*
G36*
G01X1049052Y1633840D02*
G01X1061173Y1633840D01*
G01X1061173Y1592143D01*
G01X1049052Y1592143D01*
G01X1049052Y1633840D01*
G37*
G36*
G01X840082Y1256385D02*
G01X840324Y1273113D01*
G01X842021Y1273598D01*
G01X844203Y1273113D01*
G01X845173Y1270931D01*
G01X845658Y1268507D01*
G01X846385Y1263416D01*
G01X847112Y1261719D01*
G01X849052Y1260749D01*
G01X855597Y1258567D01*
G01X858021Y1257598D01*
G01X860688Y1256628D01*
G01X863597Y1255658D01*
G01X866021Y1254689D01*
G01X870385Y1253234D01*
G01X876203Y1251052D01*
G01X878385Y1250325D01*
G01X881052Y1249355D01*
G01X883476Y1248386D01*
G01X887840Y1246931D01*
G01X893658Y1244749D01*
G01X895840Y1244022D01*
G01X901173Y1242083D01*
G01X903355Y1241355D01*
G01X911112Y1238446D01*
G01X917658Y1236264D01*
G01X920082Y1235295D01*
G01X922749Y1234325D01*
G01X925658Y1233355D01*
G01X928082Y1232386D01*
G01X932446Y1230931D01*
G01X938264Y1228749D01*
G01X942627Y1227295D01*
G01X945052Y1226325D01*
G01X946264Y1225598D01*
G01X946264Y1219537D01*
G01X946021Y1212264D01*
G01X945052Y1210810D01*
G01X943597Y1210083D01*
G01X941658Y1209355D01*
G01X939476Y1208628D01*
G01X931718Y1205719D01*
G01X929294Y1204749D01*
G01X923961Y1202810D01*
G01X921537Y1201840D01*
G01X919355Y1201113D01*
G01X909658Y1197477D01*
G01X907234Y1196507D01*
G01X904567Y1195537D01*
G01X902385Y1194810D01*
G01X890749Y1190446D01*
G01X888567Y1189719D01*
G01X884688Y1188264D01*
G01X882506Y1187295D01*
G01X874749Y1184386D01*
G01X872082Y1183416D01*
G01X869658Y1182446D01*
G01X867476Y1181719D01*
G01X851961Y1175901D01*
G01X847597Y1174446D01*
G01X846627Y1173719D01*
G01X846143Y1172022D01*
G01X845658Y1167658D01*
G01X845173Y1164749D01*
G01X844688Y1162325D01*
G01X844446Y1160628D01*
G01X842991Y1160628D01*
G01X840809Y1161113D01*
G01X840264Y1166507D01*
G01X840082Y1181719D01*
G01X840324Y1203537D01*
G01X840567Y1205234D01*
G01X842506Y1205234D01*
G01X844021Y1204992D01*
G01X844688Y1204264D01*
G01X845173Y1202567D01*
G01X845658Y1198689D01*
G01X846143Y1195295D01*
G01X846385Y1193355D01*
G01X846567Y1192386D01*
G01X847112Y1191901D01*
G01X849536Y1192143D01*
G01X852203Y1193113D01*
G01X858749Y1195295D01*
G01X860688Y1196022D01*
G01X869415Y1198931D01*
G01X871355Y1199658D01*
G01X873536Y1200386D01*
G01X875476Y1201113D01*
G01X876203Y1206446D01*
G01X876442Y1221719D01*
G01X884203Y1221719D01*
G01X884203Y1204264D01*
G01X885900Y1204749D01*
G01X888567Y1205719D01*
G01X890749Y1206446D01*
G01X902385Y1210810D01*
G01X904567Y1211537D01*
G01X907234Y1212507D01*
G01X909658Y1213477D01*
G01X914021Y1214931D01*
G01X915961Y1215658D01*
G01X918143Y1216386D01*
G01X929779Y1220749D01*
G01X931961Y1221477D01*
G01X932809Y1221840D01*
G01X932931Y1222446D01*
G01X932324Y1223113D01*
G01X930991Y1223658D01*
G01X928324Y1224628D01*
G01X926143Y1225355D01*
G01X924203Y1226083D01*
G01X919840Y1227537D01*
G01X918143Y1228264D01*
G01X913052Y1229961D01*
G01X910628Y1230931D01*
G01X906264Y1232386D01*
G01X900446Y1234567D01*
G01X898264Y1235295D01*
G01X896324Y1236022D01*
G01X893900Y1236749D01*
G01X891476Y1237719D01*
G01X889294Y1238446D01*
G01X887355Y1239173D01*
G01X885658Y1239658D01*
G01X885658Y1239658D01*
G01X884446Y1239416D01*
G01X884203Y1221719D01*
G01X876442Y1221719D01*
G01X876446Y1221961D01*
G01X876264Y1237476D01*
G01X875718Y1242810D01*
G01X874264Y1243537D01*
G01X868445Y1245719D01*
G01X861900Y1247901D01*
G01X859233Y1248870D01*
G01X856324Y1249840D01*
G01X850991Y1251779D01*
G01X849052Y1252507D01*
G01X847355Y1252749D01*
G01X846567Y1252204D01*
G01X846143Y1250567D01*
G01X845658Y1246204D01*
G01X845173Y1243295D01*
G01X844688Y1240870D01*
G01X844203Y1239537D01*
G01X843233Y1238931D01*
G01X842082Y1238931D01*
G01X841052Y1239416D01*
G01X840324Y1244022D01*
G01X840082Y1256385D01*
G37*
G36*
G01X1017051Y1216386D02*
G01X1017294Y1233355D01*
G01X1018991Y1233840D01*
G01X1021173Y1233113D01*
G01X1022142Y1230931D01*
G01X1022627Y1228749D01*
G01X1023112Y1225355D01*
G01X1023355Y1223173D01*
G01X1023597Y1222022D01*
G01X1024324Y1221477D01*
G01X1026264Y1220749D01*
G01X1031597Y1218810D01*
G01X1033779Y1218083D01*
G01X1041536Y1215173D01*
G01X1048082Y1212992D01*
G01X1050506Y1212022D01*
G01X1053173Y1211052D01*
G01X1056082Y1210083D01*
G01X1058506Y1209113D01*
G01X1062385Y1207658D01*
G01X1066749Y1206204D01*
G01X1068688Y1205477D01*
G01X1073052Y1204022D01*
G01X1074991Y1203295D01*
G01X1077415Y1202325D01*
G01X1080324Y1201355D01*
G01X1082991Y1200386D01*
G01X1085415Y1199416D01*
G01X1087597Y1198689D01*
G01X1089536Y1197961D01*
G01X1093900Y1196507D01*
G01X1099718Y1194325D01*
G01X1101900Y1193598D01*
G01X1104567Y1192628D01*
G01X1106991Y1191658D01*
G01X1111355Y1190204D01*
G01X1117173Y1188022D01*
G01X1119355Y1187295D01*
G01X1121779Y1186325D01*
G01X1123233Y1185840D01*
G01X1123233Y1178810D01*
G01X1122991Y1173355D01*
G01X1122264Y1171052D01*
G01X1120567Y1170083D01*
G01X1118870Y1169598D01*
G01X1117173Y1168871D01*
G01X1099718Y1162325D01*
G01X1097536Y1161598D01*
G01X1095112Y1160628D01*
G01X1089779Y1158689D01*
G01X1087355Y1157719D01*
G01X1085173Y1156992D01*
G01X1069658Y1151174D01*
G01X1067476Y1150446D01*
G01X1065052Y1149477D01*
G01X1062870Y1148507D01*
G01X1058506Y1147052D01*
G01X1056567Y1146325D01*
G01X1054385Y1145598D01*
G01X1051961Y1144628D01*
G01X1049779Y1143658D01*
G01X1045415Y1142204D01*
G01X1043718Y1141477D01*
G01X1041779Y1140749D01*
G01X1039355Y1139780D01*
G01X1034021Y1137840D01*
G01X1031597Y1136870D01*
G01X1029415Y1136143D01*
G01X1027476Y1135416D01*
G01X1025294Y1134689D01*
G01X1024142Y1134264D01*
G01X1023597Y1133476D01*
G01X1023112Y1131779D01*
G01X1022627Y1127901D01*
G01X1022142Y1124507D01*
G01X1021658Y1122325D01*
G01X1021233Y1121234D01*
G01X1020445Y1120870D01*
G01X1018264Y1121113D01*
G01X1017051Y1121355D01*
G01X1017051Y1141961D01*
G01X1017294Y1163780D01*
G01X1017961Y1164689D01*
G01X1019476Y1164992D01*
G01X1020991Y1164749D01*
G01X1021658Y1164022D01*
G01X1022142Y1162325D01*
G01X1022627Y1158931D01*
G01X1023355Y1153113D01*
G01X1023536Y1152143D01*
G01X1024082Y1151658D01*
G01X1025536Y1151901D01*
G01X1032082Y1154083D01*
G01X1034506Y1154810D01*
G01X1038385Y1156264D01*
G01X1041052Y1157234D01*
G01X1046870Y1159174D01*
G01X1049537Y1160143D01*
G01X1051961Y1160871D01*
G01X1053415Y1161113D01*
G01X1053415Y1181961D01*
G01X1053410Y1182446D01*
G01X1061173Y1182446D01*
G01X1061415Y1164749D01*
G01X1061779Y1164325D01*
G01X1062385Y1164507D01*
G01X1064324Y1165234D01*
G01X1066506Y1165961D01*
G01X1068930Y1166931D01*
G01X1074264Y1168871D01*
G01X1076688Y1169840D01*
G01X1078870Y1170568D01*
G01X1084688Y1172749D01*
G01X1089052Y1174204D01*
G01X1091476Y1175174D01*
G01X1094143Y1176143D01*
G01X1096324Y1176871D01*
G01X1106021Y1180507D01*
G01X1108203Y1181234D01*
G01X1109355Y1181598D01*
G01X1109900Y1182204D01*
G01X1109839Y1182810D01*
G01X1109173Y1183174D01*
G01X1107476Y1183901D01*
G01X1103112Y1185355D01*
G01X1097294Y1187537D01*
G01X1094870Y1188264D01*
G01X1092203Y1189234D01*
G01X1089779Y1190204D01*
G01X1087597Y1190931D01*
G01X1085658Y1191658D01*
G01X1076930Y1194567D01*
G01X1074991Y1195295D01*
G01X1072809Y1196022D01*
G01X1068930Y1197477D01*
G01X1066506Y1198446D01*
G01X1064324Y1199174D01*
G01X1062627Y1199658D01*
G01X1062627Y1199658D01*
G01X1061415Y1199658D01*
G01X1061173Y1182446D01*
G01X1053410Y1182446D01*
G01X1053234Y1197658D01*
G01X1052688Y1203052D01*
G01X1050506Y1203780D01*
G01X1048082Y1204749D01*
G01X1045900Y1205477D01*
G01X1043961Y1206204D01*
G01X1035233Y1209113D01*
G01X1029415Y1211295D01*
G01X1025052Y1212749D01*
G01X1024082Y1212749D01*
G01X1023597Y1212264D01*
G01X1023112Y1210810D01*
G01X1022627Y1206446D01*
G01X1022142Y1203052D01*
G01X1021658Y1200628D01*
G01X1021415Y1198931D01*
G01X1019961Y1198931D01*
G01X1017779Y1199416D01*
G01X1017233Y1203901D01*
G01X1017051Y1216386D01*
G37*
G36*
G01X838143Y1486446D02*
G01X838385Y1489355D01*
G01X839355Y1490810D01*
G01X840567Y1492507D01*
G01X841779Y1493719D01*
G01X843718Y1494931D01*
G01X847355Y1495658D01*
G01X850506Y1495173D01*
G01X852203Y1494446D01*
G01X853658Y1493476D01*
G01X854870Y1492264D01*
G01X856082Y1490567D01*
G01X856809Y1488628D01*
G01X857052Y1486446D01*
G01X856567Y1484022D01*
G01X855597Y1481840D01*
G01X854385Y1480143D01*
G01X853173Y1478931D01*
G01X851476Y1477719D01*
G01X849536Y1476992D01*
G01X847112Y1476992D01*
G01X844203Y1477719D01*
G01X841779Y1478931D01*
G01X839840Y1480870D01*
G01X838627Y1483052D01*
G01X838143Y1486446D01*
G37*
G36*
G01X838627Y1349719D02*
G01X838870Y1354810D01*
G01X839112Y1357234D01*
G01X839355Y1360143D01*
G01X839597Y1362567D01*
G01X839840Y1365476D01*
G01X840324Y1367416D01*
G01X841779Y1374689D01*
G01X842021Y1376386D01*
G01X846143Y1376386D01*
G01X850991Y1376628D01*
G01X857779Y1377113D01*
G01X859718Y1377355D01*
G01X862627Y1377113D01*
G01X864324Y1376870D01*
G01X864324Y1374446D01*
G01X864021Y1372507D01*
G01X863112Y1371537D01*
G01X861173Y1370810D01*
G01X858506Y1370325D01*
G01X855112Y1369598D01*
G01X852930Y1368870D01*
G01X850991Y1368628D01*
G01X849961Y1368386D01*
G01X849294Y1367658D01*
G01X848324Y1365719D01*
G01X847355Y1363295D01*
G01X846627Y1361113D01*
G01X846385Y1359173D01*
G01X845900Y1356992D01*
G01X845415Y1350931D01*
G01X845900Y1344386D01*
G01X846627Y1342204D01*
G01X846870Y1340507D01*
G01X847355Y1338810D01*
G01X848324Y1336870D01*
G01X849294Y1335174D01*
G01X850264Y1333719D01*
G01X851476Y1332264D01*
G01X853173Y1331052D01*
G01X855355Y1329840D01*
G01X857294Y1328870D01*
G01X859718Y1328143D01*
G01X862142Y1327658D01*
G01X870142Y1327416D01*
G01X878142Y1327658D01*
G01X880082Y1327901D01*
G01X882264Y1328386D01*
G01X884203Y1329113D01*
G01X886143Y1330083D01*
G01X887840Y1331052D01*
G01X889537Y1332507D01*
G01X890991Y1334446D01*
G01X891961Y1335901D01*
G01X892930Y1338083D01*
G01X893658Y1340749D01*
G01X894143Y1342689D01*
G01X894627Y1346083D01*
G01X894870Y1350931D01*
G01X894627Y1355780D01*
G01X894385Y1357476D01*
G01X894143Y1359658D01*
G01X893658Y1361598D01*
G01X893173Y1364992D01*
G01X892930Y1369598D01*
G01X892930Y1373476D01*
G01X945294Y1373476D01*
G01X945294Y1347537D01*
G01X944809Y1320871D01*
G01X943234Y1320325D01*
G01X939476Y1320143D01*
G01X933658Y1320628D01*
G01X932931Y1326325D01*
G01X932688Y1342446D01*
G01X932931Y1364507D01*
G01X932688Y1365961D01*
G01X928385Y1366507D01*
G01X916446Y1366689D01*
G01X904567Y1366507D01*
G01X900446Y1365961D01*
G01X900446Y1364507D01*
G01X900931Y1359658D01*
G01X901415Y1353355D01*
G01X901658Y1349234D01*
G01X901415Y1345113D01*
G01X901173Y1342931D01*
G01X900931Y1339780D01*
G01X900446Y1335901D01*
G01X899718Y1332992D01*
G01X898264Y1328628D01*
G01X896324Y1324749D01*
G01X895112Y1322810D01*
G01X893658Y1321113D01*
G01X890749Y1318204D01*
G01X887112Y1315780D01*
G01X885658Y1315052D01*
G01X883718Y1314325D01*
G01X881536Y1313598D01*
G01X879597Y1313113D01*
G01X874749Y1312628D01*
G01X872567Y1312386D01*
G01X870385Y1312628D01*
G01X865052Y1313113D01*
G01X863112Y1313355D01*
G01X861173Y1313840D01*
G01X856809Y1315295D01*
G01X855112Y1316264D01*
G01X852930Y1317477D01*
G01X851233Y1318689D01*
G01X850021Y1319658D01*
G01X848567Y1320871D01*
G01X847355Y1322325D01*
G01X846143Y1323537D01*
G01X844930Y1324992D01*
G01X843718Y1326931D01*
G01X842749Y1328870D01*
G01X842021Y1330567D01*
G01X841294Y1332507D01*
G01X840567Y1334689D01*
G01X839840Y1337355D01*
G01X839355Y1339780D01*
G01X838870Y1344143D01*
G01X838627Y1349719D01*
G37*
G36*
G01X838627Y1430446D02*
G01X838870Y1433840D01*
G01X839112Y1436992D01*
G01X839355Y1440628D01*
G01X839597Y1443052D01*
G01X839840Y1445961D01*
G01X841294Y1453234D01*
G01X841779Y1456143D01*
G01X842021Y1457840D01*
G01X843718Y1457840D01*
G01X846143Y1458083D01*
G01X858749Y1458567D01*
G01X860688Y1458810D01*
G01X863112Y1458567D01*
G01X864324Y1458325D01*
G01X864324Y1456143D01*
G01X863839Y1453476D01*
G01X862142Y1452749D01*
G01X859718Y1452264D01*
G01X856809Y1451537D01*
G01X853415Y1450810D01*
G01X850506Y1450082D01*
G01X848809Y1448628D01*
G01X847839Y1446446D01*
G01X847112Y1444507D01*
G01X846627Y1442082D01*
G01X846143Y1439173D01*
G01X845658Y1437234D01*
G01X845658Y1434325D01*
G01X845415Y1431416D01*
G01X845658Y1428022D01*
G01X846143Y1424628D01*
G01X846870Y1420749D01*
G01X847839Y1417840D01*
G01X848809Y1415901D01*
G01X849779Y1414446D01*
G01X851233Y1412749D01*
G01X852930Y1411295D01*
G01X854142Y1410325D01*
G01X855597Y1409598D01*
G01X857294Y1408870D01*
G01X859476Y1408143D01*
G01X861658Y1407658D01*
G01X868203Y1407416D01*
G01X874749Y1407658D01*
G01X876446Y1407901D01*
G01X878385Y1408385D01*
G01X880567Y1409355D01*
G01X882749Y1410567D01*
G01X884688Y1411779D01*
G01X885900Y1412991D01*
G01X886870Y1414204D01*
G01X887840Y1415658D01*
G01X888567Y1417355D01*
G01X889294Y1419294D01*
G01X890021Y1421476D01*
G01X890506Y1423658D01*
G01X890749Y1425598D01*
G01X891233Y1428991D01*
G01X891476Y1433840D01*
G01X891718Y1439173D01*
G01X891961Y1440385D01*
G01X894870Y1440385D01*
G01X898021Y1439901D01*
G01X898506Y1438688D01*
G01X898991Y1428991D01*
G01X899234Y1427052D01*
G01X899718Y1424385D01*
G01X900688Y1421476D01*
G01X901900Y1419052D01*
G01X903112Y1417355D01*
G01X904324Y1416143D01*
G01X906021Y1414931D01*
G01X908203Y1413719D01*
G01X910143Y1412991D01*
G01X915961Y1412022D01*
G01X918385Y1411779D01*
G01X921294Y1412022D01*
G01X924688Y1412507D01*
G01X927597Y1412991D01*
G01X929537Y1413476D01*
G01X931961Y1414446D01*
G01X933658Y1415658D01*
G01X934870Y1416628D01*
G01X936082Y1417840D01*
G01X937052Y1419294D01*
G01X938021Y1421234D01*
G01X938749Y1423173D01*
G01X939234Y1428022D01*
G01X939476Y1430204D01*
G01X938749Y1436749D01*
G01X938506Y1438446D01*
G01X938021Y1440870D01*
G01X936082Y1446204D01*
G01X935476Y1447295D01*
G01X934627Y1447658D01*
G01X932688Y1448143D01*
G01X930021Y1448870D01*
G01X927597Y1449355D01*
G01X925900Y1449598D01*
G01X923718Y1450082D01*
G01X922809Y1450870D01*
G01X922506Y1452264D01*
G01X922991Y1454931D01*
G01X925476Y1455658D01*
G01X931961Y1455901D01*
G01X941658Y1455658D01*
G01X942688Y1455113D01*
G01X943355Y1453961D01*
G01X944082Y1451779D01*
G01X944324Y1450082D01*
G01X944809Y1448143D01*
G01X945294Y1445961D01*
G01X945537Y1444022D01*
G01X945779Y1442325D01*
G01X946021Y1439173D01*
G01X946506Y1436264D01*
G01X946749Y1433113D01*
G01X946021Y1423658D01*
G01X945294Y1418567D01*
G01X944809Y1416870D01*
G01X943355Y1412022D01*
G01X942385Y1410082D01*
G01X940446Y1406688D01*
G01X939234Y1404992D01*
G01X936809Y1402567D01*
G01X935597Y1401598D01*
G01X934143Y1400628D01*
G01X932446Y1399658D01*
G01X930749Y1398931D01*
G01X928082Y1398204D01*
G01X925658Y1397476D01*
G01X921537Y1397234D01*
G01X916931Y1397476D01*
G01X914991Y1397961D01*
G01X912809Y1398446D01*
G01X910143Y1399173D01*
G01X907961Y1400143D01*
G01X906264Y1401113D01*
G01X902628Y1404022D01*
G01X901658Y1404992D01*
G01X900203Y1406688D01*
G01X898991Y1408628D01*
G01X897537Y1411537D01*
G01X896809Y1413234D01*
G01X895779Y1416688D01*
G01X895355Y1416870D01*
G01X894385Y1415173D01*
G01X893658Y1412991D01*
G01X893415Y1411295D01*
G01X892930Y1409355D01*
G01X890991Y1404992D01*
G01X889779Y1402810D01*
G01X888324Y1401113D01*
G01X884203Y1396992D01*
G01X882506Y1395779D01*
G01X880567Y1394810D01*
G01X878142Y1393840D01*
G01X875718Y1393113D01*
G01X870385Y1392628D01*
G01X867476Y1392628D01*
G01X863597Y1393113D01*
G01X860688Y1393598D01*
G01X858264Y1394325D01*
G01X855839Y1395295D01*
G01X852446Y1397234D01*
G01X850749Y1398446D01*
G01X846385Y1402810D01*
G01X845415Y1404022D01*
G01X844446Y1405476D01*
G01X843476Y1407173D01*
G01X842506Y1409113D01*
G01X841536Y1411295D01*
G01X840082Y1416628D01*
G01X839597Y1418567D01*
G01X839355Y1420264D01*
G01X838870Y1426567D01*
G01X838627Y1430446D01*
G37*
G36*
G01X840082Y1529840D02*
G01X840324Y1536143D01*
G01X850749Y1536385D01*
G01X874991Y1536385D01*
G01X899476Y1536385D01*
G01X925173Y1536628D01*
G01X926021Y1536931D01*
G01X926143Y1537355D01*
G01X924931Y1538567D01*
G01X923234Y1539779D01*
G01X922021Y1540749D01*
G01X920324Y1541961D01*
G01X915476Y1545355D01*
G01X912082Y1547779D01*
G01X909658Y1549476D01*
G01X907718Y1550931D01*
G01X906021Y1552143D01*
G01X903840Y1553598D01*
G01X901415Y1555294D01*
G01X899476Y1556749D01*
G01X897779Y1557961D01*
G01X896082Y1558931D01*
G01X894870Y1559901D01*
G01X893173Y1561355D01*
G01X890991Y1562810D01*
G01X885900Y1566446D01*
G01X882991Y1568385D01*
G01X881779Y1569355D01*
G01X880082Y1570567D01*
G01X877658Y1572264D01*
G01X875718Y1573476D01*
G01X875173Y1568991D01*
G01X874991Y1555052D01*
G01X874991Y1536385D01*
G01X874991Y1536385D01*
G01X850749Y1536385D01*
G01X862142Y1536628D01*
G01X862991Y1536931D01*
G01X863112Y1537355D01*
G01X862870Y1558446D01*
G01X863112Y1581234D01*
G01X863355Y1583416D01*
G01X867961Y1583416D01*
G01X873779Y1582931D01*
G01X875476Y1581961D01*
G01X877173Y1580749D01*
G01X879597Y1579052D01*
G01X881536Y1577597D01*
G01X884446Y1575658D01*
G01X885658Y1574688D01*
G01X890749Y1571052D01*
G01X892930Y1569597D01*
G01X894627Y1568385D01*
G01X895840Y1567416D01*
G01X900931Y1563779D01*
G01X908203Y1558688D01*
G01X910143Y1557234D01*
G01X913537Y1554810D01*
G01X914991Y1553840D01*
G01X916931Y1552385D01*
G01X921779Y1548991D01*
G01X923718Y1547537D01*
G01X925415Y1546325D01*
G01X927597Y1544870D01*
G01X930991Y1542446D01*
G01X933415Y1540749D01*
G01X935355Y1539295D01*
G01X936567Y1538325D01*
G01X939476Y1536385D01*
G01X944567Y1532749D01*
G01X945476Y1531355D01*
G01X945779Y1528628D01*
G01X945537Y1524022D01*
G01X945294Y1522810D01*
G01X909900Y1522810D01*
G01X883415Y1522688D01*
G01X874749Y1522325D01*
G01X874991Y1516992D01*
G01X874749Y1510446D01*
G01X874506Y1508749D01*
G01X869415Y1508749D01*
G01X863597Y1509234D01*
G01X863052Y1510810D01*
G01X862870Y1514567D01*
G01X863112Y1521113D01*
G01X863355Y1522810D01*
G01X852446Y1522810D01*
G01X840809Y1523295D01*
G01X840264Y1525173D01*
G01X840082Y1529840D01*
G37*
G36*
G01X1015112Y1446204D02*
G01X1015355Y1449113D01*
G01X1016082Y1450325D01*
G01X1016809Y1451779D01*
G01X1018264Y1453476D01*
G01X1020203Y1454689D01*
G01X1021900Y1455416D01*
G01X1023839Y1455901D01*
G01X1026506Y1455416D01*
G01X1029415Y1454204D01*
G01X1031355Y1452749D01*
G01X1032567Y1451052D01*
G01X1033536Y1449113D01*
G01X1034021Y1446931D01*
G01X1033536Y1444022D01*
G01X1032324Y1441355D01*
G01X1031112Y1439658D01*
G01X1029658Y1438446D01*
G01X1027718Y1437476D01*
G01X1024809Y1436992D01*
G01X1021658Y1437476D01*
G01X1019718Y1438446D01*
G01X1018264Y1439416D01*
G01X1017051Y1440628D01*
G01X1015839Y1442567D01*
G01X1015112Y1446204D01*
G37*
G36*
G01X1015597Y1510446D02*
G01X1015839Y1513840D01*
G01X1016082Y1516992D01*
G01X1016324Y1520628D01*
G01X1016567Y1523052D01*
G01X1016809Y1525961D01*
G01X1018264Y1533234D01*
G01X1018748Y1536143D01*
G01X1018991Y1537840D01*
G01X1020688Y1537840D01*
G01X1023112Y1538082D01*
G01X1035718Y1538567D01*
G01X1037658Y1538810D01*
G01X1040082Y1538567D01*
G01X1041294Y1538325D01*
G01X1041294Y1536143D01*
G01X1040809Y1533476D01*
G01X1039112Y1532749D01*
G01X1036688Y1532264D01*
G01X1033779Y1531537D01*
G01X1030385Y1530810D01*
G01X1027476Y1530082D01*
G01X1025779Y1528628D01*
G01X1024809Y1526446D01*
G01X1024082Y1524507D01*
G01X1023597Y1522082D01*
G01X1023112Y1519173D01*
G01X1022627Y1517234D01*
G01X1022627Y1514325D01*
G01X1022385Y1511416D01*
G01X1022627Y1508022D01*
G01X1023112Y1504628D01*
G01X1023839Y1500749D01*
G01X1024809Y1497840D01*
G01X1025779Y1495901D01*
G01X1026748Y1494446D01*
G01X1028203Y1492749D01*
G01X1029900Y1491295D01*
G01X1031112Y1490325D01*
G01X1032567Y1489598D01*
G01X1034264Y1488870D01*
G01X1036446Y1488143D01*
G01X1038627Y1487658D01*
G01X1045173Y1487416D01*
G01X1051718Y1487658D01*
G01X1053415Y1487901D01*
G01X1055355Y1488386D01*
G01X1057537Y1489355D01*
G01X1059718Y1490567D01*
G01X1061658Y1491779D01*
G01X1062870Y1492992D01*
G01X1063840Y1494204D01*
G01X1064809Y1495658D01*
G01X1065537Y1497355D01*
G01X1066264Y1499295D01*
G01X1066991Y1501476D01*
G01X1067476Y1503658D01*
G01X1067718Y1505598D01*
G01X1068203Y1508992D01*
G01X1068446Y1513840D01*
G01X1068688Y1519173D01*
G01X1068930Y1520385D01*
G01X1071840Y1520385D01*
G01X1074991Y1519901D01*
G01X1075476Y1518689D01*
G01X1075961Y1508992D01*
G01X1076203Y1507052D01*
G01X1076688Y1504386D01*
G01X1077658Y1501476D01*
G01X1078870Y1499052D01*
G01X1080082Y1497355D01*
G01X1081294Y1496143D01*
G01X1082991Y1494931D01*
G01X1085173Y1493719D01*
G01X1087112Y1492992D01*
G01X1092930Y1492022D01*
G01X1095355Y1491779D01*
G01X1098264Y1492022D01*
G01X1101658Y1492507D01*
G01X1104567Y1492992D01*
G01X1106506Y1493476D01*
G01X1108930Y1494446D01*
G01X1110627Y1495658D01*
G01X1111839Y1496628D01*
G01X1113052Y1497840D01*
G01X1114021Y1499295D01*
G01X1114991Y1501234D01*
G01X1115718Y1503173D01*
G01X1116203Y1508022D01*
G01X1116446Y1510204D01*
G01X1115718Y1516749D01*
G01X1115476Y1518446D01*
G01X1114991Y1520870D01*
G01X1113052Y1526204D01*
G01X1112446Y1527295D01*
G01X1111597Y1527658D01*
G01X1109658Y1528143D01*
G01X1106991Y1528870D01*
G01X1104567Y1529355D01*
G01X1102870Y1529598D01*
G01X1100688Y1530082D01*
G01X1099779Y1530870D01*
G01X1099476Y1532264D01*
G01X1099961Y1534931D01*
G01X1102446Y1535658D01*
G01X1108930Y1535901D01*
G01X1118627Y1535658D01*
G01X1119658Y1535113D01*
G01X1120324Y1533961D01*
G01X1121052Y1531779D01*
G01X1121294Y1530082D01*
G01X1121779Y1528143D01*
G01X1122264Y1525961D01*
G01X1122506Y1524022D01*
G01X1122749Y1522325D01*
G01X1122991Y1519173D01*
G01X1123476Y1516264D01*
G01X1123718Y1513113D01*
G01X1122991Y1503658D01*
G01X1122264Y1498567D01*
G01X1121779Y1496870D01*
G01X1120324Y1492022D01*
G01X1119355Y1490083D01*
G01X1117415Y1486689D01*
G01X1116203Y1484992D01*
G01X1113779Y1482567D01*
G01X1112567Y1481598D01*
G01X1111112Y1480628D01*
G01X1109415Y1479658D01*
G01X1107718Y1478931D01*
G01X1105052Y1478204D01*
G01X1102627Y1477476D01*
G01X1098506Y1477234D01*
G01X1093900Y1477476D01*
G01X1091961Y1477961D01*
G01X1089779Y1478446D01*
G01X1087112Y1479173D01*
G01X1084930Y1480143D01*
G01X1083233Y1481113D01*
G01X1079597Y1484022D01*
G01X1078627Y1484992D01*
G01X1077173Y1486689D01*
G01X1075961Y1488628D01*
G01X1074506Y1491537D01*
G01X1073779Y1493234D01*
G01X1072749Y1496689D01*
G01X1072324Y1496870D01*
G01X1071355Y1495173D01*
G01X1070627Y1492992D01*
G01X1070385Y1491295D01*
G01X1069900Y1489355D01*
G01X1067961Y1484992D01*
G01X1066749Y1482810D01*
G01X1065294Y1481113D01*
G01X1061173Y1476992D01*
G01X1059476Y1475780D01*
G01X1057537Y1474810D01*
G01X1055112Y1473840D01*
G01X1052688Y1473113D01*
G01X1047355Y1472628D01*
G01X1044446Y1472628D01*
G01X1040567Y1473113D01*
G01X1037658Y1473598D01*
G01X1035233Y1474325D01*
G01X1032809Y1475295D01*
G01X1029415Y1477234D01*
G01X1027718Y1478446D01*
G01X1023355Y1482810D01*
G01X1022385Y1484022D01*
G01X1021415Y1485476D01*
G01X1020445Y1487173D01*
G01X1019476Y1489113D01*
G01X1018506Y1491295D01*
G01X1017051Y1496628D01*
G01X1016567Y1498567D01*
G01X1016324Y1500264D01*
G01X1015839Y1506567D01*
G01X1015597Y1510446D01*
G37*
G36*
G01X1017051Y1387295D02*
G01X1017294Y1419052D01*
G01X1022385Y1419537D01*
G01X1027961Y1419294D01*
G01X1029415Y1418567D01*
G01X1031112Y1416870D01*
G01X1032567Y1414931D01*
G01X1036203Y1411295D01*
G01X1038627Y1408385D01*
G01X1041052Y1405961D01*
G01X1043961Y1402567D01*
G01X1046385Y1399658D01*
G01X1050991Y1395052D01*
G01X1051718Y1394082D01*
G01X1052688Y1392870D01*
G01X1058021Y1387537D01*
G01X1059961Y1386082D01*
G01X1062385Y1383658D01*
G01X1064809Y1381719D01*
G01X1066749Y1380507D01*
G01X1068446Y1379295D01*
G01X1069900Y1378325D01*
G01X1071597Y1377355D01*
G01X1073537Y1376386D01*
G01X1075961Y1375416D01*
G01X1078627Y1374446D01*
G01X1080809Y1373719D01*
G01X1085658Y1372749D01*
G01X1089536Y1372264D01*
G01X1094627Y1372022D01*
G01X1099718Y1372264D01*
G01X1101415Y1372507D01*
G01X1103355Y1372992D01*
G01X1105779Y1373719D01*
G01X1108446Y1374689D01*
G01X1110627Y1376143D01*
G01X1112082Y1377355D01*
G01X1113052Y1378325D01*
G01X1114021Y1379779D01*
G01X1114991Y1381719D01*
G01X1115718Y1383416D01*
G01X1116203Y1386810D01*
G01X1116446Y1390689D01*
G01X1116203Y1394567D01*
G01X1115961Y1396749D01*
G01X1115476Y1399901D01*
G01X1114506Y1402810D01*
G01X1113779Y1404749D01*
G01X1113294Y1406446D01*
G01X1112870Y1407234D01*
G01X1112082Y1407658D01*
G01X1110142Y1408385D01*
G01X1107476Y1409113D01*
G01X1104567Y1409598D01*
G01X1102143Y1410082D01*
G01X1100203Y1410810D01*
G01X1099658Y1411598D01*
G01X1099476Y1412991D01*
G01X1099658Y1414446D01*
G01X1100203Y1415416D01*
G01X1102749Y1415961D01*
G01X1108930Y1416143D01*
G01X1118142Y1415901D01*
G01X1119839Y1414931D01*
G01X1120567Y1413476D01*
G01X1121536Y1408628D01*
G01X1121779Y1406688D01*
G01X1122264Y1404507D01*
G01X1122749Y1401840D01*
G01X1122991Y1399416D01*
G01X1123233Y1392628D01*
G01X1122991Y1385840D01*
G01X1122749Y1382931D01*
G01X1122264Y1380022D01*
G01X1120809Y1374689D01*
G01X1118870Y1370325D01*
G01X1117900Y1368628D01*
G01X1116446Y1366446D01*
G01X1114991Y1364507D01*
G01X1113779Y1363295D01*
G01X1111839Y1361840D01*
G01X1109900Y1360628D01*
G01X1108688Y1359901D01*
G01X1106749Y1358931D01*
G01X1104567Y1358204D01*
G01X1100203Y1357234D01*
G01X1096809Y1356992D01*
G01X1093415Y1357234D01*
G01X1090749Y1357476D01*
G01X1087840Y1357961D01*
G01X1085173Y1358689D01*
G01X1082749Y1359416D01*
G01X1080809Y1360143D01*
G01X1078385Y1361113D01*
G01X1074021Y1363537D01*
G01X1072082Y1364749D01*
G01X1070627Y1365719D01*
G01X1069415Y1366689D01*
G01X1068203Y1367416D01*
G01X1066991Y1368386D01*
G01X1065294Y1370083D01*
G01X1063597Y1371537D01*
G01X1062385Y1372507D01*
G01X1053900Y1380992D01*
G01X1051961Y1383416D01*
G01X1050749Y1384628D01*
G01X1048324Y1387537D01*
G01X1046627Y1389234D01*
G01X1045173Y1391173D01*
G01X1043961Y1392385D01*
G01X1042021Y1394810D01*
G01X1040324Y1396507D01*
G01X1038870Y1398446D01*
G01X1037658Y1399658D01*
G01X1035233Y1402567D01*
G01X1032809Y1404992D01*
G01X1031597Y1406446D01*
G01X1030385Y1407658D01*
G01X1029839Y1401537D01*
G01X1029658Y1382689D01*
G01X1029415Y1356264D01*
G01X1029173Y1355052D01*
G01X1023839Y1355052D01*
G01X1017779Y1355537D01*
G01X1017233Y1363719D01*
G01X1017051Y1387295D01*
G37*
G36*
G01X1017051Y1303901D02*
G01X1017294Y1331780D01*
G01X1019233Y1332264D01*
G01X1020627Y1332083D01*
G01X1021415Y1331537D01*
G01X1021900Y1328628D01*
G01X1022142Y1325719D01*
G01X1022385Y1323780D01*
G01X1022627Y1320871D01*
G01X1023112Y1318446D01*
G01X1023355Y1315537D01*
G01X1023597Y1312143D01*
G01X1023839Y1310931D01*
G01X1108688Y1310931D01*
G01X1108446Y1311901D01*
G01X1107718Y1314083D01*
G01X1103839Y1324749D01*
G01X1102870Y1327658D01*
G01X1101900Y1330325D01*
G01X1101900Y1331780D01*
G01X1103355Y1332264D01*
G01X1105536Y1331537D01*
G01X1107233Y1329598D01*
G01X1108203Y1327658D01*
G01X1111112Y1322567D01*
G01X1112324Y1320386D01*
G01X1113536Y1318446D01*
G01X1114506Y1316507D01*
G01X1118385Y1309719D01*
G01X1119597Y1307295D01*
G01X1121052Y1304870D01*
G01X1122264Y1302931D01*
G01X1122749Y1299780D01*
G01X1122749Y1297355D01*
G01X1073779Y1297355D01*
G01X1024082Y1296870D01*
G01X1023355Y1295173D01*
G01X1023112Y1291779D01*
G01X1022627Y1288870D01*
G01X1022142Y1284022D01*
G01X1021900Y1281840D01*
G01X1021658Y1278204D01*
G01X1021233Y1276567D01*
G01X1020445Y1276022D01*
G01X1018264Y1276264D01*
G01X1017051Y1276507D01*
G01X1017051Y1303901D01*
G37*
G36*
G01X838627Y1890810D02*
G01X838739Y1892264D01*
G01X845173Y1892264D01*
G01X845173Y1889597D01*
G01X845900Y1885961D01*
G01X846870Y1883537D01*
G01X847839Y1881840D01*
G01X850264Y1879416D01*
G01X851718Y1878203D01*
G01X853173Y1877234D01*
G01X854870Y1876264D01*
G01X857294Y1875294D01*
G01X860203Y1874325D01*
G01X862627Y1873597D01*
G01X866991Y1872628D01*
G01X870385Y1872143D01*
G01X873052Y1871900D01*
G01X877173Y1871658D01*
G01X880082Y1871173D01*
G01X891718Y1870931D01*
G01X904809Y1871173D01*
G01X907718Y1871658D01*
G01X914021Y1872143D01*
G01X917900Y1872628D01*
G01X919597Y1872870D01*
G01X927355Y1874809D01*
G01X929537Y1875779D01*
G01X931961Y1876991D01*
G01X933900Y1878203D01*
G01X935355Y1879173D01*
G01X936567Y1880385D01*
G01X938021Y1882325D01*
G01X939234Y1884749D01*
G01X939961Y1886931D01*
G01X940446Y1890082D01*
G01X940203Y1892991D01*
G01X939718Y1894931D01*
G01X938991Y1897113D01*
G01X937779Y1899294D01*
G01X936567Y1900991D01*
G01X935597Y1901961D01*
G01X934385Y1902931D01*
G01X932446Y1904143D01*
G01X930021Y1905355D01*
G01X927355Y1906325D01*
G01X925173Y1907052D01*
G01X920809Y1908022D01*
G01X916931Y1908507D01*
G01X911112Y1908991D01*
G01X907234Y1909476D01*
G01X893900Y1909719D01*
G01X880567Y1909476D01*
G01X876203Y1908991D01*
G01X871355Y1908507D01*
G01X866991Y1908022D01*
G01X865294Y1907779D01*
G01X862870Y1907294D01*
G01X860688Y1906567D01*
G01X858506Y1906082D01*
G01X856324Y1905355D01*
G01X854142Y1904385D01*
G01X851476Y1902931D01*
G01X849536Y1901476D01*
G01X848324Y1900264D01*
G01X847355Y1899052D01*
G01X846627Y1897597D01*
G01X845900Y1895900D01*
G01X845415Y1893961D01*
G01X845415Y1893961D01*
G01X845173Y1892264D01*
G01X838739Y1892264D01*
G01X838870Y1893961D01*
G01X839355Y1896870D01*
G01X840082Y1900022D01*
G01X841052Y1902446D01*
G01X842021Y1904628D01*
G01X842991Y1906325D01*
G01X844446Y1908507D01*
G01X845900Y1910446D01*
G01X847112Y1911658D01*
G01X848324Y1912628D01*
G01X850021Y1914082D01*
G01X853658Y1916507D01*
G01X856567Y1917961D01*
G01X858749Y1918931D01*
G01X861173Y1919901D01*
G01X868445Y1922082D01*
G01X874264Y1923052D01*
G01X876688Y1923537D01*
G01X883476Y1924022D01*
G01X892203Y1924264D01*
G01X900931Y1924022D01*
G01X904082Y1923779D01*
G01X907718Y1923537D01*
G01X910143Y1923052D01*
G01X913052Y1922567D01*
G01X916446Y1922082D01*
G01X919112Y1921355D01*
G01X923961Y1919901D01*
G01X925900Y1919173D01*
G01X927597Y1918446D01*
G01X931476Y1916507D01*
G01X933173Y1915537D01*
G01X934627Y1914567D01*
G01X936324Y1913355D01*
G01X938021Y1911901D01*
G01X940446Y1909476D01*
G01X941415Y1908264D01*
G01X942385Y1906810D01*
G01X943597Y1904628D01*
G01X944809Y1901961D01*
G01X945779Y1899537D01*
G01X946264Y1897597D01*
G01X946506Y1895900D01*
G01X946991Y1891537D01*
G01X946991Y1890325D01*
G01X946749Y1888870D01*
G01X946506Y1886203D01*
G01X946021Y1882809D01*
G01X945294Y1880385D01*
G01X944567Y1878446D01*
G01X943840Y1876749D01*
G01X941900Y1873355D01*
G01X940688Y1871658D01*
G01X939234Y1869961D01*
G01X936809Y1867537D01*
G01X935597Y1866567D01*
G01X932688Y1864628D01*
G01X930991Y1863658D01*
G01X929052Y1862688D01*
G01X924688Y1860749D01*
G01X922264Y1860022D01*
G01X919597Y1859294D01*
G01X917415Y1858567D01*
G01X911597Y1857597D01*
G01X909658Y1857113D01*
G01X902385Y1856628D01*
G01X893415Y1856385D01*
G01X884446Y1856628D01*
G01X877658Y1857113D01*
G01X875476Y1857597D01*
G01X872324Y1858082D01*
G01X869415Y1858567D01*
G01X867476Y1859052D01*
G01X865294Y1859537D01*
G01X862870Y1860264D01*
G01X858991Y1861719D01*
G01X856809Y1862688D01*
G01X854385Y1863900D01*
G01X851961Y1865355D01*
G01X849536Y1867052D01*
G01X847839Y1868264D01*
G01X846385Y1869719D01*
G01X844446Y1872143D01*
G01X842991Y1874325D01*
G01X842021Y1876022D01*
G01X841294Y1877719D01*
G01X840567Y1879658D01*
G01X839840Y1881840D01*
G01X839355Y1883779D01*
G01X838870Y1887658D01*
G01X838627Y1890810D01*
G37*
G36*
G01X840082Y1971052D02*
G01X840324Y2002809D01*
G01X846385Y2003294D01*
G01X852203Y2003294D01*
G01X852930Y2002082D01*
G01X854385Y2000385D01*
G01X856082Y1998688D01*
G01X857536Y1996749D01*
G01X861173Y1993112D01*
G01X863112Y1990688D01*
G01X866749Y1987052D01*
G01X868688Y1984628D01*
G01X869900Y1983416D01*
G01X872324Y1980506D01*
G01X884446Y1968385D01*
G01X888324Y1965476D01*
G01X890021Y1964264D01*
G01X893900Y1961840D01*
G01X896082Y1960628D01*
G01X898021Y1959658D01*
G01X900203Y1958931D01*
G01X902628Y1958204D01*
G01X904809Y1957476D01*
G01X906749Y1956991D01*
G01X911112Y1956507D01*
G01X916688Y1956264D01*
G01X923234Y1956507D01*
G01X926143Y1956991D01*
G01X928082Y1957476D01*
G01X929779Y1957961D01*
G01X931718Y1958931D01*
G01X933415Y1959900D01*
G01X934627Y1960870D01*
G01X935840Y1962082D01*
G01X937052Y1963779D01*
G01X938021Y1965719D01*
G01X938749Y1968143D01*
G01X939234Y1970567D01*
G01X939476Y1974688D01*
G01X939234Y1978810D01*
G01X938749Y1982203D01*
G01X938264Y1984628D01*
G01X937537Y1987052D01*
G01X936809Y1988991D01*
G01X935840Y1991173D01*
G01X934870Y1991961D01*
G01X933415Y1992385D01*
G01X930991Y1992870D01*
G01X929294Y1993112D01*
G01X927355Y1993597D01*
G01X924688Y1994325D01*
G01X923355Y1994749D01*
G01X922749Y1995537D01*
G01X922749Y1998203D01*
G01X922991Y1999900D01*
G01X932688Y1999900D01*
G01X942627Y1999416D01*
G01X943355Y1997961D01*
G01X944082Y1995052D01*
G01X944567Y1992385D01*
G01X944809Y1990446D01*
G01X945294Y1988264D01*
G01X945779Y1985597D01*
G01X946021Y1983173D01*
G01X946264Y1976628D01*
G01X946021Y1970082D01*
G01X945537Y1965234D01*
G01X944324Y1960385D01*
G01X943355Y1957476D01*
G01X942385Y1955294D01*
G01X941415Y1953355D01*
G01X939961Y1951173D01*
G01X938506Y1949234D01*
G01X936082Y1946810D01*
G01X934627Y1945597D01*
G01X932688Y1944385D01*
G01X930749Y1943416D01*
G01X929052Y1942688D01*
G01X926627Y1941961D01*
G01X924203Y1941476D01*
G01X920324Y1940991D01*
G01X918143Y1940991D01*
G01X914991Y1941476D01*
G01X911112Y1941961D01*
G01X907961Y1942688D01*
G01X903597Y1944143D01*
G01X901415Y1945113D01*
G01X898991Y1946325D01*
G01X896567Y1947779D01*
G01X894385Y1949234D01*
G01X892688Y1950446D01*
G01X891476Y1951416D01*
G01X890021Y1952385D01*
G01X885658Y1956022D01*
G01X879839Y1961840D01*
G01X878870Y1963052D01*
G01X877658Y1964507D01*
G01X874021Y1968143D01*
G01X873052Y1969355D01*
G01X871597Y1971052D01*
G01X870142Y1972991D01*
G01X867718Y1975416D01*
G01X865779Y1977840D01*
G01X864567Y1979052D01*
G01X861658Y1982446D01*
G01X859718Y1984870D01*
G01X858506Y1986082D01*
G01X856567Y1988506D01*
G01X853173Y1991900D01*
G01X852809Y1985597D01*
G01X852688Y1966203D01*
G01X852203Y1939537D01*
G01X850627Y1938991D01*
G01X846870Y1938810D01*
G01X841052Y1939294D01*
G01X840324Y1947476D01*
G01X840082Y1971052D01*
G37*
G36*
G01X898264Y1818567D02*
G01X898294Y1819052D01*
G01X906021Y1819052D01*
G01X906264Y1815901D01*
G01X906749Y1813961D01*
G01X907476Y1811779D01*
G01X908446Y1810082D01*
G01X909658Y1808143D01*
G01X911597Y1805961D01*
G01X913779Y1804507D01*
G01X915476Y1803537D01*
G01X917415Y1802810D01*
G01X919355Y1802325D01*
G01X921779Y1802082D01*
G01X924203Y1802325D01*
G01X926627Y1802810D01*
G01X929052Y1803537D01*
G01X930749Y1804264D01*
G01X932203Y1805234D01*
G01X934627Y1807173D01*
G01X935597Y1808385D01*
G01X936567Y1809840D01*
G01X937537Y1811537D01*
G01X938264Y1813476D01*
G01X938749Y1815416D01*
G01X938991Y1817597D01*
G01X938749Y1819779D01*
G01X938506Y1821476D01*
G01X938021Y1823416D01*
G01X937052Y1825597D01*
G01X936082Y1827294D01*
G01X934870Y1828991D01*
G01X933415Y1830688D01*
G01X931476Y1832143D01*
G01X928809Y1833597D01*
G01X926627Y1834325D01*
G01X922749Y1834567D01*
G01X918143Y1834082D01*
G01X915476Y1833113D01*
G01X913052Y1831900D01*
G01X911355Y1830446D01*
G01X910143Y1829234D01*
G01X908931Y1827779D01*
G01X907718Y1825840D01*
G01X906749Y1823416D01*
G01X906749Y1823416D01*
G01X906264Y1821719D01*
G01X906021Y1819052D01*
G01X898294Y1819052D01*
G01X898506Y1822446D01*
G01X899234Y1825113D01*
G01X900203Y1828022D01*
G01X901415Y1830446D01*
G01X902628Y1832143D01*
G01X903355Y1833355D01*
G01X904324Y1834567D01*
G01X907234Y1837476D01*
G01X910870Y1839900D01*
G01X912324Y1840628D01*
G01X914021Y1841355D01*
G01X916446Y1842082D01*
G01X919840Y1842567D01*
G01X923234Y1842567D01*
G01X926627Y1842082D01*
G01X929779Y1841355D01*
G01X932446Y1840385D01*
G01X935840Y1838688D01*
G01X937052Y1837719D01*
G01X938506Y1836507D01*
G01X940446Y1834810D01*
G01X941900Y1832870D01*
G01X943112Y1831173D01*
G01X944324Y1828991D01*
G01X945294Y1826810D01*
G01X946021Y1824143D01*
G01X946506Y1821719D01*
G01X946749Y1819294D01*
G01X946506Y1816385D01*
G01X946021Y1813476D01*
G01X945294Y1810810D01*
G01X943355Y1806446D01*
G01X942143Y1804507D01*
G01X940930Y1802810D01*
G01X938506Y1800385D01*
G01X936809Y1798931D01*
G01X935112Y1797719D01*
G01X933415Y1796749D01*
G01X931234Y1795779D01*
G01X929052Y1795052D01*
G01X927112Y1794567D01*
G01X923718Y1794325D01*
G01X919355Y1794567D01*
G01X916446Y1795052D01*
G01X914264Y1795779D01*
G01X912082Y1796749D01*
G01X909658Y1797961D01*
G01X907961Y1799173D01*
G01X906749Y1800143D01*
G01X904324Y1802567D01*
G01X902870Y1804264D01*
G01X901415Y1806446D01*
G01X900203Y1808628D01*
G01X899476Y1810567D01*
G01X898506Y1814931D01*
G01X898264Y1818567D01*
G37*
G04 Text End*

G04 PolygonModel Start*
G54D11*
G01X3557700Y3406140D02*
G01X4931700Y3406140D01*
G01X3557700Y3751580D02*
G01X4931700Y3751580D01*
G01X3557700Y3060700D02*
G01X4931700Y3060700D01*
G01X697900Y400050D02*
G01X1197900Y400050D01*
G01X697900Y742950D02*
G01X1197900Y742995D01*
G54D12*
G01X6607178Y3006044D02*
G01X5047104Y3006044D01*
G01X6609291Y2997680D02*
G01X6609291Y1077679D01*
G01X6607178Y1075644D02*
G01X5047104Y1075644D01*
G01X5049294Y1077679D02*
G01X5049294Y2997680D01*
G01X5626095Y1179279D02*
G01X5626095Y1077679D01*
G01X6032495Y1077679D02*
G01X6032495Y1179279D01*
G01X6311895Y1524005D02*
G01X6081895Y1524005D01*
G01X5549895Y1532844D02*
G01X5346695Y1532844D01*
G01X5829295Y1422405D02*
G01X5829173Y1491564D01*
G01X5829173Y1491564D02*
G01X5829295Y2540005D01*
G01X5829295Y2540005D02*
G01X5727695Y2667005D01*
G01X6235573Y2667076D02*
G01X5879973Y2667076D01*
G01X6032495Y1179279D02*
G01X5950306Y1179279D01*
G01X5708294Y1179279D02*
G01X5626095Y1179279D01*
G01X6083295Y1532844D02*
G03X5905495Y1532844I-88900J0D01*
G01X5905495Y1532844D02*
G03X5727695Y1532844I-88900J0D01*
G01X5727695Y1532844D02*
G03X5549895Y1532844I-88900J0D01*
G01X1806578Y4022044D02*
G01X246504Y4022044D01*
G01X1808691Y4013680D02*
G01X1808691Y2093679D01*
G01X1806578Y2091644D02*
G01X246504Y2091644D01*
G01X248694Y2093679D02*
G01X248694Y4013680D01*
G01X825495Y2195279D02*
G01X825495Y2093679D01*
G01X1231895Y2093679D02*
G01X1231895Y2195279D01*
G01X1511295Y2540005D02*
G01X1281295Y2540005D01*
G01X749295Y2548844D02*
G01X546095Y2548844D01*
G01X1028695Y2438405D02*
G01X1028573Y2507564D01*
G01X1028573Y2507564D02*
G01X1028695Y3556005D01*
G01X1028695Y3556005D02*
G01X927095Y3683005D01*
G01X1434973Y3683076D02*
G01X1079373Y3683076D01*
G01X1231895Y2195279D02*
G01X1149706Y2195279D01*
G01X907694Y2195279D02*
G01X825495Y2195279D01*
G01X1282695Y2548844D02*
G03X1104895Y2548844I-88900J0D01*
G01X1104895Y2548844D02*
G03X927095Y2548844I-88900J0D01*
G01X927095Y2548844D02*
G03X749295Y2548844I-88900J0D01*
G54D13*
G01X4124015Y1721547D02*
G01X3629101Y1721547D01*
G01X4829099Y1721547D02*
G01X4334226Y1721547D01*
G01X4829096Y1721547D02*
G01X4829099Y1619759D01*
G01X3629104Y1721547D02*
G01X3629101Y1619759D01*
G01X4654804Y2667585D02*
G01X4260342Y2667585D01*
G01X4158996Y2565757D02*
G01X3998214Y2730806D01*
G01X4049100Y1247573D02*
G01X3856380Y1247573D01*
G01X3856380Y1247573D02*
G01X3856380Y2111173D01*
G01X3856380Y2111173D02*
G01X4156380Y2111173D01*
G01X4156380Y2111173D02*
G01X4158795Y2113586D01*
G01X4158795Y2113586D02*
G01X4158795Y2515185D01*
G01X4158795Y2515185D02*
G01X4158795Y2565985D01*
G54D12*
G01X5009098Y3000856D02*
G01X5009098Y1080845D01*
G01X3449096Y3000844D02*
G01X3449096Y1080832D01*
G01X5009101Y3000846D02*
G01X3449099Y3000846D01*
G01X3804412Y2660677D02*
G01X4027170Y2660677D01*
G01X3449096Y1080832D02*
G01X4199631Y1080832D01*
G01X4258569Y1080832D02*
G01X5009098Y1080832D01*
G01X4129100Y1573252D02*
G01X4129100Y1873251D01*
G01X4329100Y1873251D01*
G01X4329100Y1573252D01*
G01X4129100Y1573252D01*
G54D13*
G01X2523815Y786801D02*
G01X2028901Y786801D01*
G01X3228899Y786801D02*
G01X2734026Y786801D01*
G01X3228896Y786801D02*
G01X3228899Y685013D01*
G01X2028904Y786801D02*
G01X2028901Y685013D01*
G01X3054604Y1732839D02*
G01X2660142Y1732839D01*
G01X2558796Y1631010D02*
G01X2398014Y1796059D01*
G01X2448900Y312826D02*
G01X2256180Y312826D01*
G01X2256180Y312826D02*
G01X2256180Y1176426D01*
G01X2256180Y1176426D02*
G01X2556180Y1176426D01*
G01X2556180Y1176426D02*
G01X2558595Y1178839D01*
G01X2558595Y1178839D02*
G01X2558595Y1580439D01*
G01X2558595Y1580439D02*
G01X2558595Y1631239D01*
G54D12*
G01X3408898Y2066110D02*
G01X3408898Y146098D01*
G01X1848896Y2066097D02*
G01X1848896Y146086D01*
G01X3408901Y2066100D02*
G01X1848899Y2066100D01*
G01X2204212Y1725930D02*
G01X2426970Y1725930D01*
G01X1848896Y146086D02*
G01X2599431Y146086D01*
G01X2658369Y146086D02*
G01X3408898Y146086D01*
G01X2528900Y638505D02*
G01X2528900Y938505D01*
G01X2728900Y938505D01*
G01X2728900Y638505D01*
G01X2528900Y638505D01*
G54D13*
G01X2523815Y2742601D02*
G01X2028901Y2742601D01*
G01X3228899Y2742601D02*
G01X2734026Y2742601D01*
G01X3228896Y2742601D02*
G01X3228899Y2640813D01*
G01X2028904Y2742601D02*
G01X2028901Y2640813D01*
G01X3054604Y3688639D02*
G01X2660142Y3688639D01*
G01X2558796Y3586810D02*
G01X2398014Y3751859D01*
G01X2448900Y2268626D02*
G01X2256180Y2268626D01*
G01X2256180Y2268626D02*
G01X2256180Y3132226D01*
G01X2256180Y3132226D02*
G01X2556180Y3132226D01*
G01X2556180Y3132226D02*
G01X2558595Y3134639D01*
G01X2558595Y3134639D02*
G01X2558595Y3536239D01*
G01X2558595Y3536239D02*
G01X2558595Y3587039D01*
G54D12*
G01X3408898Y4021910D02*
G01X3408898Y2101898D01*
G01X1848896Y4021897D02*
G01X1848896Y2101886D01*
G01X3408901Y4021900D02*
G01X1848899Y4021900D01*
G01X2204212Y3681730D02*
G01X2426970Y3681730D01*
G01X1848896Y2101886D02*
G01X2599431Y2101886D01*
G01X2658369Y2101886D02*
G01X3408898Y2101886D01*
G01X2528900Y2594305D02*
G01X2528900Y2894305D01*
G01X2728900Y2894305D01*
G01X2728900Y2594305D01*
G01X2528900Y2594305D01*

G04 Circle Start*
G01X5803900Y2540000D02*
G03X5854700Y2540000I25400J0D01*
G03X5803900Y2540000I-25400J0D01*
G54D14*
G01X6388499Y2489200D02*
G03X6438501Y2489200I25001J0D01*
G03X6388499Y2489200I-25001J0D01*
G54D12*
G01X1003300Y3556000D02*
G03X1054100Y3556000I25400J0D01*
G03X1003300Y3556000I-25400J0D01*
G54D14*
G01X1587899Y3505200D02*
G03X1637901Y3505200I25001J0D01*
G03X1587899Y3505200I-25001J0D01*
G54D12*
G01X4859096Y1190753D02*
G03X4959121Y1190753I50013J0D01*
G03X4859096Y1190753I-50013J0D01*
G01X3258896Y256007D02*
G03X3358921Y256007I50013J0D01*
G03X3258896Y256007I-50013J0D01*
G01X3258896Y2211807D02*
G03X3358921Y2211807I50013J0D01*
G03X3258896Y2211807I-50013J0D01*
G04 Circle End*

M02*

